<mxfile host="Electron" agent="Mozilla/5.0 (Windows NT 10.0; Win64; x64) AppleWebKit/537.36 (KHTML, like Gecko) draw.io/26.2.2 Chrome/134.0.6998.178 Electron/35.1.2 Safari/537.36" version="26.2.2">
  <diagram name="Page-1" id="AkAx2EnRnxsxpeL4Aot4">
    <mxGraphModel dx="2380" dy="335" grid="1" gridSize="10" guides="1" tooltips="1" connect="1" arrows="1" fold="1" page="1" pageScale="1" pageWidth="1920" pageHeight="1080" math="0" shadow="0">
      <root>
        <mxCell id="0" />
        <mxCell id="1" parent="0" />
        <mxCell id="YE6RKc2kCQrR1V2WT69Y-9" value="" style="shape=image;verticalLabelPosition=bottom;labelBackgroundColor=default;verticalAlign=top;aspect=fixed;imageAspect=0;image=data:image/webp,UklGRlQ+AABXRUJQVlA4WAoAAAAIAAAA2QEACQEAVlA4IIw9AACQKQGdASraAQoBPpFCm0olo6IhpvLL6LASCWVtpcgQRWrP7xF/u48nzHOT8d9jU9m5zfvfISXgz8u/0vmi+c/zPgj+c9dZfP+M8HP7N22/8Lvz4CmNXa5cJ5mXkv0OKBv2IyxUA/KA8PP7URRIqVwCuQwmsrB/sdAVTkJGnPK1VXYIQzBlvWHvFA30dcYf710fkFKsHqQ1gIb2duiO0pRpMFHNSibujW0sci/MF6pHFpLohvqPA56zX3sjB3XoIhXW6RtPtYvN669OImZMJBTG+g1kuq9GqF4ls7FvffMOH36O+bq6hRaWzX8N6A29eUKp62uwdrZ/RcsM805ih8qMCJMubvFvh75gS8hQmrycy28aYqix5vCjAdVSLrakOCmOPZsHWUlFDZOOMnxdR4IrCEIk3pRdJ4lSd5cv6AS9IHM3+qxqPolWDWQ+SM++ynrdwhP6e57rG6xC8ZNjD23QG5ShMsdrqYgI4Bk6QWB7x4Q/Lu+ORHi9z8bY5tRqRvv2E8bBsaeWnoYHX2rmNHSVNHngfu8lKLKFoJE8IpQc56p3D9+/uw3U38wvH/6lFUvz0npdz/Mdvhh8dwvsU+C7YjvUQn6nRHtofhGYQK46B+bj92RixW1BD6MUZzRgZCuNUFTSDOCG5Ku5rmcDA5Kv/14gs4wm2EFx5QxKv5u+AEOjO/0FlPu0FFqXZcSK81yAwMbKCvFRBWF7WCPqdGlySWnZ0Ak7KeQvIFpH/EEKuZVYTyF1s2+v51hbCY6b2G8UYmQ/v6BjKs5Nd57McZa+39DT0v0WgT+ZceHjfq+G1qMYqquUSKPaeS1zR7Xgciobr8eSfNNYPOf7HAR67z4f+tZ/yZDeaBm/pL9EGPysG2/BoRA+G/qaePLZ1mam0LmQoaWcTxjaptI8uyPfvGEuNph0Nqv8UNfiorfjCnCfC4qAYdj7lQlR6lAR3MmI33wcOcdYoG4ii2HUzYXXI8Vi0nXPatWlTEoKl09dCFcz35ql7jzx5Ubl2qRK753zsZM4x8Ha82cpHq32ojsEcEEmWucMxuQVMZvXE6aa8n+dublzOFXvOLLo+/3lWnnfPzHKSHXiiaiZYWMJNxxPKW6r1Chl1lOE67XDHQqMvG9YbSFmoRzf1f6i9E1bqfcdnNswhDs5uZinUD6fvmWZOcLsTZOOlAmBli0EwgV+NssZNmwSJIexu2+++2lUkzZXTOm/AGhbXJ+HXGrJM/yjXtkoK6ha6wpcU8GZqWV+mLznIblqQ8zTWd/Y4kZdTPzH4D8z/x8SKamMkYSFVqcLcfMvrgQ10Fa26yMjJ3+vNl0vstzlJRsGSanMSeGMImnXjaFQJh+dNTT6bytQlfu9x8n6Hh2A9XiVhDjO9EZE6O6pqDhuPE0rAnxIT7Z9jMuOTV1EvNsB4lEWwvqcJ2B1FWlWFmziOVyoqxSx0j6oGAghy5HfEig2GEwmQup6AWwMCzAEfsCEOPdgA8OFC8A1Iddl7bVt63a2fb5oqptZVs0IMzYg4PVRpE2J1w7n03st0zUYgW8gBFE7DbZkGiz/NlgGFuMxrer+WGuIFwS9J0NwczXiSiuiLDhY39Cr/hMVFYnvSPT3foNc4Q8YrOJzcF3OwBEQ3gq7OYNsDYayeKwskPpouPpulPCR6qM94BQ99B5THMdat412MGMRGFCQyZN9g5yN0zLZMZ7dQwadexLtXm1Y3mLAnFzlbGS8/RRHUhTd6/D9SDW6bJo9AL6dHBgfNJPO/0ZdCPeWDxmklIhJ0iN0smiYbC61iO7EjodV97BGzIfiRKZs5vfsAXdb7frIcbsDyW8fYdtWi7iK6jr0qKuwEBJDtpqbRIpELbv+OhUZeG2A9KH54MQck/CS9E7xMFO3U9UXdlMGhmsPrnuV+h0tAcOzyqgcR/Oraelqq1T2sIcT7D0FVQP7gL91pKpQ3R3vEVaaPraa5LRnZdsxobnyxC7MyIGC4v3SOwUTDfvZ/mLnAioxFIWZt+5MKZVp5f0Ag43QinuXN5K5G6teSLAEB6zVi6GYoZN8NL4Yiw+qEbSC6iDZOk4ZHabF4dgxqr/uPeKL+Y1W+78csLvQfvTsZOyT69uQ4BBbpemW5d75njaPfOGEsA4vGf11FXoql+JgWMIoBoKE7nI3TsJkE7eT63qAYcpLXpo0ehS2MqDLrhY4ofAILZddxobFIX849aOFEnud4NTYNBQb7oOt23MraP1FWJMSIOrYlp+F8zj2mZObvwjVcK/t9OY3FhJSS6phm3m7v2dtek9nh9/0izkA6kJf9jzXaGeYqWpbYqiqO661zhkoHfvmKsOBuBI3z/BLYuzPxjZsJSRugl4xlWdjTs/w+DN3IAbeeVlr0FcCCwBUNGEiMmRG2jXWws80RVtFqPCEjM6x1wTHDMap7IWJjYGyUOXDzHlyfIm0A2GnafdI8Q7RTF90o5FXL8jneDaTmXczVr+g1XiqV0H7uMZVwrMtUZ59hj773IL98QzPJ8ZeeJVYrLcdFRsY9Dk3KIwDdfuZjWT2lfOfds9ghiamP4MNiHNMZHNbsXDxuNeW1mnjy/NA+4TiMkrSPvxSS2qQ8TvuHt7VnQBuUeL/GirdWHCyPKyGaeu1R2rCvc/Pwt+V/pQ8WI6T2MLt0DtAf6P+mRW8QyLrafMuzHixVm5eXsizpu1XXoG2WWIWAPWc6D+abxK0Vt+zUCIkNxxaRynqJ2w6FqSVoMm5DcbgwFt5/DWHt5FEsNk+ZrsOfyXsXEZp6/+WuFgFlaxN4AVZbP4Jw1q+h2MA0uvw0WYbnMMYj62urIYjoMC5LW9xksVs6hAqVNXkMlqpMe1MzMZmU0IU7jbc3R5Sd+2i/rpquFkgJOctSCIxcwGdV88DdqnbA2NmcutacBKI8KFNQ8N/po7mvCft/Gr7ohfzJLAO3W95V9lS7CVaW8o9/E8EaCXUfZmLuL3A7KTgi+XQ6hzQ5IIfkTR58nfNM+9kM5OdaZt4sGMZ8MyMZwYV4VFHg9YijzGE/153v2IOWZ5lwanW8SJ12kr1sGal4Yn3ytNsyx2S2GQ/R0gK0z9m9FKmTZoFOI1JcwG34iHRstcD8EzvuFlfg5HmR8Y6ujbwbCSshm9L2zVhrzWxGwzjPoE1scah5ZhzsUAc8iiu8Yjx+ROQCrdGZwRoRglO8uKD6kymokxiT8yAANZmfijn/RLqHZkUQLyQsdEyY49pjtL2SUkaaJEcKtVP4rzHVfIW58sruE71xe50W2ZvYSG3j8mA5k90ieRqZ+CAvfwfPSFmLMjQqXSA95Cg1id037Vc75Zs6Aa6d5tVmcELZ+/HI8wa+5sPENjELsjfOeR0bzcLOW8QwA13cjUbjZeR8INiAZLzACA1+LwX3zYqfVVA4FdghtWHOVNu8FR3RkZFFENUi+1Yb2oyowKtUPEwK0yVP832KM4/8MB5RBMEqW3uijXsbdlPyfuwuwylp9V3/pqCrSqRkHwO+/FlLWPE/Y97IxD/dGHKQ9C6lB11+IjcNil3XTqlfrpvhLD7hLMbuTP/vje4FliVa2sdSswEJyGrvB0ytiWF3OXjrq99QtjuVy95KRdGVXCPFTg17uLiDvIFOTHs1pxPTAz1T0N4CtLP0L9Xk8vKcyOq5rkdWT5a8t3w2xzSigEAueAEDFBi3ZCXL5+vuluEtmRrh1GMkWZZJErOARuKDBh2NNK58CTM49VsOvuD8k0FlU7J7DhF9tqDh/wDu3OWTsZ2xBs59Cpznmfq4/8PR9mzxi5EFCweRviwVOZnt36dX8iB8vOIxsxVJNX7y3q8HpA4wXvgQ3cybjpn+B08q3+YJrowzvhzeBLd1iId3aKCwmegQpvK/QF+u6HMV+6/9uxxawPvKbg1h7J0oRHgGkosAy9FHhq75P4GuOp2FfSzr8P2nL7v58B4/9sXyv5gTw1Ry+uYewgkaLtJa0ayX7L8FGSfXUS4kRm/RN9dptdSOh7jopK0bjHKpScjpkBMi/YT8KoPBtgxt0EvYL3FLVK9XpSbmL1aj84ZfHdQyHcA6bnV/mRpfot6mCYE5vsFIHpOvcv1CpOjkkUBOdH1y5diBqx/qiVGSLuZOgGIoD8TpCsjQagKJgzmHnMLv5NQPJulnVNVodtSzXhK1cj76rbn2WZe8A1XbNDfJz75t18Z0FMXOD2Smq7x+rSAuPELoH4nmu6vS6Xvwrl2vGJBYBiMzg8XdN+rcRq0RYZSR9m60x8xH5CM/V++RPNjNpYIG1khZkAQ0+cKQ/+Kj9b0GOKdGhkKnZPxq7hqgeimIQOmgquTmgy//SpaRIfpN2EwuEPNd2FePg3xL4kGn37wNU6uiQN2To1eEXY1FTI9owy1MZv9UpUWqcvICDDl5/6KqhprQhMp2TJ+5V2e7PwY+TELr/5auuJ2+X9upTpdMPJ12BBSJDQK0RLXOnANXf01mxyVj4EbbUjjRkZpWHsn0qYo0Dld2wdo1O79aJpzmSQMXqpRMHLO2anetQAuRSOQCgevebu7MvkRn1awNtQtuKt+UIdViaHYanqAXVQruMWjggv1NMPsrQW5bCVrtGArrUIgul+jd7rJ101sxkZkJRI23BOM1leHMcK1Jcc1CVClN8AGYOTY/nlXWOW/DIXZTzZ4OMx3sFR8/LwJME1yOzIvsJzW8rwZGtUclilY4boJjavUPzOygedu7HKbHO+8RXQVu4D2g7QZX5ZwM567DJPn1CHz/MTMMY2xuNe7R44jxKHXlusUWTcECdrm1s+IFk8q71h0cjXvFoFaA7aiCeifeoHWS6ibIM+7rjSvMNNSpzo7htuYRQou6JFoMyT8KMCcpFcoyTITVZu/mEZi2Q+yz5vqfxkuV8kLCIZI3HxKWBUOrO6Mm6TDbBRxEvatIRLjW1f8y2lqvLP0b7Ruh+yJOIt4AmrLMMJqcVOK4MUAEbLwT6lUVdwujVzhDk+Nb3VWhmGzR6RTQLiDrVTrhbmlaZvBDQXs+Sh1Yg7JrinPvilFYE00uKRE4Q2FKqQEtJAtoP6PGsspagmbEkBa2PIhuK03Ex3DJNkNs17Pf9jyyPOdIFY9bw8ieV6qhMG/e3iX2RJkHa7OPAA+tKCEjLb0ldm6Ii3Z/TuzPMmRmxiSHrk2GwNyZnwURbLfpGamrpdzeTYJ7WSfuWE0KEjc6nHJSkl3O/yoMxVE1guRkhq/oSxuum13EYeWh3ZsbgbWJIfN35KADFrslvkCKrOYQbymqjvH/tJyRZITq59fRtEjITRAiZZ01RkMo+qpsElivyqUnS/wIo2FESBjp4wsAkS7pH7E01G8h0heWYgjd2dP2PjvZD0VVJGM2ysMkvWt6UgUt2x6wmsHCC7t4MgQg4YADChOKRBOBEW5gymcINifddSEiq1L+pTdAToRasYBsSTazRXxJgapYZXpyfWofY9r3kPqzBwwAJiJ0T75p8BWw5l2NgCyz0PvND2hKfqPjFfLr7nzy9f1ClYeT8sysrLLRaI+dqRQIt0qgoQsWb8JoB8NzAbz20WN6gR3KABmUiPHAGAMJc4fMdcgWd8sA0r+0+wQFbMoc62SYMycJqv6XS19lZIDW+R0GlIvwB5Jm/e4aHMga+NJiRSDe/B7dK1wy5SdVRg5nyEOLiaah6s3v0SR+Ux/olMS5zBe/4Wwl4OooLzMHcNXJqRiPI9Tpoghff4s/cekst9jDEI8If8ZHlu5/8j7jibhCpPnHUr0SKXVGxBqKJXNX4v9Z+Dnzt6mE2mW2mFIHaftgYrTGKvlI/lDWv0/47zUHEmFDTGniLbhgNgEgNEg/Ot38CBPNc/2TLoK4sPw0TjdmNUC19dEq0pONm/Xc53jFMwL2bCsMgTVaJenwedtpsfKLlCN2osj0CcItznyZswIuAQUbbMsXoWqUE6VsNBvgOdBAyrz6VcFqp3JED/HdAgNDQ4bLphz8AXxp7Zso2V+EztQoB3ZJ1v222oz9LAWo2I4RkuoeYdy1g6WvpmI7Mf8wnzPeMI50W3YQOTwJw7vBcxW2JpRn1bP4rcwyGlo0lyHehg1/49JMfvBokUXSjEza3RSbHbf+CwP2/bD57P9pGqMtayzYM6MG6O3JCONlk9MP0ZCq8Q7FdNqTG+Erkv2rGmssF/VuSxQqoz1rCzLIRjVY9KTWoHh1wC5AakOlD4eAzHuSeCm+yN5LQD8fSSJjFv3XwAX517jRypytSxqQo0/EhZQSCd6pPYvfWFbaYqheynQkkqb78y+d5IPX/M1/Clfp//kyOL20FYHfJBLhbSUSc+kucgGPZGUHmntAMIE3a/hns874+pV+wgUKn4F2ffEKWXJLjUoXIk2qmj4B9CJivi13iC5CCnv9g1+xzXcGcIYldmWQ0JhhdLvujfHBpi8GU0JuhMbOZmxp2Z8bDV+NJHp0NiGSYJtoCkVnUB6bf41/l501OvgZglTu8xu54wbcqqJFrxV6YCvLhYE33AAb/ccfCgvJufFZg/D92Ag8lCWCAUhTKw7E6qrLGiA4wWbm+43oanTKk3E8+W668ydPgRn6lxXXnEhYI9IcJVkIcGth5GLVfXlQicuBeq0sLqoxIRQ/zXbROkLg3AShR8urLHOMq8FisQvI3NJZiqNeP+ipLJjQnapLRh7Tw3DBJThxIbqnrHNpfoznxHHCWKxJmeHGN1gBTvH9aG3HKT0hW761YDZtOfbSeFAzE/VHH2S9YGRXU+JVc1D8ZVSN4Lg1ine75I/kmFspPK5LXXvRdyfFl92UxzOthN9s1ta9dIegF3G1ShnMPTfl5qcDaJ9mr+XKSLVizGwf0oloYYDCqfgglfVR0Ev/2FdRuRh4a5pHHd3Tvmwb/mVTDzrSPAfMZXG5rpfIOkoHLPWZkdMFrBjZKsYOyfaTxLofaODamdI3ZkW1rC1qMl2qmDV0LYNM3iiDGXaRf/lJLww/2BuTtKphZelhpwrgq5pfOwW3OiHRxC932O0alK9kecUUV2F72HHijeXPNVN34SYWcC4EE975Or/l5k3rwJ11W4T38IPuyBlHb1wrbWg7Vkd5jiG9e48P5P5wlwNFEZ+VHJvNVQL7eKV41favwrheMQX8PyJ/QyA1Nf9JXvmss3RezA8qhe8SnGoFPFMFxqlGF+swHgyz5lZntRnEM4b/rGgyPHyDdNwHWdtK9MhZWtJOX2UrXCJ7bM5Rq59aheMibZUSoXVTeHyYViycBT2TKmRYgiKfy7Q04S1aV6ba51OjhVDZedOWHAL14a6QsJug3Dxhw7yhOs4cZamliy0bmu9bSH7uckwyHNqp+dZ8BHYCPXFQCMk9tcBvF4eGlSF6WuaUNcAszawT3AGJFwZxLGHlZ3lwT1VQSH6oAllZJvPlh5Hw87J9h3kpdoFict9GKSKJZU6osLagC694tPsKMki0Tz47Z0DgHx9HJ7ljxmUcolY9kzeT1AjGawYl5PidTewN2u8oB0Oun4rNsXGX+nbL97ZU51Xdhjw7fcHStojruJkd1iUjvS/ctEhe1k3ZZRYKa/PMIhSYLa6JjYWQbnoLowImxVEDKdOvc6kzP2/jCyx35JR4aSvk1e7pJnrAKjzaurzVt+VxhdyvXs1BsxfGf335yVmuo8tA14CvDk+tLqupHr/6Sg6wQA9yZdHJq2kRQhkhrpy27B3auENXKQlEDJxPHD3jYyGEeaF6XwBSrtJm/wxfJXqZG2aTzhgOc2Nvgx7l4mTYmjC0kLFgsk5HcZqyej5OXU1yLH0+2Ga7H4G5zFmAy3w1ZsigFSWjeufiQ1hcNzobW9zV1AFvIu+vTQAlDJ1fJ5wBXpO37hVms7P1KutxytgUKYTSuUZ2cTBiad/P3+e//NqvIiOr56E3aarQLYyMjLwFcD9XlBLuR8qVmNlyzjdM8jC014SrKGOI0FCbU6iU3qt6G3jTB6np7JeFSWmr4ydV4qaoTqiawhMiDD0TlSm92Nx7GsSsWbZoyurcYGQBKxt/Qrr96N0UjZx1diOp2UWS+3rnR8SPJ9u57qQdVFZm85mdcQbvl0vHrvxfya+ygfZSuASLW6aAH5AEhCBo1VNWpU8zZ1vwQJ3AZpHul0f2MIgB37rsg0KQP6ye9q1EHHX1YImjnH18RQEtmS+Bx4Y2cwtwWGzQz43cuDYDyM65H1e5cUEQwF6htfN7a+J/m785nWT94KfSPdm+GHXOy7H+P9hoKKtaNBmehEda4IkgraliWSF1NeLBASihBTnTMIZDqeOLgHIfhamw4i+owMnqn0T0AiKY4qtnCVDWgMX/6FzjJjWienBRVbVEdV+88ezK1BQU3AXK6XGdgnzeVBfeKwrn3D6ml1Lfp01Tgts3DXIogVwnpDISv9l0S+1Y+WQujEWbXU7XLSyK+tH7I9jbpXndOLJ51JWe2gEvpY1aCo5g/KkHcETXwAHfpbUhnfY0MoktBPzc3rNx2eMwLVVRIyu69cS1rFGVl+2LnK6sR3V4vY2MxxZmVMy5QK02ZhV4gtLIzQaOl/im7wvOsu5Y7m+UhWqvU6Qit1t4zT+vywfsdoKXxSkmpU7PuS2YK7CaFI4tQr7JsgHTOMrr5C2n6R32i2BKuNNgEmmQBCuLaiAEHhsEyafNCZ+86HEbuHERHTVuuZzvv4GeR6R+GTqgoXO31qxWWmL8XvZy/s3vvDQxAssWHA5+P5NKipPvVBi3P2cYs6R6OC7rtcqMf2XmrCLxtEcaLOxLJAkRgz6OEMQ+pQOFwAqHIXsaP7dEZeNlLZkw0XlUY1RFozgDBAF8QtqsFhixiMZRF09TeiPUb12hMfNpW3JNgrq98L/FXXpNbVAzOXR4fNujD3l8oAZtCpzaKbW0s5AmC3BHKEQDiDu2JYIBm9GcwbEOb627fo2X/PqnMDn3tNIMsKB2XkfsUcLQ6gZcsMNT2i8r6dpaNTOTgviMykX9/AbCTbM8UNL9riIFf2oX5uJqoH+4cSaZSRw4bsYDml8HVjjVJD6O5uyOoC6Knc6Zs0fauHtgJwd0BIPBk6N9qjFWxnF8CUJh71VjUq10H6JlWK5mTBM2Lh3AOekq1c2MHvXKJYhj1UH8hKEqIGCi4yRkRmknVIayEW0SmSrY6INlOWLAfTNpEUdw3mi0/42jDQSRoXE/wleWN7UHFqaW71v+hpr1O4IbCu2tEr4dAmGd57vhuui4fOPxK6TX6n6aOd1VZGAbX28x1i5fLD3UbCtFJirW11y1MQO7Qj+nATS4r45k4T/4Qu2Dh2gKvglg5U9JfNS6CUaYnKtXP1ybdnfLmnnfJf3uhRF0d7zTvdI8KKXxstK7Ho7EwLZW4sV6zGllXpE5ZztcD7yJd+2n/Ns5TIVyljIjkThCDWkA4k93PUdZc61vLSKEOUCO4cn3ia5QL6oiuq037Igba0Yw3G9/rkTAKinAHomUBkCunAI41ALFcB3v3aa5qWe2Au796Y553s62jRz4AGF2bLHnTzZG2GEz4PsUKBFfrLcmZEahMdF51ZPMb948a5kNnXDYLBguaZiLQ3/yNVIRA9ugR/w2ICe8CV1QU0GVwZHMj8zg393mYXlrTbQ/hlYJc/x82KR8LT+wTUyE6DM7l7ZWS9eu5fq5VzoT9HVppXHtERWtQvoQXsdItJ77vPSORc4lAzNqklQrvQGeXqWm4Wi50SXbNBf0QkyqnVm2wp4beblffrwX47WKbcF8UiC3fQrzoC25NObLMWDm37YHoxPC5N415RuZLQeqEDA5jmdzCCKzBE3d9AZ+Ya0qx+0v+OemlMx0HI6DYeYO5GU8NWZ12tz4OaH0ScjY0OX2X07uNMHjfTmRaLoLBt8GlaB8nqmc8BB/yes6f1lAx7SMXQ0Y6/26uMlqCbalkvPjP88Ls4o0eiLuFcjK87LBGBA98N8icV4GZEYdNrH3JSlmklZOnFTFpIh+DXmIHq+YImHlTKjFBhZMdQ8MOyF2e7RafE67eses2Hv4mTMiESeSrVDjNY2NYaoGhsIbL0NuwlCwziVdHl5eGym1tB1++dmNyAp+ubTPZTPvhzSgvSCXswTkl4IUr1jHEFBpo6v1FsADCDYaEN4WR0H6pBQ9emQflivboWJJ8XsFAbPS34XxZ9enBBtAbBNErffmnGekoBGRz2twDkkaLa5PnntLg1DlJmZzyO857YZCPJINk8CLC5rSx9bHeemYW7N/gUQySSCYPXI5fq2rUPMlVUuifeZbP8HEOjX4rY9ezAA3KYPA8imJ+hE/dVRRe2x9FuPlvXkI5irCZwMBgOWx+TpcsxiTXYOfML4QW6uK2ibRqrW7RCuWOb8a1NZCFaRmH4YjdnHt78sM/q6GKfsh3jZv+rV6FwuaGKWZm7Y2MYtrCimduwGCfy631II2mlmbD0uBnsy8Lf+HIGF29lHTxTXV9hsCkDzH5/v47NC0KZv/3fDJJwmoT/iGsieXlYoNCKtrG7tyoU0AGUCMBcLo6eDohdktpIb2nFQTKTGL1btX5wPRWYafXLkkeOgX5QriK/bb5fvJCL0akRB34aPtrzqh3rfXo9VBgbZq/UgC6zr2+IrbzIJJ8S+EvJGiVhmj5SICYnPv2feRgaaVJYztUm/8pKZwCUYyuyOZ/lWJOac5G4qmWU7RJVAC20IL3HERqa30rk76R3Glgum+PfBdnR+wb+1+y5rMhB1Wq54l1XmpKAP4t3eihg76kOQWI7gTaZecSI9Mto+4rRdmtCXaZFXivmNH87Q9EWIr4EPsdewVPhgQv9Aoum/0aYlA32GDG6X8g3gGVqNAw++fJub2I6PKbe4Iac7IfJOi7qekqwH9iVgyB7pJjF1cP9Dhy69vP2VMDb8SAwJsQw0sUb+uo3dHVmkl8aEguETerreiUBxjkHCq9cnnVLHC5cu3GWdit+dPV8kYNtLHWFpMlCxUzHADmSKNEjzZRFr5Y8by6omrVtLDqMZa+2zq2/ShobJtg+N9UzLDNVrR9zwibO08CkjLDwSpZNPmdmwxjuX7v4pQFzBuEEk3H40I3a1yxodQgH1N9abRyxZS52EUeM8v9AGOlLpDuQkOqdkVXTlrM306PmUeElfI6uXZIMHd5f8dw8WLAuhPNWnqFugG8P9z6ldI433BZh07sRjT9mN1PQFjZ1SEZML5HjFmvHBTGL2wuY8fAySiMmjtGDZ12V1VLy9kkR1etJHyKfWvjAmsSBDdBLf2hm5Vv7PLY0qDlCCnMWHQy0lzVFuY1BK7rRqlNJCGtkF1Tx38Mjhe7XLA9gA+Zy0vJc9fLrjNtRY7Bwf3NSH4qEe0ovJ0f0VsGR4n3jXKKMNCQHpX81MOswTrj4b6eJqS2xtZFP8ba8FwTK8MNn9p2jjDkLtKoIGMooqNkigOYGFa2PLskzqQFOUZLwzh9fW45MutLu2rI5zIHtzP8qAN0II8qHL6Rzbktv0pTwhlJB9Fe7D9dzqnY+f0IWn9q3wnEhyC/bm/4RPY/UkU4ry6GICOb3jK5DsPxHk+sJPvuIcz+/B2mdfzRdPrkRWmY0CpdaieSd47cKjMtE3/Nr+BIhdBbaD7oGSCore7CA3jseyc1DB3RGw9srkVCCmmY9upZ4vUs2sTmbadwQvAQgIxueeE0/yEqa1uek9+dexxViiYVVhZPVfmZuq/D5ntgGOda9PWdES0VERZkHwGAwAbvqZNkWimuU9+dnRZoJ1ig00an+FkXu65zGBJ9nJKi1Dz1hsNi6OcybXS6aSQ3GnhV0iF2ukOE+vYKqbj+z5Iprq71pQZ2mmUfPsdnL5kNqVfYnbrMOCAm4KiW23OkeWU8lWMY9QQENOPxc9vGPJmJ0Tgi4vCks3KubNqVMV3WM7K6sQKUz3C22Qbt8z+xEOGUxh70XWrIptiL5XAvwSWLedxIbKO7jN0102xVBXJdtLbXpvZVAq0vT+zEwl9FWqcawEZZg10l6S4SPiZBFXNWBFcVJP8mQmZb5EpigxP+AUPVpviv8VSsOENA7WbQQay/X7IQNbUC4dZ43IWl3QSWgkEBCu9af5xZ2/SZ0JTndyQMkhkM0hp6ruBrAj23cY5+EmMkEySue62cNrg02JKuwcj2trFfGcFnHooa2H+OhRIq70oNDnWvDOtIQW60Mn0+P78UoOC8e0bY+GuRyRm7eM2VjvTrEQ0GoJzT1/b7No28RU7JO6l0pvEMS9uo0grHAWqK5bORWSrNUniN2UCB1H0q6LMBawsGr8wDlXorhBDcV3ZfqsAdoVpPEezmXLygffkZfKqpYpd7Ghu7VSrMhbquyquJF8qeU3mQGASCkyAcVmKh/7xP6HhSkBhFlRuGHFHpmet15HACuElunM9jSqXAG0OPTMAdJQXlKEjfh5Id2HFw37HH+bovz9aER+ROvVwqyEyvGj9xNJ6X8ft5LsF/nAq5QWlS5JLV7EUpeAmOPfQncMaWAnFMfWZIdHn6zr5EyGUjxWGsoxWyGIwdTTtpuULmTFTou1G9ClmthCmecgw7x1bnNdo0dbN1NMXZEOLtXYaDBAzeAcGEQRfZNFAYZQc/jUEMvqiqY7UzscXfIllTMUzp4csYTmTdMuteEoBRJGV/5a/g8qhwTo2G9pxrzZgvq2/KNxO/q+hl+0Gx0FhBNYCmGeYJ1Kaj+9F6nQNXv8yvYA/1QXovdUNtxC6ZCaoNC86HEWAyRbSbHV1QD/JmDccd/69PxN2VuIskeU80MezlcePz+ZgyeTDj75v+IeemklylE74pVAabi95Ozd6aD6xCvi5kXkr+n26h7MEmEsJZp+47VFCZ3ceReAucQ0NAbwIS5a4fu80y6F9SUz82SdmOmK52j4ekKiLuHX3kazbkaX/uhwDQRC9qbwwHP+uXZ5cLCPp9lblRtGI6kYexKE1a5mh+aN+EM9INjK6GOFsliI9XnQ8GwzWVBEd4GdfgJQ/jtn9RPVPnGaOO7ThJj8XxhcYN0e/RffiDQFedU4+T0xlDVXPGYW0Qd6s7u2toKhfPPBxxZI426G+9cugzi7dst2/15d3yc2B3cVK55pXBLR+l3Xlxrl7txBTu/zCrAWjVvznxUOxNfsiGEBP2U7L6SI5THruXoLHrXZPDaitIjSwoxnzMwlzSJslZlvhDHbBsWtZKBxHqiLjuBW3D825jtg0lHKB7ondGUdyy6lyOOyvK4scYovpCHVV1aSH7zYqJyCvNwbqw1Px+Ip7PocDCLG+e0Tu5QHHr8H/UzL5hzEfVQqGiCajmSNfmurijv4TTrLTGfhOA5t/OCUNlBxQnvvSZ0rHTqmTcFhBj0PSM41lOtElPBHNoOPy+956Qg5+ijV2wY2z6kQK1whnXOVjHqBmJC1AtZtRdBpnRRY757j5daKKJ1/UTTxc52oEar3NL1dUb+aZAxmXj64W9bh/lo2Ap7WSewC65l1m/o4Ym26c2yiHdXrdKvdTJ7UTPdVzp0T6regWXuCKTcDgN3cNN6Ned64gkQd3m3tuKzDRs6jgU2WFbRUj3+4N7BZNVJauBBTqDKzhPO220O0zSMNOcEjPbKgZkmJw31H+3auDV1qqqbK7ug21+xAFl3TqK7ZuxikiGyrK7hA8ElN/fJHBUwJt5XZhzmi6Zp+4BDAM6eDUaZLlSp3K7P7v63cnGOaDqfwHaj9OZWVNlgCv3A/MRBE03YLeT9FSOof8p3QDy4/rbYeVyd3GypJpjOVp/L7u9QTDvuVq9Y3klJQqIiKbTWnCdu4XFTGhlYOuMqlkF2GxH/hzGVAtRoPRqSStRrP3B2TPaZuC7MUO4VbLBacsLozdHJS+nh1V98tNeJ7TON08nqj4omX8ELv6EeZZZhcxAJU7FYnl/orJ+IA5Yl06Ye5UmitEwlShx2MPlUUdDMCBD490tS86ZWooW2ljIk04PtXJYal3txm649qtjmJdHSLL2p4/AuD8GEffC8hRKiG9HH4IDMKKCjNWApCexhsJkOW7iOK7k7bjx98m43/h/cUuqm48cPTXQ3sp0qK6nFeEbGhoqFQSq/FfhIQ9ebc07HFMeF/4hAjNtrz09wR1UpBB2IRELtPWDTxue8mApYQMg6uc2Fcqitv/VnPQRzxG1uk9JLp8MY/26+dE2GwMZCTe9L40DXU0dbM4cOOr/BhhDrl4YXZuUCH+OfU9GUNNqFo+YtQ0Es4uRqwMVBKr2EvAyEdS7P8QMUz5cuM7Ear6TUlS0hRA9fX5BWFrCWYnusVT9kmzRmaOwqlmzDS/W2d4rrJnHnS1wei/QxVUBJnpVWH/B46aJkycv0wNCGGxbfeLOwVlZvqwquln/juWga6nZ+sIEVaytjbqJeU0NDWwzWddVRGnapytedPD21wjKKWYzCmG5AP+w3uXSZAwqYi+mngyoYiIU5u19z4bCq9VDi4/1EWhlYMETr0StPhE79e4veOS52iK4nJ+kCys1u1lat+k6tx8SH9Htc4NKkhO/HSzivi3ME0Ik7zs8yCayoDpVWHq3CNcrxDyMHVIyy2skY1nVuy5JqXTnVRGyFPqAOZ/hQGCdjXuLbOxA+I0sqvvY59x0APxNWzh9eHgidFV52+LFlGc8Gz5mQhmghvPnEiVYta1RA3XNwuVPYVGAlvwUUdLP/0eGFyrH9alPT2xXA6riFmEHyzocydzM5rNM4PyuQ9KGUaVXTrMxMDEvsQzirgeGBlGXQGfhrNBEVR1kd8kI1JHYdbjgWPbjM61usOgrb0pxoQoaNHR3nGgLiQziYkz0cMuiLNXAjbUgZLqvdKAqiCXmMqDVHreCsGdi0zx590Lp3qKLvYmcMGO2kHX24iaU/f6jbrdpbsfjt7Ze2juvEX8OsZFlUCTZleNOoQ3r0iQC0VUq94KEchTXtwCWMjeaGOisU+qIfJRQmA6oIu36cTijo6Dqr8rimT8lUrRw3yXLhbQOBhUr2mE+cDi/juhK2+ii+iQl/BC6m+8/3WY62ZpGg6/cDfsk4ENr1UWo7uVIWIF2fZkwHtBglLZs3Z0EBumbprVkbRAdof5J/M3eP0x8KNkg8ahkDTl8yL8e6Htrxeb78kwvW6o1f7fGVb7+rlc6qWDLAWt+FzapvwwAhNLBT62iv75vEGwyjoIfWbvi/QT+2SlmIo2sGTjbgV9objWAlUln51ooFNMxF6cHBNOu0+3BSv1IhoKVMaanYKVGlYMql3sdbwnfTemg0/xmS9Dl1eFykPUVr7NIjJ5B8dhMD2GR8Pz+8ttQWl7ldTer+gegZG0vb9jCAA8esMm2LgzBxuasB9G0q9UzHhVsp4anT3Wkf4Hg/gjmX/z5qWIBOR7D2rN+lS/LCvntPy+C4CkM0awAIVpdKZCVU8dSrIv3mc0/5S6MHmP5bUG7OlbvMtoxB7lMuBIOcf7OyEWY7y60q46ek7rQvk5+59oJ7P9DGNFpG0BbO01nYRlJ3d2f64n9BPb9yZX4raybKNblmQiLbsY0txaopfS8iQGFYHBgu9Lm0bYG+z0NdUOusly77HoQ+lPp6L7oPAaPWNK4XaXLE1WsJLjzFkICx+8Lb+tm3Qnj86cnv0N3eH2UNAGawrVOG8359m19nqxc2BfYhIDP9rHt6pHcIIrjXtreWFeXK5QGi8GCcyRNxTkwSeY8B9eloOJT3LMY08UREzQndFzoR8pRINtCKpbcLcM6A5L4wFKGPLJ1UQySBR2nQPUIocMu9IcENI7OirJkrUotZbqprEHsIrlo0Je+kaFr8QFico197UNsWmsIiPsEXwt1nZg8xfnC3aHq3OQowafSq8BZ1Dr82oRLPARhye8sYaumV2z7upQOxAd945QS0TVkTbYE0itF3I38Y7ZP3zweqq8vX6WMuwwa7iXpUt8HpK97s0VJV+4XX9FGThnhB0dI5tkDfTGG0otKxZ6i9D63OxuNON2qEhriJ8Ec/k5jNOG/FwBwUWTvvluDi6Z4qtb2wsDqeIEEl4ygzxCZ0kijqJbS3sMtTFCTmuc3e2RwLm7rtFcWJYPdQCk0GNqFSabG6T3cwAtohTxCb9gvnd7Ss/OaJULmp+6SnDDpBbQ0T2+LWf7JH5RSA157a6yOTglMRgqDTGwJ00KK8ov7FUzthBs2vVADT4dgsS9QPF16q9ZV5bnYcwHiWBF+6cSgM7sO+gDFKywIWVZT+RoyZ+sbmBQeGUiJme1JrI9jE5X2S86d9vYkdvaoLXusvliFr39+S6ZhFJbNv6iWnwbC0QQqL5siEAUKZ19x9zKXDJq/dsE4avg7lHh3aeLPEuDtITm7FmteECgKEGsvV9sDnN3ClSEKDPllejo0E3jzJjBLiispoNcZIfE/FJpTfUy6EQCMWubt1hmysqOMVdNEy42VVe5eZy1yX+7rLuo/u/i8k5QtNv1sBVA6wEliQcOPrqqxr3Tora6nG48RUTjw6++5MBNah3B7hdTU635gmXj5jfmirpf99dkzNhyM2YNZ9sT0MpopKEsdanp9N3vvhm+yzW4aDNhMqtBy1bML0saVhqQoZf7JTUthwpBTtCvIAJXrRRauCnnMZnKOUiCDhJOwIfLqfpBwNMiLOz/LYpAdpx6AqJhzLZlzwFcrQ1H8x1QL9YoKg+VdG0Q9v+ballPXDaRBtOc9bgVRrWrNfYbgLdtxhyY+wktJj/rTSJIOsswod7/ESYUnZAMM8D7fYqxWVThlxgJ0ixipfGOTJaCatBYwpy/sgNNIRELAoHiAE1tl31iKzLgBdJPOE9nxBqAQVhaRgPLxtq30mLZhc3szSok4KniK0JDfNioVN0Ryp1ojxrCnm3Kvj55poPMr5zQi+q9JAWgxBmsEJlrN6c3D0TyxidzRGZfDTCcXmXD9n4futlNItHhdDdVzJv5GHS5cq82yLySLWKQDUPg2kFzi8x6dXYVgSC4uY+wqrKIwmq6VSEkis8HrquCWcENWQ1JHun+t8VpaHZMutDSaSUkJdeLLGbBm2h6c61y6AXz8RVgxsPc5v+3ApCyYR6/grwDMaXn01R/z8b8wYw2Zo744O1U/2rZF+wjDqCRwYGpjO3dX8EEtV/7gqgL1R5Ic7uGn7FrWug5ReqFtx1iEiaPWQiyTOmcE7JSKA1Pr8Y+6srLgjqrmvATES77Y1Q1y6Ka0YQP8lLm4d3QcQWynxND9zM/4GnOdFUA8uhchX8VwayqeFfO4C7wtKiec+2D6jBCymfjHi4gbroA1NruxE058Q/kSy8BlZwbCLUppcKkMDkr68y6508IjNXZ1DOnMzbHzPbjdM1+cZOxsH0GXuAzohgg5ShHWZbCw5Tfoz7WdKmBniP9We2auzT0YDnO+PmFQGC0K9hGtz/uPtgTkFCRc4ezohRuLViEz5K5QOeKbmeEtW/jBZcOmrRDMpXjovXNzcF88KP+eOnCxQe3XhHJ0NFDH1kqQn3LlXFD4BpOgDpc8FV+z7kXal/oVzUoHHjis1eNtn5Yw5+wSQ1yBb6U94ITe55iTRjs4BbJIgrtCUbCXhP6be/clAvUhsemr4+EqpJmQKqJtpcOnmmMZoJ6uhqsqRGChrigPGGD17/KMktZ0hXyvnEPVUNeS1vc4EWu1takfq3NxoOBpwuC5e+lkEkSl5UwETuqKlijjNlbn23lF75VgsoB7LrD+dccmVBUL3K2/VjOURB1Vz8LXpDnrSwWfLZ+7UH1Ah17NtcrAkcwe+XW2D98RjULAiFsFLfwikIqNOhrpD1bLEWStsg0Dv4uTMUvPFPO3nzjwh9JX1FJ4PcUrx+TP7WaDdEmR1fNpxQOzwQIB9ACWw1ap1EjxfCKtDM0Q0mRzkZfbra20yJvG/zYSciuFckRK/0ZUV2nD8Wzw46MICHkm4aUAcoe2bNvyH7p4YdIPJFVgDQBgLZKazW5Y9VMcooxnH1p4vaBGCa4rcQhBPUO+C480AAwRH/wLlBS474HYkdDCwE3SyJL2Q2m9IFAAwmOLDGd1cud0tI6LOEShSPAz8UixZ9x+oYSyc+sOgg1E2T/YJVp3Pa6VepN1GE5dHLBK0IGrodyGeboOi/lVvCzKM2MYg6vRzroKpUrZglFb6YEHT3NBGoOmo+6GZsesKIBEHasb6UjZoLdLo3Ap1pn7jxvwD6zICB77PIP15WJD6IP/Kl/foPLUweNtYSco4+fPSbO6RfrYPqRqowA0BQeJCiKRtK1wOmkM5HPvenjet3CmQ01DCcIYjmfx12wmbADQdNXWyaoSTyiiRMeOS4qaxhsxndypy5RBZIxKndQBEacBoY0qaDPM/xnO5Lm8ii40YYJR7tdqJ8WoF9tPeGDPWcbzbhvrZDiiGO6t/DjhxpwugN00dj+WlqqWOJ/bXSLAirfmMGufsIPmd5at0yEw9otgAjJAVWOdKspIIb0AF9vW5uCp2BD46k5p0OrqWNg5uXrrSbkhyZl4hRuKJ9LHl5EUdq1e8KdpymvZtqpX+fh3BSoF36Fh9cfSEWHnVf1Ie5M++HVksRsFjAzLUgmORb+7vaVtlHf4CG9PXci254aqz8Bcg9gXSIr7ZWQrD1uVy6ZMLCKR0vu3tfj4Yvla4VC3vhjw60LFNL1SRjJcevci9f8iTuODuzMYJclt3ZxAW/BfUhfBqOx9IZQ/VuuzdzqhdQGt7py/QSyKZFB6I6GrI1fDqxKkP6SQeAaph78IiZRQKg8Ab2fGCpzDorx8t+fL0gzR/u2K47iGC46RIx4QTfyJbn2AbhdgByWwXRQEUwbrG1eZLTcTpIpFMMyx80qxlzGzlSZfTh0ah0CKE6b2+zOwHu9S4EwihjOI0g2AvfDQMfSH+dy2fAeBOOO3kix2LT92jbrJqNiVDozE5BGOclH9d6haL9NcOxsEmSkW9r7L9xKYdbHjfuk8m42vfg6wo8tOf8PqxtyqFCBF/jkqh14Xr/w/L0Hpm7WIxco8a/a7m+WDA5OuNjumLgslgXWVFUPLiZ9Vh/stab33qcoKMZuVxszFdVcTAc/MisQSJszrFclF9eRPlfqHdEuKHkVolXAW1Tjk0n09sJm30fX4wUILGYGM2zvCzfyosXXLcp29nKHfxlng5rqBU59MBxEnjuRZjJxocysJqPTUHJSUFguXfgfUL75Crw2u/fSw+4JXRM+ms5kzDFjuSHCRtNEaDo73JwBI3KstUDSL/u15M8PVF21UKuVJSrUIae2NPdkFjQfjKOBzogHNRKdkT33ykkmaQE7rXY1SX+G6QxXWof38PG+9f0pi7FEanEFpwpOtOXvJgHHbjWwHa9IMskjqmUjlL3Q2/sdciNvbHWzsvS1kP1aoJlJDo93kCICZX8wEE9Zfth0dWTlDac7iqBIatfLPvv5L0Pz780hRbmbRvFklHt9XHPyMEP2D83t4rtJweYu3Cn5BKrvL8hnQ0KeIv39mr3uDpd65oV1yiqdHfcdN1ovr1h42xwxniMeeuFG6sWUGWXfN91RVtoWOP+W0AYpw30as8pUxTxFswOQXoFU5IZcftmimdSkdGaE+GL+HRZVwtVP8dher4RpWPgLY81GP0cXYK5R1mqrmOAQttYGWDKZEOysxxvQHQMCWkYjFT/5Z6thrhdE1vSVYn+8jqftal+l4gYJnYL+Mzp7vNvXbUh59/c8XCpVpLMKH2Flo266+Gf7GekWhme8BodZJ+52wMnGBoih0JpmePAQi6Uq0OI2NhyWy7y084KV0CvBKtYtF5d9a3mu4anFGBBuVnkKC+szl3xOgT2tDYk7JBt3zuzR6orgWjLnWG2GneTj2O6TUs88xTX6X5C4g9WD9gdOqKIZ4Hp3Ukw52kGfiAJPuLgIuSU/GULdu21uzOljsQgNDEPYc63kl4stujONX9v03NZTTyBxxEpVzFa60sExZbVQLwziJeYmgCTPF7KGUlhEOnYKUwJhvsZMf/RD91ybrR2L8E/j3SbK6XDfN8jHB3p5fEdNhDnhojQrJCubHVKcNVKBntYFKNgC6U94+T0P7iS9Z46qffXv/gHFY7IIRpXfpzO38URTeOKz7MLG17bN4ZMkHGCgwgrMuWoM9msWJN5m0c8wuQpS3uIHpcSgFlSAysZyK46ZGmWHYdyUYh9vmGYrrg9kuVItMpX/xBqviUhpUpafi9aOGG9Z+ryjnLj2PD7/AKEJYtCLil5VJ3WUgXvHNrwJm/vCNtuMwzDhXoeoFYAtPICDMsvIJ8AkAgyqpJaykWqLyWIEbXV5e0gR56inh2eNgKHJUvg/WSidNzkHY0PExy0LvxcMSv3Ii1JVL7A80Rg34eCdKZbc7nsk1O1mAZLdR7hLCX7o0hf7ifmH5M2EvoqSn8NziP87YwDC04UNDXwJY2Ymn+/Ykx5w1P1302BYkIsXbqyzgXRySblJ5nVLYefIbo6o0a0lYrtk8eN0hnfsDKavbiZ1DHmBHMB9/wMZMluw6/N4IiWqDJhO03WVuZMOCAuGC+zH3t5/AStiq3rljqK4WwKAMPF1B1NOBZVE5d/OoZqWFi0oxEdzn8S44UZOnJwGww4aoLGBfAqxemO/qwG4/KCrKrkxSc3KVcTdo4JN0Rw2V593G0D1ct8uakLRt57fKaLnSJsmyd8b8VWOscyEvb4SJg6hg3U20FrrBHGCcpDTxdSGO+ZWju86+Suc7HuhHzyvOtEmNgScB1/YQgH4gU8uQWP6lpAOGfCAVjVEDoxUfg8ernXsO9uiHMGowk7l9lfNzKEh9v9zEtr7I5nTmjdot5OeXa/FGrqME0Vd9XEpphymvsreRZF/dZ6f+HYOMi6xA4SjZxoadSQUXEd416kWIO7heizJllHVl3PUW/DVAdJCEXxU4VDpbssvpwZQNydQjmLI+oqBlWlHUwIbqlRxzaDvpIqhQgTmTPCX/1tF2S7HiaSqFuoDUxf2UWPMAwMkgB+ehvT2oFB8nRuBbatDPeUin+jNU0W5NhCq4RNXq7leggMMLbWbPrva11XU+JYOyrudhdByE+D6MDKjwLAR+2kOlj4o/QGLXxL2BrlnLhmpRx1r1FPncL6lBJfvagyvb4TlAVdwCCOWbfWO0DgFWqUgIzeRMYABJlZiWdRL//DBuqSpQpfNW15WntrmZDUmA8AAABFWElGogAAAEV4aWYAAE1NACoAAAAIAAUBEgADAAAAAQABAAABGgAFAAAAAQAAAEoBGwAFAAAAAQAAAFIBKAADAAAAAQACAACHaQAEAAAAAQAAAFoAAAAAAAAAAAAAA+gAAAAAAAAD6AAFkAAABwAAAAQwMjEwoAAABwAAAAQwMTAwoAEAAwAAAAH//wAAoAIABAAAAAEAAAHaoAMABAAAAAEAAAEKAAAAAA==;" vertex="1" parent="1">
          <mxGeometry x="7" y="1080" width="1906.69" height="1070" as="geometry" />
        </mxCell>
        <mxCell id="YE6RKc2kCQrR1V2WT69Y-10" value="" style="rounded=0;whiteSpace=wrap;html=1;strokeColor=none;gradientColor=none;fillColor=#000000;opacity=75;movable=0;resizable=0;rotatable=0;deletable=0;editable=0;locked=1;connectable=0;" vertex="1" parent="1">
          <mxGeometry x="7" y="1080" width="1903" height="1070" as="geometry" />
        </mxCell>
        <mxCell id="YE6RKc2kCQrR1V2WT69Y-3" value="" style="shape=image;verticalLabelPosition=bottom;labelBackgroundColor=default;verticalAlign=top;aspect=fixed;imageAspect=0;image=data:image/png,iVBORw0KGgoAAAANSUhEUgAABQAAAAUACAMAAAAvOg/FAAAAAXNSR0IArs4c6QAAADNQTFRFAAAAEwIIHwUQMQUeRg4rfBg81Txq/4J0qZ6iul9VsSIS9i4XSScjikhAAAAAAP8AAIYAqzA3gAAAABF0Uk5TAP////////////////////8QFUChAAAgAElEQVR4nO3dwW7kNteu0fNl9AdIcv+Xe1AwummjKZVYIrk3qbWGdruqLPJ9MjLy//7H1v6P/4s+A/L6f9EfgLGi45NB9BmQlwBuLjo+GUSfAXkJ4Oai45NB9BmQlwBuLjo+GUSfAXkJ4Oai45NB9BmQlwBuLjo+GUSfAXkJ4Oai45NB9BmQlwBuLjo+GUSfAXkJ4Oai45NB9BmQlwBuLjo+uUSfBtkI4Oaik5NL9GmQjQBuLjo5uUSfBtkI4Oaik5NL9GmQjQBuLjo5uUSfBtkI4Oaik5NL9GmQjQBuLjo5uUSfBtkI4Oaik5NL9GmQjQBuLjo5uUSfBtkI4Oaik5NL9GmQjQBuKTo0WUWfC9kI4JaiQ5NV9LmQjQBuKTo0WUWfC9kI4JaiQ5NV9LmQjQBuKTo0WUWfC9kI4JaiQ5NV9LmQjQBuKTo0WUWfC9kI4JaiQ5NV9LmQjQBuKTo0WUWfC9kI4JaiQ5NV9LmQjQBuJDovK4k+K3IQwI1ER2Ul0WdFDgK4keiorCT6rMhBADcSHZWVRJ8VOQjgRqKjspLosyIHAdxIdFRWEn1W5CCAG4mOykqiz4ocBHAj0VFZSfRZkYMAbiQ6KiuJPityEMCNREdlJdFnRQ4CuLx/fouOykqiT40cBHB5AviJ6FMjBwFcngB+IvrUyEEAlyeAn4g+NXIQwOUJ4CeiT40cBHB5AviJ6FMjBwFcngB+IvrUyEEAlyeAn4g+NXIQwOUJ4CeiT40cBHB5AviJ6FMjBwFcXnRKVhd9fkQSwOVFB2R10edHJAFcXnRAVhd9fkQSwOVFB2R10edHJAFcXnRAVhd9fkQSwOVFB2R10edHJAFcXnRAVhd9fkQSwOVFB2R10edHJAFcXnRAVhd9fkQSwOVFB2R10edHJAFcVHQ29hF9kkQSwEVFZ2Mf0SdJJAFcVHQ29hF9kkQSwEVFZ2Mf0SdJJAFcVHQ29hF9kkQSwEVFZ2Mf0SdJJAFcVHQ29hF9kkQSwEVFZ2Mf0SdJJAFcVHQ29hF9kkQSwEVFZ2Mf0SdJJAFcVHQ29hF9kkQSwEVFZ2Mf0SdJJAFcVHQ29hF9kkQSwEVFZ2Mf0SdJJAFcVHQ29hF9kkQSwEVFZ2Mf0SdJJAFcVHQ29hF9kkQSwEVFZ2Mf0SdJJAFcVHQ29hF9kkQSwEVFZ2Mf0SdJJAFcSnQs9hZ9uswngEuJTsTeok+X+QRwKdGJ2Fv06TKfAC4lOhF7iz5d5hPApUQnYm/Rp8t8AriU6ETsLfp0mU8AlxKdiL1Fny7zCeBSohOxt+jTZT4BXEp0IvYWfbrMJ4BLiU7E3qJPl/kEcCnRiXiK6HNmFgFcSnQYniL6nJlFAJcSHYaniD5nZhHApUSH4Smiz5lZBHAp0WF4iuhzZhYBXEp0GJ4i+pyZRQCXEh2Gp4g+Z2YRwKVEh+Epos+ZWQRwKdFheIroc2YWAVxKdBieIvqcmUUAlxIdhqeIPmdmEcClRIfhKaLPmVkEcCnRYXiK6HNmFgFcSnQYniL6nJlFAJcSHYaniD5nZhHApUSH4Smiz5lZBHAp0WF4iuhzZhYBXEp0GJ4i+pyZRQCXEh2Gp4g+Z2YRwKVEh+Epos+ZWQRwKdFheJ7oE2csAVxKdA6eJ/rEGUsAlxKdg+eJPnHGEsClROfgeaJPnLEEcCnROXie6BNnLAFcSnQOnif6xBlLAJcSnYPniT5xxhLApUTn4HmiT5yxBHAp0Tl4nugTZywBXEp0Dp4n+sQZSwCXEp2DXv757d/foj/TO9FnzwgCuJToCPQigOQggEuJjkAvAkgOAriU6Aj0IoDkIIBLiY5ALwJIDgK4lOgI9CKA5CCAS4mOQC8CSA4CuJToCPQigOQggEuJjkAvAkgOAriU6Aj0IoDkIIALiJ4+L9G3gBEEcAHR0+cl+hYwggAuIHr6vETfAkYQwAVET5+X6FvACAK4gOjp8xJ9CxhBABcQPX1eom8BIwjgAqKnz0v0LWAEAVxA9PR5ib4FjCCAC4iePi/Rt4ARBHAB0dPnJfoWMIIALiB6+vwUfR/oRwAXED14foq+D/QjgAuIHjw/Rd8H+hHABUQPnp+i7wP9COACogfPT9H3gX4EcAHRg+en6PtAPwK4gOjB81P0faAfAVxA9OD5Kfo+0I8ALiB68PwUfR/oRwAXED14foq+D/QjgAuIHvyT/VsRfR/oRwAXEB2BJxPAvQngAqIj8GQCuDcBXEB0BJ5MAPcmgAuIjsCTCeDeBHAB0RF4MgHcmwAuIDoCTyaAexPABURH4MkEcG8CuIDoCDyZAO5NABcQHYEnE8C9CeACyvSic/A8tQCW70bfDO4SwAUIYBwB3JsALkAA4wjg3gRwAQIYRwD3JoALEMA4Arg3AVyAAMYRwL0J4AIEMI4A7k0AFyCAcQRwbwK4AAGMI4B7E8AFCGAcAdybAC5AADMQwB0J4AIEMAMB3JEALkAAMxDAHQngAgQwAwHckQAuQAAzEMAdCeACBDADAdyRAC5AADMQwB0J4AIEMAMB3JEALkAAMxDAHQngAgQwAwHckQAuQAAzEMAdCeACBDADAdyRAC5AADMQwB0J4AIEMAMB3JEALkAAMxDAHQngAgQwAwHckQAuQAAzEMAdCeACBDADAdyRAC5AADMQwB0J4AIEMAMB3JEALuDfirgQPNX5s4++I3xGABcggBkI4I4EcAECmIEA7kgAFyCAGQjgjgRwAQKYgQDuSAAXIIAZCOCOBHABApiBAO5IABcggBkI4I4EcAECmIEA7kgAFyCAGQjgjgRwAX0C+Pdvd1PwTAK4IwFcgABmIIA7EsAFCGAGArgjAVyAAGYggDsSwAUIYAYCuCMBXIAAZiCAOxLABQhgBgK4IwFcgABmIIA7EsAFCGAGArgjAVyAAGYggDsSwLRq02sP4J1k8p0A7kgA06pNTwDjCOCOBDCt2vQEMI4A7kgA06pNTwDjCOCOBDCt2vQEMI4A7kgA06pNTwDjCOCOBDCt2vQEMI4A7kgA06pNTwDjCOCOBDCt2vQEMI4A7kgA06pNTwDjCOCOBDCt2sz8OVt+0feGFgKYVm1cAphf9L2hhQCmVRuXAOYXfW9oIYBp1cYlgPlF3xtaCGBatXEJYH7R94YWAphWbVwCmF/0vaGFAKZVG5cA5hd9b2ghgGnVxiWA+UXfG1oIYFq1cQlgftH3hhYCmFZtXAKYX/S9oYUApnVnhP4ALk70vaGFAKZ1Z4QCGCf63tBCANO6M0IBjBN9b2ghgGndGaEAxom+N7QQwLTujFAA40TfG1oIYFp3RiiAcaLvDS0EMK07IxTAONH3hhYCmNadEQpgnOh7QwsBTOvOCAUwTvS9oYUApnVnhAIYJ/re0EIA0yqTuvoHcOfZE8Xr7jyr6HtDCwFMq0xKAGcTwKcQwLTKpARwNgF8CgFMq0xKAGcTwKcQwLTKpARwNgF8CgFMq0xKAGcTwKcQwLTKpARwNgF8CgFMq0xKAGcTwKcQwLTKpARwNgF8CgFMq0xKAGcTwKcQwLT6zJHZou8NLQQwrTIpAVxJ9L2hhQCmVSYlgCuJvje0EMC0yqQEcCXR94YWAphWmZQAriT63tBCANMqkxLAlUTfG1oIYFplUgK4kuh7QwsBTKtMSgBXEn1vaCGAaZVJCeBKou8NLQQwrTIpAVxJ9L2hhQCmVSblT9zi1J7u+Z8mlu9G3yDeE8C0zkd49bvcI4B7E8C0zkd49bvcI4B7E8C0zkd49bvcI4B7E8C0zkd49bvcI4B7E8C0zkd49bvcI4B7E8C0zkd49bvcI4B7E8C0zkd49bvcI4B7E8C0zkd49bvcI4B7E8C0zkd49bvcI4B7E8C0ro5QAEf6t+I8gEX0DeI9AUyrNsLyNQGcQwD3JoBp1UZYviaAcwjg3gQwrdoIy9cEcA4B3JsAplUbYfmaAM4hgHsTwLRqIyxfE8A5BHBvAphWbYTlawI4hwDuTQDTqo2wfE0A5xDAvQlgWrURlq8J4BwCuDcBTKs2wvI1AZxDAPcmgGmVIf3zW22Yf1eMicGz1VJ4/hPRN4j3BDCtMiQBzEAAdySAaZUhCWAGArgjAUyrDEkAMxDAHQlgWmVIApiBAO5IANMqQxLADARwRwKYVhmSAGYggDsSwLTKkAQwAwHckQCmVYYkgBkI4I4EMK0yJAHMQAB3JIBplSHVAlj7GiMJ4I4EMK0yJAHMQAB3JIBplSEJYAYCuCMBTKsMSQAzEMAdCWBaZUgCmIEA7kgA0ypDEsAMBHBHAphWGZIAZiCAOxLAtMqQBDADAdyRAKZVhiSAGQjgjgQwrTIkAcxAAHckgGmVIZXYlen5s7frSboarPb3Pf930TeI9wQwrTIkAawTQO4SwLTKkASwTgC5SwDTKkMSwDoB5C4BTKsMSQDrBJC7BDCtMiQBrBNA7hLAtMqQBLBOALlLANMqQxLAOgHkLgFMqwxJAOsEkLsEMK0yJAGsE0DuEsC0aoOb+wdwUe979VPV/FVRPn2f/2wI4D4EMK3a4ARQAOlJANOqDU4ABZCeBDCt2uAEUADpSQDTqg1OAAWQngQwrdrgBFAA6UkA06oNTgAFkJ4EMK3a4ARQAOlJANOqDU4ABZCeBDCt2uAEUADpSQCTuTr59rHWclYi8d+pTAEsz+r8M5//u/LdO8/06iclKwFM5nxwAiiA9CSAyZwPTgAFkJ4EMJnzwQmgANKTACZzPjgBFEB6EsBkzgcngAJITwKYzPngBFAA6UkAkzkfnAAKID0JYDLngxNAAaQnAUzmfHACKID0JIDJ3M3D8VjLe5wHocSu9vlKMnt/0nPlj9jOP/3571H72fIbjfsfTfW5G/QngMn0np4ACiDHBDCZ3tMTQAHkmAAm03t6AiiAHBPAZHpPTwAFkGMCmEzv6QmgAHJMAJPpPT0BFECOCWAyvacngALIMQFMpvf0BFAAOSaAyfSengAKIMcEMJk+g7uaveKfivKzJRK1n+jzmc9dzdn5b3QeTwF8HgFMps/gBFAAuUIAk+kzOAEUQK4QwGT6DE4ABZArBDCZPoMTQAHkCgFMps/gBFAAuUIAk+kzOAEUQK4QwGT6DE4ABZArBDCZPoMTQAHkCgFMps/gBFAAuUIAk+kzwvPJX81F7VXmZu+q8vxqn/T8Ny//sZjx+chFAJMRwE+U5yeAtBDAZATwE+X5CSAtBDAZAfxEeX4CSAsBTEYAP1GenwDSQgCTEcBPlOcngLQQwGQE8BPl+QkgLQQwGQH8RHl+AkgLAUxGAD9Rnp8A0kIAkxHAT5TnJ4C0EMBk7sysFs+rASz6fJZM/q2Y+wni7hPnBDCZOzMTwDoB5IgAJnNnZgJYJ4AcEcBk7sxMAOsEkCMCmMydmQlgnQByRACTuTMzAawTQI4IYDJ3ZiaAdQLIEQFM5s7MBLBOADkigMncmZkA1gkgRwQwmTszE8A6AeSIACZzPuDzmZUAnv9EfBCeJvpWcUQAk6nNRwBXF32rOCKAydTmI4Cri75VHBHAZGrzEcDVRd8qjghgMrX5CODqom8VRwQwmdp8BHB10beKIwKYTG0+Ari66FvFEQFMpjYfAVxd9K3iiAAmU5uPAK4u+lZxRACTqc1HAFcXfas4IoDJ9J5eLYoCOFv0reKIACbTe3oCmEH0reKIACbTe3oCmEH0reKIACbTe3oCmEH0reKIACbTe3oCmEH0reKIACbTe3oCmEH0reKIACbTe3oCmEH0reKIACbTe3oCmEH0reKIACbTe3oCmEH0reKIACbTe3oCmEH0reKIACbTPq6SuKv/7upP0Ev0reKIACbTPi4BzC/6VnFEAJNpH5cA5hd9qzgigMm0j0sA84u+VRwRwGTaxyWA+UXfKo4IYDLt4xLA/KJvFUcEMJn2cQlgftG3iiMCmEz7uAQwv+hbxREBTKZ9XAKYX/St4ogAJtM+LgHML/pWcUQAU7jzJ2n+nC2/6PvFEQFMQQD3Fn2/OCKAKQjg3qLvF0cEMAUB3Fv0/eKIAKYggHuLvl8cEcAUBHBv0feLIwKYggDuLfp+cUQAUxDAvUXfL44IYAoCuLfo+8URAUxBAPcWfb84IoAp9AmgFGYVfb84IoApCODeou8XRwQwBQHcW/T94ogApiCAe4u+XxwRwBQEcG/R94sjApiCAO4t+n5xRABTEMC9Rd8vjghgCgK4t+j7xREBTEEA9xZ9vzgigCkI4N6i7xdHBDCFq+k6/3f//CaF/d15ptH3iyMCmIIA5ieAOxLAFAQwPwHckQCmIID5CeCOBDAFAcxPAHckgCkIYH4CuCMBTEEA8xPAHQlgCgKYnwDuSABTEMD8BHBHApiCAOYngDsSwBR6B7BoHyv153znmUbfL44IYAoCmIsAPoUApiCAuQjgUwhgCgKYiwA+hQCmIIC5COBTCGAKApiLAD6FAKYggLkI4FMIYAoCmIsAPoUApiCAuQjgUwhgCgKYiwA+hQCmMC6AtZ+4+m7P9fdv5WsCuCMBTEEAcxHApxDAFAQwFwF8CgFMQQBzEcCnEMAUBDAXAXwKAUxBAHMRwKcQwBQEMBcBfAoBTEEAcxHApxDAFAQwFwF8CgFMQQBzEcCnEMAUribpfIT/VtRSKICfEMAdCWAKApifAO5IAFMQwPwEcEcCmIIA5ieAOxLAFAQwPwHckQCmIID5CeCOBDAFAcxPAHckgCkIYH4CuCMBTEEA8xPAHQlgCgKYnwDuSABTqP3pVfsI/674p0IA3/GncE8hgCkIYC4C+BQCmIIA5iKATyGAKQhgLgL4FAKYggDmIoBPIYApCGAuAvgUApiCAOYigE8hgCkIYC4C+BQCmIIA5iKATyGAKQhgLgL4FAKYwtUhnaerNtvaH8Vdfb3ezj9LcSc1fdQ+6dX/SJ2Lvmn8JIAptA+z9l0B7EUAn0IAU2gfZu27AtiLAD6FAKbQPszadwWwFwF8CgFMoX2Yte8KYC8C+BQCmEL7MGvfFcBeBPApBDCF9mHWviuAvQjgUwhgCu3DrH1XAHsRwKcQwBTah1n7rgD2IoBPIYAptA+z9l0B7EUAn0IAU6hN73xItUjUJlq+VnvlqACex6RPavqonVGf1yMDAUyhDEQABZB5BDCFMhABFEDmEcAUykAEUACZRwBTKAMRQAFkHgFMoQxEAAWQeQQwhTIQARRA5hHAFMpABFAAmUcAUygDEUABZB4BTKEMRAAFkHkEMIUykKtJqv1sUUtI/B+Yrei/3/q8Xtwdo0YAUygDEcBcBHBvAphCGYgA5iKAexPAFMpABDAXAdybAKZQBiKAuQjg3gQwhTIQAcxFAPcmgCmUgQhgLgK4NwFMoQxEAHMRwL0JYAplIAKYiwDuTQBTKAMRwFwEcG8CmEIZyJ0/hTt/lbl/9raO8z+8q53RHXF3jBoBTKEMRABnE8AnE8AUykAEcDYBfDIBTKEMRABnE8AnE8AUykAEcDYBfDIBTKEMRABnE8AnE8AUykAEcDYBfDIBTKEMRABnE8AnE8AUykAEcDYBfDIBTKEMRABnE8AnE8AUykDaA1hLYXmV83lTV55a7z8gjL5p/CSAKZSBCGAGAvgUAphCGYgAZiCATyGAKZSBCGAGAvgUAphCGYgAZiCATyGAKZSBCGAGAvgUAphCGYgAZiCATyGAKZSBCGAGAvgUAphCGYgAZiCATyGAKZSBCGAGAvgUAphCGcjVAJZ/d/V/23P1lfn+n5feTy36pvGTAKZQBiKAGQjgUwhgCmUgApiBAD6FAKZQBiKAGQjgUwhgCmUgApiBAD6FAKZQBiKAGQjgUwhgCmUgApiBAD6FAKZQBiKAGQjgUwhgCmUgApiBAD6FAKZQBiKAGQjgUwhgCu1DKsP867f2n21/32e4+h+VdtE3jZ8EMIX2IQngSAL4FAKYQvuQBHAkAXwKAUyhfUgCOJIAPoUAptA+JAEcSQCfQgBTaB+SAI4kgE8hgCm0D0kARxLApxDAFNqHJIAjCeBTCGAK7UMSwJEE8CkEMIX2IQngSAL4FAKYQm0qtUz9WzHuz7bGqf0eNXP/l07lfccFsIi+c7wIYArnc6x9TQBHfioBfAoBTOF8jrWvCeDITyWATyGAKZzPsfY1ARz5qQTwKQQwhfM51r4mgCM/lQA+hQCmcD7H2tcEcOSnEsCnEMAUzudY+5oAjvxUAvgUApjC+RxrXxPAkZ9KAJ9CAFM4n2PtawI48lMJ4FMIYArnc6x9TQBHfioBfAoBTOF8jrWv1QJ4/npRSsSuZu/cuE9anqQAPoUAplAbiAAKIKMJYAq1gQigADKaAKZQG4gACiCjCWAKtYEIoAAymgCmUBuIAAogowlgCrWBCKAAMpoAplAbiAAKIKMJYAq1gQigADKaAKZQG4gACiCjCWCg85ldDWBRXnlGLs6V7P1T0Z6981fp85n/q+jzyjVx945CAAMJoAASSwADCaAAEksAAwmgABJLAAMJoAASSwADCaAAEksAAwmgABJLAAMJoAASSwADCaAAEksAAwmgABJLAANdDeBVV1+5t/M4lRTO+Cx3CODzCGAgAcxFAJ9HAAMJYC4C+DwCGEgAcxHA5xHAQAKYiwA+jwAGEsBcBPB5BDCQAOYigM8jgIEEMBcBfB4BDCSAuQjg8whgIAHMRQCfRwAD1WZWwlH72rmSn/Ie4wa8ttpTK+cx4/nNv2/8SQADCWAcAeRFAAMJYBwB5EUAAwlgHAHkRQADCWAcAeRFAAMJYBwB5EUAAwlgHAHkRQADCWAcAeRFAAMJYBwB5EUAAwlgHAHkRQAD/fVbmUXtD8euBrC8XnmPWmT57r+K2n+Geou7dxQCGEgAMxDAJxPAQAKYgQA+mQAGEsAMBPDJBDCQAGYggE8mgIEEMAMBfDIBDCSAGQjgkwlgIAHMQACfTAADCWAGAvhkAhhIADMQwCcTwEBXA1icB7D2HnNHvY7aH8BF/cdi9r2jEMBAAhhHAHkRwEACGEcAeRHAQAIYRwB5EcBAAhhHAHkRwEACGEcAeRHAQAIYRwB5EcBAAhhHAHkRwEACGEcAeRHAQAIYRwB5EcBAZYRlDHcCWPufIsXPO6fyNGrPau5nmX/z+EUAAwlgHAHkRQADCWAcAeRFAAMJYBwB5EUAAwlgHAHkRQADCWAcAeRFAAMJYBwB5EUAAwlgHAHkRQADCWAcAeRFAAMJYBwB5EUAA9UCeO48gEV5j1oA2993F7X/RBS1P02cYdZ9408CGEgAZxNAfhLAQAI4mwDykwAGEsDZBJCfBDCQAM4mgPwkgIEEcDYB5CcBDCSAswkgPwlgIAGcTQD5SQADCeBsAshPAhhIAGcTQH4SwEBRASyiJj/XPxW1J1Se39VXbv+Jmvk3j18EMJAAziGAHBHAQAI4hwByRAADCeAcAsgRAQwkgHMIIEcEMJAAziGAHBHAQAI4hwByRAADCeAcAsgRAQwkgHMIIEcEMJAAziGAHBHAQO0BrE3vTgCLO58lu/MAFldfr/bE73y+WfeNPwlgIAGcQwA5IoCBBHAOAeSIAAYSwDkEkCMCGEgA5xBAjghgIAGcQwA5IoCBBHAOAeSIAAYSwDkEkCMCGEgA5xBAjghgIAGcQwA5IoCBxgWwqMWufIJaANdOYe33EECOCGAgAexPAGkhgIEEsD8BpIUABhLA/gSQFgIYSAD7E0BaCGAgAexPAGkhgIEEsD8BpIUABhLA/gSQFgIYSAD7E0BaCGAgAexPAGkhgIGiAlhzNRx3hj7DjACO+8yzbyACGEgA+xNAWghgIAHsTwBpIYCBBLA/AaSFAAYSwP4EkBYCGEgA+xNAWghgIAHsTwBpIYCBBLA/AaSFAAYSwP4EkBYCGEgA+xNAWghgoD5ZOQ9gebc+AcyZwvbfo3YevT9VOYXzfyeAcQQwkAD2IoB8RgADCWAvAshnBDCQAPYigHxGAAMJYC8CyGcEMJAA9iKAfEYAAwlgLwLIZwQwkAD2IoB8RgADCWAvAshnBDCQAPYigHxGAFPoM7PzABa1AJbvlp/NHsX2z1fUkjn309fMum/8IoAp3BmNAAognxLAFO6MRgAFkE8JYAp3RiOAAsinBDCFO6MRQAHkUwKYwp3RCKAA8ikBTOHOaARQAPmUAKZwZzQCKIB8SgBTuDMaARRAPiWAKdwZjQAKIJ8SwBTujOY8gGXetfetpbD8RHsK//qt/GyvOPxyJ3u137z356u5+jRm3Td+EcAU+oxLAAWQNgKYQp9xCaAA0kYAU+gzLgEUQNoIYAp9xiWAAkgbAUyhz7gEUABpI4Ap9BmXAAogbQQwhT7jEkABpI0AptBnXAIogLQRwBT6jEsABZA2AphCn3GdK5OvfYLzALansLxy+drfv1393WppvZO98ipzA3hVec6jbxxfBDCFPqMRQAGkjQCm0Gc0AiiAtBHAFPqMRgAFkDYCmEKf0QigANJGAFPoMxoBFEDaCGAKfUYjgAJIGwFMoc9oBFAAaSOAKfQZjQAKIG0EMIU+oxFAAaSNAKbQez4155+gFsA7KTx/t78qat9tj91VOQNY3L9TXCGAKfQZjQBeJ4C8CGAKfUYjgNcJIC8CmEKf0QjgdQLIiwCm0Gc0AnidAPIigCn0GY0AXieAvAhgCn1GI4DXCSAvAphCn9EI4HUCyIsAptBnNAJ4nQDyIoAp9BmNAF4ngLwIYAp9RnMewPM4nQewqMXpahTPX6WP8+dc3rd85j7PfpwR941fBDCFPlMRQAGkjQCm0GcqAiiAtBHAFPpMRQAFkDYCmEKfqQigANJGAFPoMxUBFEDaCGAKfaYigAJIGwFMoc9UBFAAaSOAKfSZigAKIG0EMIU+UxFAAaSNAKbQZyrnASzK+/5XUb5by0rvYN1Rchb1xGf4/FbxngCm0GcqAjj7ic/w+a3iPQFMoc9UBHD2E5/h81vFewKYQp+pCODsJ55c/TQAABxxSURBVD7D57eK9wQwhT5TEcDZT3yGz28V7wlgCn2mIoCzn/gMn98q3hPAFPpMRQBnP/EZPr9VvCeAKfSZigDOfuIzfH6reE8AU+gzFQGc/cRn+PxW8Z4AptBnKgI4+4nP8Pmt4j0BTKHPVO4EsHztan5qr9w7cVefX+33mPHEZ7j6G/EJAUyhz1QEUABpI4Ap9JmKAAogbQQwhT5TEUABpI0AptBnKgIogLQRwBT6TEUABZA2AphCn6kIoADSRgBT6DMVARRA2ghgCn2mIoACSBsBTKHPVARQAGkjgCn0Hk17AM9TWPtaH39VnL9b7dOfP93ab9n7ic9w745RI4Ap9J6KAH4ngBwRwBR6T0UAvxNAjghgCr2nIoDfCSBHBDCF3lMRwO8EkCMCmELvqQjgdwLIEQFMofdUBPA7AeSIAKbQeyoC+J0AckQAU+g9FQH8TgA5IoAp9J6KAH4ngBwRwBR6T+U8gLUgnKewqKWr9u/Kd3uHsvZutc98/rv1fuK9z6j2Ez1uGj8JYApzxyWAAsgXAUxh7rgEUAD5IoApzB2XAAogXwQwhbnjEkAB5IsApjB3XAIogHwRwBTmjksABZAvApjC3HEJoADyRQBTmDsuARRAvghgCnPHJYACyBcBTGHuzMr7nkfiPDq1OJWvlXcrXzt/BrXs1T5p7Wfbkz7uiZ8/+3ZXnx+fEMAU5o6wvK8AjiSA+QlgCnNHWN5XAEcSwPwEMIW5IyzvK4AjCWB+ApjC3BGW9xXAkQQwPwFMYe4Iy/sK4EgCmJ8ApjB3hOV9BXAkAcxPAFOYO8LyvgI4kgDmJ4ApzB1heV8BHEkA8xPAFOaOsLyvAI4kgPkJYApzR1gmdZ6L8yTVvltLZi0/tZ8991dF7T3Os1deb9zTrT3n2nevvkrtJ8bdxKcRwBT6zPHqRAVQAPkigCn0mePViQqgAPJFAFPoM8erExVAAeSLAKbQZ45XJyqAAsgXAUyhzxyvTlQABZAvAphCnzlenagACiBfBDCFPnO8OlEBFEC+CGAKfeZ4daICKIB8EcAU+szx6kQFUAD5IoAp9Jlj+1ivBrBEp5bCWpLuuBrF8hO12JWv1T5fLSt9numdV776euVrfZ74cwlgCndGeGdcAiiAzyaAKdwZ4Z1xCaAAPpsApnBnhHfGJYAC+GwCmMKdEd4ZlwAK4LMJYAp3RnhnXAIogM8mgCncGeGdcQmgAD6bAKZwZ4R3xiWAAvhsApjCnRHeGZcACuCzCWAKd0Z4Z1wCKIDPJoAp3BnhnZmVT1AL4Hn2xrmavfNPfx7y8t32p1Zer3zt79/6nFHtN6/9uxnnsTMBTKHPaK4SQAHkiwCm0Gc0VwmgAPJFAFPoM5qrBFAA+SKAKfQZzVUCKIB8EcAU+ozmKgEUQL4IYAp9RnOVAAogXwQwhT6juUoABZAvAphCn9FcJYACyBcBTKHPaK4SQAHkiwCm0Gc0V/1bUYJQPlVthLV/1zuU5fXK184Td/56tQAW5RmcP6urz7T3yZx/d+5/mvYjgCncGU2fmQmgAD6RAKZwZzR9ZiaAAvhEApjCndH0mZkACuATCWAKd0bTZ2YCKIBPJIAp3BlNn5kJoAA+kQCmcGc0fWYmgAL4RAKYwp3R9JmZAArgEwlgCndG02dmAiiATySAKdwZTZ+ZCaAAPpEApnBnNH1mdp6V2sx6Z684j93V7NU+/bmrz6/9PUae5rXPR50ApjB3IAIogHwRwBTmDkQABZAvApjC3IEIoADyRQBTmDsQARRAvghgCnMHIoACyBcBTGHuQARQAPkigCnMHYgACiBfBDCFuQMRQAHkiwCmMHcgAiiAfBHAFOYOpAzzPIA1d7JXfqK8Si1nfbJXe9/ab37+3fP3Pc9eeZW551u0P6unEcAU5s5CAAWQLwKYwtxZCKAA8kUAU5g7CwEUQL4IYApzZyGAAsgXAUxh7iwEUAD5IoApzJ2FAAogXwQwhbmzEEAB5IsApjB3FgIogHwRwBTmzkIABZAvApjC3FmUiV7NXlGL2PnvVgvledhqX/urovZutVf+t+L8U139jeIT1+78d3saAUxh7gQEUAD5IoApzJ2AAAogXwQwhbkTEEAB5IsApjB3AgIogHwRwBTmTkAABZAvApjC3AkIoADyRQBTmDsBARRAvghgCnMnIIACyBcBTGHuBARQAPkigCnMnUAZcPnaeZL+qahFsZbHq2k9f0Ltr1f7VFfTH3Uyc425y2sRwBTmXnwBFMCXMXd5LQKYwtyLL4AC+DLmLq9FAFOYe/EFUABfxtzltQhgCnMvvgAK4MuYu7wWAUxh7sUXQAF8GXOX1yKAKcy9+AIogC9j7vJaBDCFuRdfAAXwZcxdXosApjD34gugAL6MuctrEcAU5l58ARTAlzF3eS0CmMLci18yUD7BeQaufu389c7foyTu/POVr12N8fmnqv3n4BnO/zDwGQQwhbkXXwAF8EUABTCJuRdfAAXwRQAFMIm5F18ABfBFAAUwibkXXwAF8EUABTCJuRdfAAXwRQAFMIm5F18ABfBFAAUwibkXXwAF8EUABTCJuRdfAAXwRQAFMIm5F18ABfBFAAUwibkXv6SmfIL2YF39ifN0XQ1W7Wfbs7fi/8RorqelUABTmHvJBVAAjwggAeZecgEUwCMCSIC5l1wABfCIABJg7iUXQAE8IoAEmHvJBVAAjwggAeZecgEUwCMCSIC5l1wABfCIABJg7iUXQAE8IoAEmHvJBVAAjwggAaIu+XmmiqsBrP0527nyE7XXOw/b+XfnPtOdjbr1GQhgCnMvtADSYtStz0AAU5h7oQWQFqNufQYCmMLcCy2AtBh16zMQwBTmXmgBpMWoW5+BAKYw90ILIC1G3foMBDCFuRdaAGkx6tZnIIApzL3QAkiLUbc+AwFMYe6FFkBajLr1GQhgCnMvtADSYtStz0AAA0Vd6PYAFlfDdu78fWsZvfoJop5pTu1/+vdvRfnumB1EEsBAI678FQL4FAL4jgAGGnHlrxDApxDAdwQw0Igrf4UAPoUAviOAgUZc+SsE8CkE8B0BDDTiyl8hgE8hgO8IYKARV/4KAXwKAXxHAAONuPJXCOBTCOA7AhhoxJW/QgCfQgDfEcBAI678FQL4FAL4jgAGGnHlrzgPUdH+h21XY1fLXvmJ2p/H1T5L1PPbz9+/1QK4cwoFMFDUdRdAfhJAAkRddwHkJwEkQNR1F0B+EkACRF13AeQnASRA1HUXQH4SQAJEXXcB5CcBJEDUdRdAfhJAAkRddwHkJwEkQNR1F0B+EkACRF33cqF7B7D8bu2vfP6saiOkv/Kcy8kIIEPEX3IB5CcBZJr4Sy6A/CSATBN/yQWQnwSQaeIvuQDykwAyTfwlF0B+EkCmib/kAshPAsg08ZdcAPlJAJkm/pILID8JINPEX3IB5CcBZLC4y/1L+cOn80zdSVxRfqK8Sglg7QmV70Y/KV7+rSjfHb2XsQRwuriL/IsA0kIA6SjuIv8igLQQQDqKu8i/CCAtBJCO4i7yLwJICwGko7iL/IsA0kIA6SjuIv8igLQQQDqKu8i/CCAtBJCO4i7yLwJICwGko7iL/IsA0kIA6SjuIv/pPHvlM1+N3Xn2aq9c+3dzn0Ft1Hxi9HJGEMDpoq/pdwIogP2MXs4IAjhd9DX9TgAFsJ/RyxlBAKeLvqbfCaAA9jN6OSMI4HTR1/Q7ARTAfkYvZwQBnC76mn4ngALYz+jljCCA00Vf0+8EUAD7Gb2cEQRwuuhr+p0ACmA/o5czggBOF31NvxNAAexn9HJGEMDpoq/pdwIogP2MXs4IAjhd9DX9rhas9tjV4lnzV8Xc/IjdSHGb+pwAThd9Tb8TQPqJ29TnBHC66Gv6nQDST9ymPieA00Vf0+8EkH7iNvU5AZwu+pp+J4D0E7epzwngdNHX9DsBpJ+4TX1OAKeLvqbfCSD9xG3qcwI4XfQ1/U4A6SduU58TwOmir+l3Akg/cZv6nABOF31NvxNA+onb1OcEcLpaGqKubPkE47IX//vK3mzRG7tOAKeLD0IhgIwQvbHrBHC6+CAUAsgI0Ru7TgCniw9CIYCMEL2x6wRwuvggFALICNEbu04Ap4sPQiGAjBC9sesEcLr4IBQCyAjRG7tOAKeLD0IhgIwQvbHrBHC6+CAUAsgI0Ru7TgCniw9CIYCMEL2x6wRwknI5akEo/25uJMqfpO2Xvaj3RQD5Q7kcAjiHAMaJ21krAZykXA4BnEMA48TtrJUATlIuhwDOIYBx4nbWSgAnKZdDAOcQwDhxO2slgJOUyyGAcwhgnLidtRLAScrlEMA5BDBO3M5aCeAk5XII4BwCGCduZ60EcJJyOQRwDgGME7ezVgI4SbkcAjiHAMaJ21krAZzk34rzANa+O+6inseuhDJn7Moz/fu3uZ+AunkL+4wATiKAIwlgVvMW9hkBnEQARxLArOYt7DMCOIkAjiSAWc1b2GcEcBIBHEkAs5q3sM8I4CQCOJIAZjVvYZ8RwEkEcCQBzGrewj4jgJMI4EgCmNW8hX1GACcRwJEEMKt5C/uMAE4igCMJYFbzFvYZAZykXIky0ZKLWhSLkp/a6/W5nrXsXY1d+Xx9PtVVtf+ozP0EXDd/c1cI4CTlIghgLwK4kvmbu0IAJykXQQB7EcCVzN/cFQI4SbkIAtiLAK5k/uauEMBJykUQwF4EcCXzN3eFAE5SLoIA9iKAK5m/uSsEcJJyEQSwFwFcyfzNXSGAk5SLIIC9COBK5m/uCgGcpFwEAexFAFcyf3NXCOAk5SIIYC8CuJL5m7tCACepTbQkpHZNatkrcSpf63Mp27NX+/QzlP+AyN6axq/tOgGcRAB7EcDVjV/bdQI4iQD2IoCrG7+26wRwEgHsRQBXN35t1wngJALYiwCubvzarhPASQSwFwFc3fi1XSeAkwhgLwK4uvFru04AJxHAXgRwdePXdp0ATiKAvQjg6sav7ToBnEQAexHA1Y1f23UCOFSZaC0X5Wvl39USV3MnRP9V3MnejBDJ3o7mrPCMAA4lgL0I4I7mrPCMAA4lgL0I4I7mrPCMAA4lgL0I4I7mrPCMAA4lgL0I4I7mrPCMAA4lgL0I4I7mrPCMAA4lgL0I4I7mrPCMAA4lgL0I4I7mrPCMAA4lgL0I4I7mrPCMAA4lgL0I4I7mrPCMAA5QDvhqps5TU3uPfytqQS1fq6X1auxq/9ujkqTes/i7ovd7kMGsRR4TwAHKAQvgJwTwKWYt8pgADlAOWAA/IYBPMWuRxwRwgHLAAvgJAXyKWYs8JoADlAMWwE8I4FPMWuQxARygHLAAfkIAn2LWIo8J4ADlgAXwEwL4FLMWeUwABygHLICfEMCnmLXIYwI4QDlgAfyEAD7FrEUeE8ABygEL4CcE8ClmLfKYAHZTO+D2AJavlYjV3qMWwKL2x261P3srr3wewL7X/rta4mpfK7/buM9CnPl7/SKA3dSOVQDfEUBe5u/1iwB2UztWAXxHAHmZv9cvAthN7VgF8B0B5GX+Xr8IYDe1YxXAdwSQl/l7/SKA3dSOVQDfEUBe5u/1iwB2UztWAXxHAHmZv9cvAthN7VgF8B0B5GX+Xr8IYDe1YxXAdwSQl/l7/SKA3dSOVQDfEUBe5u/1iwDe1H7UZcolMLWI3blOtXie+6ui9sq1OPUhe7yMXOufBPCm9gMWwDoB5GXkWv8kgDe1H7AA1gkgLyPX+icBvKn9gAWwTgB5GbnWPwngTe0HLIB1AsjLyLX+SQBvaj9gAawTQF5GrvVPAnhT+wELYJ0A8jJyrX8SwJvaD1gA6wSQl5Fr/ZMA3tR+wAJYJ4C8jFzrnwTwpvYDFsA6AeRl5Fr/JIA3RV2TWjJrubj6e5QY10J0J3vlU/V+ZXY0cq1/EsCboq6JALKnkWv9kwDeFHVNBJA9jVzrnwTwpqhrIoDsaeRa/ySAN0VdEwFkTyPX+icBvCnqmgggexq51j8J4E1R10QA2dPItf5JAG+KuiYCyJ5GrvVPAnhT1DURQPY0cq1/EsCboq6JALKnkWv9kwA2uHOstTj1UV659qd15d+d/27nn6/905//hOzx3oxNC2CDO4cpgN8JIO/N2LQANrhzmAL4nQDy3oxNC2CDO4cpgN8JIO/N2LQANrhzmAL4nQDy3oxNC2CDO4cpgN8JIO/N2LQANrhzmAL4nQDy3oxNC2CDO4cpgN8JIO/N2LQANrhzmAL4nQDy3oxNC2CDO4cpgN8JIO/N2LQANhgXsbnKb3T+P0C6k73i74p+v8sV559AjHOpnce4TQtgAwF8RwC5SwDTEsB3BJC7BDAtAXxHALlLANMSwHcEkLsEMC0BfEcAuUsA0xLAdwSQuwQwLQF8RwC5SwDTEsB3BJC7BDAtAXxHALlLAJMpx9AehOzjOv+Nrv6+tT/Bq/3sjP+AlCdeS/D5T4z7VHyinMy4dQvgW+VABLBOABlBAFMoByKAdQLICAKYQjkQAawTQEYQwBTKgQhgnQAyggCmUA5EAOsEkBEEMIVyIAJYJ4CMIIAplAMRwDoBZAQBTKEciADWCSAjCGAK5UAEsE4AGUEAA/U+wj6v19t5kmqfvpa4q8b9Hn9X1AJYM+5TcU/tjHrvXAAPjDvCTAQw68kggKHGHWEmApj1ZBDAUOOOMBMBzHoyCGCocUeYiQBmPRkEMNS4I8xEALOeDAIYatwRZiKAWU8GAQw17ggzEcCsJ4MAhhp3hJkIYNaTQQBDjTvCTAQw68kggKH6HOGM8fd2/pnPszI3e7XPMu7dyKD3zgXwQJ/jEkABpKfeOxfAA32OSwAFkJ5671wAD/Q5LgEUQHrqvXMBPNDnuARQAOmp984F8ECf4xJAAaSn3jsXwAN9jksABZCeeu9cAA/0OS4BFEB66r1zATzQ57gEUADpqffOBfBAn+MSQAGkp947F8Afxh1c9omW/7FR+3fn/m61yNYSnP2Jc0+fxQvgD+OOK/scBZC19Fm8AP4w7riyz1EAWUufxQvgD+OOK/scBZC19Fm8AP4w7riyz1EAWUufxQvgD+OOK/scBZC19Fm8AP4w7riyz1EAWUufxQvgD+OOK/scBZC19Fm8AP4w7riyz1EAWUufxQvgD+OOK/scBZC19Fm8AP5vZPbW9k9F+W5Jzfm/66OWvat6fxYyKHftzvYF8H8CeEQAyUsAu4k+yqwEkLwEsJvoo8xKAMlLALuJPsqsBJC8BLCb6KPMSgDJSwC7iT7KrASQvASwm+ijzEoAyUsAu4k+yqwEkLwEsJvoo8xKAMlLAG9qf+R9/riqDHOdP9aqJa4WwN7vK3a8d6cCAthAAAWQfO5UQAAbCKAAks+dCghgAwEUQPK5UwEBbCCAAkg+dyoggA0EUADJ504FBLCBAAog+dypgAA2EEABJJ87FRDABgIogORzpwIC2EAABZB87lTgcQG8M9YV03WHrLCCsun2HghgAwGEfASwgQBeJ4CsQAAbCOB1AsgKBLCBAF4ngKxAABsI4HUCyAoEsIEAXieArEAAGwjgdQLICgSwgQBeJ4CsQAAbCOB1AsgKBPCt3lP+t6LPK+c097d8xjOll3Jf2ssggDcf+TPGKoDkJYBvCeA9AkheAviWAN4jgOQlgG8J4D0CSF4C+JYA3iOA5CWAbwngPQJIXgL4lgDeI4DkJYBvCeA9AkheAviWAN4jgOQlgG9FHxEwXnsZBBDYRHsZBBDYRHsZBBDYRHsZBBDYRHsZBBDYRHsZBBDYRHsZBBDYRHsZBBDYRHsZBBDYRHsZHhLAIvqIgFHaeyCAwCbaeyCAwCbaeyCAwCbaeyCAwCbaeyCAwCbaeyCAwCbaeyCAwCbaeyCAwCbaeyCAwCbaeyCAwCbaeyCAwCbaeyCAwCbaeyCAwCbaeyCAwCbaeyCAwCbaeyCAwCbaeyCAwCbaeyCAwCbaeyCAwCbae/CQAEYfDO/9+9s/v0V/pnf+rYj+TE9WTuFqGQSQJASQuwTwQPTB8J4AcpcAHog+GN4TQO4SwAPRB8N7AshdAngg+mB4TwC5SwAPRB8M7wkgdwnggeiD4T0B5C4BPBB9MLwngNwlgAeiD4b3BJC7BPCH6OPgpRa2Wjhq/64m+vepE8AMBPCH6OPgRQCZRQB/iD4OXgSQWQTwh+jj4EUAmUUAf4g+Dl4EkFkE8Ifo4+BFAJlFAH+IPg5eBJBZBPCH6OPgRQCZRQB/iD4OXgSQWQTwh+jj4EUAmUUA/7dm9moZiP5M3/3923m6rr7enRT+9dvI3/hz2VP9DFdrIYApCKAA0tPVWghgCgIogPR0tRYCmIIACiA9Xa2FAKYggAJIT1drIYApCKAA0tPVWghgCgIogPR0tRYCmIIACiA9Xa2FAKYggAJIT1drIYApCKAA0tPVWmwTwOgH3l8tEiVEd175as56u/r7nvuv4up7zND+m9NfuS/n3RDAtARQAPmUAC5PAAWQTwng8gRQAPmUAC5PAAWQTwng8gRQAPmUAC5PAAWQTwng8gRQAPmUAC5PAAWQTwng8gRQAPnUQwIY/ZhHKn/yVUth7SdGB2yE89+jFrtz5+/R5z8gtU96Hu0Zn6X3661NAJcngALYQgC/E8DlCaAAthDA7wRweQIogC0E8DsBXJ4ACmALAfxOAJcngALYQgC/E8DlCaAAthDA7wRweQIogC0E8DsBXJ4ACmALAfxOAJcngALYQgC/2zqA0Q93ttphXk1I+0THKROtfff8GZR/dzWFV3+3q6dQfuL8SV59zoI1kgBuRAAFkDYCuBEBFEDaCOBGBFAAaSOAGxFAAaSNAG5EAAWQNgK4EQEUQNoI4EYEUABpI4AbEUABpI0AbkQABZA2GwYw+pFmUHsu7Qlp93fFnderfb7ae1x9Gu0prMWp9h53YneudjLnv++59ue3MwHcUu25XJ3PnWAJoACuRQC3VHsuV+dzJ1gCKIBrEcAt1Z7L1fncCZYACuBaBHBLtedydT53giWAArgWAdxS7blcnc+dYAmgAK5FALdUey5X53MnWAIogGsRwC3VnsvV+dwJlgAK4FoEcEu153J1PneCJYACuBYB3FLtuVydz51gCaAArmWbAEY/yKzKEypHXbv45187n0otF+dhuxOE89yeP43ys+cpLE/tagrv/EZXf98796B2qn1eb221J17riwAuqjyhcsACKIAC+KX2xGt9EcBFlSdUDlgABVAAv9SeeK0vArio8oTKAQugAArgl9oTr/VFABdVnlA5YAEUQAH8Unvitb4I4KLKEyoHLIACKIBfak+81hcBXFR5QuWABVAABfBL7YnX+iKAiypPqBywAAqgAH6pPfFaXwRwUeUJlQMWQAEUwC+1J17riwAuqjyhcsACKIAC+KX2xGt9SRpAh3ldbVJXE1L7d+dh6/OZz9/tr4ryCc6Tfh62csNKFPvkrF3tN+/zdHu/3opq96BWGgFcXm1SAiiAAiiAj1CblAAKoAAK4CPUJiWAAiiAAvgItUkJoAAKoAA+Qm1SAiiAAiiAj1CblAAKoAAK4CPUJiWAAiiAAvgItUkJoAAKoAA+Qm1SAiiAArhcAMtHjX58qxs3rt7Oc1tT7kvtT9xqgTl/vT6vctX573v1qZ3/R2DEOa1GAB9NAAXw2QTw0QRQAJ9NAB9NAAXw2QTw0QRQAJ9NAB9NAAXw2QTw0QRQAJ9NAB9NAAXw2QTw0QRQAJ9NAB9NAAXw2a4G8P8DjSYbw41fH2cAAAAASUVORK5CYII=;imageBorder=#1A0034;strokeWidth=14;" vertex="1" parent="1">
          <mxGeometry x="1278.5" y="1120" width="260" height="260" as="geometry" />
        </mxCell>
        <mxCell id="YE6RKc2kCQrR1V2WT69Y-4" value="" style="shape=image;verticalLabelPosition=bottom;labelBackgroundColor=default;verticalAlign=top;aspect=fixed;imageAspect=0;image=data:image/png,iVBORw0KGgoAAAANSUhEUgAABQAAAAUACAMAAAAvOg/FAAAAAXNSR0IArs4c6QAAADNQTFRFAAAAEwIIHwUQMQUeRg4rfBg81Txq/4J0qZ6iul9VsSIS9i4XSScjikhAAAAAAP8AAIYAqzA3gAAAABF0Uk5TAP////////////////////8QFUChAAAgAElEQVR4nOydy5IlNw5klZpe9JiV9P+fO1alHiGv5HQ6AiAibqafVdtlkMSLp3qTpt8+zCf+/Bu0+vvfTMf1b36Yg7xPxZ8e39P5berBvgcWoPnJ+1T86fE9HQvwBQvQ/OR9Kv70+J6OBfiCBWh+8j4Vf3p8T8cCfMECND95n4o/Pb6nYwG+YAGan7xPxZ8e39OxAF+wAM1P3qfiT4/v6ViAL1iA5ifvU/Gnx/d0LMAXLEDzk/ep+NPjezoW4AsWoPnJ+1T86fE9nYMCfJIu8iAVRtlmY7lrOO6PoELM392RnOR3wN0xvRMW4AIL0AJ8ByzAGhbgAgvQAnwHLMAaFuACC9ACfAcswBoW4AIL0AJ8ByzAGhbgAgvQAnwHLMAaFuACC9ACfAcswBoW4AIL0AJ8ByzAGhbgAgvQAnwHLMAaFuACC9ACfAcswBr+U7gtqGx33WtqoOq+d8WtvRoW4BZUtrvuNTVQdd+74hZgDQtwCyrbXfeaGqi6711xC7CGBbgFle2ue00NVN33rrgFWMMC3ILKdte9pgaq7ntX3AKsYQFuQWW7615TA1X3vStuAdawALegst11r6mBqvveFbcAa1iAW1DZ7rrX1EDVfe+KW4A1LMAtqGx33WtqoOq+d8UtwBoW4BZUtrvuNTVQdd+74hZgDQvwY/efQkJlOxeL2jgP/md4JSt1fjqegxoW4IcF+P7wSlbq/HQ8BzUswA8L8P3hlazU+el4DmpYgB8W4PvDK1mp89PxHNSwAD8swPeHV7JS56fjOahhAX5YgO8Pr2Slzk/Hc1DDAvywAN8fXslKnZ+O56CGBfhhAb4/vJKVOj8dz0ENC/DDAnx/eCUrdX46noMaFuCHBfj+8EpW6vx0PAc1vrEAufYCVLbuWLrbeu7eczGfi2Ci4vdjFV7BArQAL57cHfO5CCYqfj8W4BUsQAvw4sndMZ+LYKLi92MBXsECtAAvntwd87kIJip+PxbgFSxAC/Diyd0xn4tgouL3YwFewQK0AC+e3B3zuQgmKn4/FuAVLEAL8OLJ3TGfi2Ci4vdjAV7BArQAL57cHfO5CCYqfj8W4BUsQAvw4sndMZ+LYKLi92MBXsECtAAvntwd87kIJip+PxbgFSzAGwU40eC4Lf9A/vibkxGe567az2IBXsECtACXWIDvhAV4BQvQAlxiAb4TFuAVLEALcIkF+E5YgFewAC3AJRbgO2EBXsECtACXWIDvhAV4BQvQAlxiAb4TFuAVLEALcIkF+E5YgFewAC3AJRbgO2EBXsECtACXWIDvhAV4hW8sQBVUtsp5PYOaj/mr0NOZ6ajvoWfW4hQ+zwi0408RvpfnpnbaAtzCy5vHAqzR05npqO/BArQAy/Dy5rEAa/R0Zjrqe7AALcAyvLx5LMAaPZ2ZjvoeLEALsAwvbx4LsEZPZ6ajvgcL0AIsw8ubxwKs0dOZ6ajvwQK0AMvw8uaxAGv0dGY66nuwAC3AMry8eSzAGj2dmY76HixAC7AML28eC7BGT2emo74HC9ACLMPLm8cCrNHTmemo78ECtADL8PL2nNdN/rZ3/LO3amfv7VE3XER5TQX5HRwuO/6bukPtpQW4BZWt+7xu8rdZgNM96sYCtACPgMrWfV43+dsswOkedWMBWoBHQGXrPq+b/G0W4HSPurEALcAjoLJ1n9dN/jYLcLpH3ViAFuARUNm6z+smf5sFON2jbixAC/AIqGzd53WTv80CnO5RNxagBXgEVLbu87rJ32YBTveoGwvQAjwCKlv3ed3kb7MAp3vUjQVoAR4Bla37vG7yt1mA0z3qxgK0AI+AytZ9inpH9lHsmNVevkI9J1eoxBK/VfTD4Y8ffafu6Nl7FxEpr70FuKXnwalPhd+Rf44cC3BHJZb4zQKcxgJso+fBqU+F35F/jhwLcEcllvjNApzGAmyj58GpT4XfkX+OHAtwRyWW+M0CnMYCbKPnwalPhd+Rf44cC3BHJZb4zQKcxgJso+fBqU+F35F/jhwLcEcllvjNApzGAmyj58GpT4XfkX+OHAtwRyWW+M0CnMYCbKPnwalPhd+Rf44cC3BHJZb4zQKcxgJso+fBqU+F35F/jhwLcEcllvjNApzGAmyj58GpT4XfkX+OHAtwRyWW+M0CnMYCbKPy4KLQ3Q9JPQUp7v4/e0O58YrnT1Z7qcbXgzo594O0944C5N9ZgFsqY2wBYlBuvOL5k9VeqvH1oE7O/ViA5heVMbYAMSg3XvH8yWov1fh6UCfnfixA84vKGFuAGJQbr3j+ZLWXanw9qJNzPxag+UVljC1ADMqNVzx/stpLNb4e1Mm5HwvQ/KIyxhYgBuXGK54/We2lGl8P6uTcjwVoflEZYwsQg3LjFc+frPZSja8HdXLuxwI0v6iMsQWIQbnxiudPVnupxteDOjn3YwGaX1TG2ALEoNx4xfMnq71U4+tBnZz7sQDNLypjbAFiUG684vmT1V6q8fWgTs79WIDmF/kxjuLzx4B0VlFmHp5lz8nnujBLT1TddVHhs9bzD/U7YgFuyTfdArQAM6dMYAFiLMAt+aZbgBZg5pQJLECMBbgl33QL0ALMnDKBBYixALfkm24BWoCZUyawADEW4JZ80y1ACzBzygQWIMYC3JJvugVoAWZOmcACxFiAW/JNtwAtwMwpE1iAGAtwS77pFqAFmDllAgsQYwFuyTfdArQAM6dMYAFiLMAt+fZXRic/gE+np8785P6oO0DxxW/oj7X4n58h1OqqAlRBGfWQz62CBbhFHXJ1R8/e96Gnzvzk/qg7QPHFbxYgxgJ8GOqQqzt69r4PPXXmJ/dH3QGKL36zADEW4MNQh1zd0bP3feipMz+5P+oOUHzxmwWIsQAfhjrk6o6eve9DT535yf1Rd4Dii98sQIwF+DDUIVd39Ox9H3rqzE/uj7oDFF/8ZgFiLMCHoQ65uqNn7/vQU2d+cn/UHaD44jcLEGMBPgx1yNUdPXvfh54685P7o+4AxRe/WYAYC/BhqEOu7ujZ+z701Jmf3B91Byi++M0CxFiAD0MdcnVHz973oafO/OT+qDtA8cVvFiDGAnwrol1zD+sEkdG587rvuB+eEV+deOhIWEFFeyjLPD1yr2ABFrEA9fO677gfnhFftQAtwC+ABaif133H/fCM+KoFaAF+ASxA/bzuO+6HZ8RXLUAL8AtgAerndd9xPzwjvmoBWoBfAAtQP6/7jvvhGfFVC9AC/AJYgPp53XfcD8+Ir1qAFuAXwALUz+u+4354RnzVArQAvwAWoH5e9x33wzPiqxagBfgFsAD187rvuB+eEV+1AB8hQB7CXWG9I9ef0XviWul0zRiDv1AU1f0CRNFXTJPfawG2cfYJPQ/XSqdrxhgWoAV4K2ef0PNwrXS6ZoxhAVqAt3L2CT0P10qna8YYFqAFeCtnn9DzcK10umaMYQFagLdy9gk9D9dKp2vGGBagBXgrZ5/Q83CtdLpmjGEBWoC3cvYJPQ/XSqdrxhgWoAV4K2ef0PNwrXS6ZoxhAVqAt3L2CT0P10qna8YYFuCQAHmo6nfqDr73fvJP4Ooj2p+s3lHJ6Fyt1O/++Bv+3f2gjHiFzs29GnNehfFbT6SVGqguCSzAIpXH0EM+qkpG52qlfmcB9tc+sAAvoYZQCbpe2hNUHkMP+agqGZ2rlfqdBdhf+8ACvIQaQiXoemlPUHkMPeSjqmR0rlbqdxZgf+0DC/ASagiVoOulPUHlMfSQj6qS0blaqd9ZgP21DyzAS6ghVIKul/YElcfQQz6qSkbnaqV+ZwH21z6wAC+hhlAJul7aE1QeQw/5qCoZnauV+p0F2F/7wAK8hBpCJeh6aU9QeQw95KOqZHSuVup3FmB/7QML8BJqCJWg66U9QeUx9JCPqpLRuVqp31mA/bUPLMBLqCFUgq6X9gSVx9BDPqpKRudqpX5nAfbXPrAA30A6E6jVyD+BPGjsePTnouqpaX5vRPA+AgwqVetBjfR+Ac5iAS6wAHd7KzXN740ILMArqJFagBbgLyzA3d5KTfN7IwIL8ApqpBagBfgLC3C3t1LT/N6IwAK8ghqpBWgB/sIC3O2t1DS/NyKwAK+gRmoBWoC/sAB3eys1ze+NCCzAK6iRWoAW4C8swN3eSk3zeyMCC/AKaqQWoAX4Cwtwt7dS0/zeiMACvIIaqQVoAf7CAtztrdQ0vzcisACvoEZqAVqAv7AAd3srNc3vjQgswCuokVqAjxUgiur+mPNPIPd0Mid338HP43XJ90PdcS6jcyerNcjTXbVZAVbeLzeXigVYpOeBVKhEpZ6s3hvk+6HuOJfRuZPVGuTprpoFeCmYCVBU98fc80AqVKJST1bvDfL9UHecy+jcyWoN8nRXzQK8FMwEKKr7Y+55IBUqUaknq/cG+X6oO85ldO5ktQZ5uqtmAV4KZgIU1f0x9zyQCpWo1JPVe4N8P9Qd5zI6d7JagzzdVbMALwUzAYrq/ph7HkiFSlTqyeq9Qb4f6o5zGZ07Wa1Bnu6qWYCXgpkARXV/zD0PpEIlKvVk9d4g3w91x7mMzp2s1iBPd9UswEvBTICiuj/mngdSoRKVerJ6b5Dvh7rjXEbnTlZrkKe7ahbgpWAmQFHdH3PPA6lQiUo9Wb03yPdD3XEuo3MnqzXI0101C/BSMBOgqO6PueeBVKhEpZ6s3hvk+6HuOJfRuZPVGuTprtq3E2A+6G56EkFMRK+ODhq2nj/qQrGoqz3wuqDv8n1TI+AVv4t8hbqpRH9OgBV6HGEBFuFjYgHi7/J9UyOwADGV6C3AN0gEMRE9HxMLEH+X75sagQWIqURvAb5BIoiJ6PmYWID4u3zf1AgsQEwlegvwDRJBTETPx8QCxN/l+6ZGYAFiKtFbgG+QCGIiej4mFiD+Lt83NQILEFOJ3gJ8g0QQE9HzMbEA8Xf5vqkRWICYSvQW4BskgpiIno+JBYi/y/dNjcACxFSitwDfIBHERPR8TCxA/F2+b2oEFiCmEr0F+AaJICai52NiAeLv8n1TI7AAMZXov7EA1WPuCp/HUtmrwse4MnY956l71dzyVDrTHQsC3ZHvOc83Pzn52e2pX/6fcZ7lOSpzFViAi70q6pOqUDlP3avmlqfSme5YEOiOfM95vvnJyc9uT/0swMUlaqHz4XdTuSOfh/qkKlTOU/equeWpdKY7FgS6I99znm9+cvKz21M/C3BxiVrofPjdVO7I56E+qQqV89S9am55Kp3pjgWB7sj3nOebn5z87PbUzwJcXKIWOh9+N5U78nmoT6pC5Tx1r5pbnkpnumNBoDvyPef55icnP7s99bMAF5eohc6H303ljnwe6pOqUDlP3avmlqfSme5YEOiOfM95vvnJyc9uT/0swMUlaqHz4XdTuSOfh/qkKlTOU/equeWpdKY7FgS6I99znm9+cvKz21M/C3BxiVrofPjdVO7I56E+qQqV89S9am55Kp3pjgWB7sj3nOebn5z87PbUzwJcXKIWOh9+N5U78nmoT6pC5Tx1r5pbnkpnumNBoDvyPef55icnP7s99bMAF5eohc6H303ljnwe6pOqUDlP3avmlqfSme5YEOiOfM95vvnJyc9uT/2+nQB7Cl0hHz4vR3dUKmhM+KpKnJLfm7+jcptaq3Nd6Ml34jZ+b/cUq5Ei7anVuJ98hSzAxB0cC9ACvFYX9F33FKuRWoDj5MPvST1/B8cCtACv1QV91z3FaqQW4Dj58HtSz9/BsQAtwGt1Qd91T7EaqQU4Tj78ntTzd3AsQAvwWl3Qd91TrEZqAY6TD78n9fwdHAvQArxWF/Rd9xSrkVqA4+TD70k9fwfHArQAr9UFfdc9xWqkFuA4+fB7Us/fwbEALcBrdUHfdU+xGqkFOE4+/J7U83dwLEAL8Fpd0HfdU6xGagGOkw+/J/X8HRwL0AK8Vhf0XfcUq5FagJfKez+VPNSM0A71SeVRlYmiz9/Ga6CegmpV6SX/To2KP2V+G+80rwH6LV+D7in+yuRrZQEmMkI7+JCrT5Q/W/4dij5/G6+BegqqVaWX/Ds1Kgvwu5CvlQWYyAjt4EOuPlH+bPl3KPr8bbwG6imoVpVe8u/UqCzA70K+VhZgIiO0gw+5+kT5s+Xfoejzt/EaqKegWlV6yb9To7IAvwv5WlmAiYzQDj7k6hPlz5Z/h6LP38ZroJ6CalXpJf9OjcoC/C7ka2UBJjJCO/iQq0+UP1v+HYo+fxuvgXoKqlWll/w7NSoL8LuQr5UFmMgI7eBDrj5R/mz5dyj6/G28BuopqFaVXvLv1KgswO9CvlYWYCIjtIMPufpE+bPl36Ho87fxGqinoFpVesm/U6OyAL8L+VpZgImM0A4+5OoT5c+Wf4eiz9/Ga6CegmpV6SX/To3KAvwu5GtlASYyQjv4kKtPlD9b/h2KPn8br4F6CqpVpZf8OzUqC/C7kK/VBQHenSQmn0c+3xjoP/4mvlOfY/7Z8meG4kOgSPle9WQeVTf5+LgA1dt4JfM15ZybZ0S+Lk9HzdwCTOQbY2wBYk51F2epxmcB7sjX5emomVuAiXxjjC1AzKnu4izV+CzAHfm6PB01cwswkW+MsQWIOdVdnKUanwW4I1+Xp6NmbgEm8o0xtgAxp7qLs1TjswB35OvydNTMLcBEvjHGFiDmVHdxlmp8FuCOfF2ejpq5BZjIN8bYAsSc6i7OUo3PAtyRr8vTUTO3ABP5xhhbgJhT3cVZqvFZgDvydXk6auYWYCLfGGMLEHOquzhLNT4LcEe+Lk9HzdwCTOQbY2wBYk51F2epxmcB7sjX5emomW8EyA+8Lz2N3BC8goY3tMcfnEpEqj4VVHv1DrSDryJ4hdBqpYNqbvy7vAB5ljxS/nrQXhRf/KZOrJobuo3HnL/jLtRaBRbgAjT4FqAFuK8afz1orwXYhVqrwAJcgAbfArQA91XjrwfttQC7UGsVWIAL0OBbgBbgvmr89aC9FmAXaq0CC3ABGnwL0ALcV42/HrTXAuxCrVVgAS5Ag28BWoD7qvHXg/ZagF2otQoswAVo8C1AC3BfNf560F4LsAu1VoEFuAANvgVoAe6rxl8P2msBdqHWKrAAF6DBtwAtwH3V+OtBey3ALtRaBRbgAjT4FqAFuK8afz1orwXYhVqroPQfReJMhH8O/qR6iFFUd0St1FVUXd4FNQLewcop+Swrt6l6RCejyeF14RGoGfVQyTxA3/HzJuCvO76zABecHb2/sAB35GuQv80CtACP0B30LGdH7y8swB35GuRvswAtwCN0Bz3L2dH7CwtwR74G+dssQAvwCN1Bz3J29P7CAtyRr0H+NgvQAjxCd9CznB29v7AAd+RrkL/NArQAj9Ad9CxnR+8vLMAd+Rrkb7MALcAjdAc9y9nR+wsLcEe+BvnbLEAL8AjdQc9ydvT+wgLcka9B/jYL0AI8QnfQs5wdvb+wAHfka5C/zQK0AI/QHfQEEUtlsP6goMwrt/Gx46v8O5QRvzcfXyWqAD1lpJV8Xfi9fIYCtPo7gNdvAhSVKsonob5zC3ARc2WILEA9vkpUgQXYhQXYRnfQE0QslSGyAPX4KlEFFmAXFmAb3UFPELFUhsgC1OOrRBVYgF1YgG10Bz1BxFIZIgtQj68SVWABdmEBttEd9AQRS2WILEA9vkpUgQXYhQXYRnfQE0QslSGyAPX4KlEFFmAXFmAb3UFPELFUhsgC1OOrRBVYgF1YgG10Bz1BxFIZIgtQj68SVWABdmEBttEd9AQRS2WILEA9vkpUgQXYhQX4rYnCqAODFKd+1z34KPr86PDz1AjUvXx4+V7UN/RbpS58Svi96t4gJoJP0yxqrZ4J74IF+EIURh0OCxBHoO7lI8v3or6h3yp14VPC71X3BhZgP7wLFuALURh1OCxAHIG6l48s34v6hn6r1IVPCb9X3RtYgP3wLliAL0Rh1OGwAHEE6l4+snwv6hv6rVIXPiX8XnVvYAH2w7tgAb4QhVGHwwLEEah7+cjyvahv6LdKXfiU8HvVvYEF2A/vggX4QhRGHQ4LEEeg7uUjy/eivqHfKnXhU8LvVfcGFmA/vAsW4AtRGHU4LEAcgbqXjyzfi/qGfqvUhU8Jv1fdG1iA/fAuWIAvRGHU4bAAcQTqXj6yfC/qG/qtUhc+JfxedW9gAfbDu2ABvhCFUYfDAsQRqHv5yPK9qG/ot0pd+JTwe9W9gQXYD++CBfhCFEYdDgsQR6Du5SPL96K+od8qdeFTwu9V9wYWYD+8C48SYE9yPRGow4HEpg5vZchRNc6NbFRIjYqvIvWrtUdRqdOUrxCPRb1X/e5J2gvUWj0TXnsLcBGBOhwWII6Kr1qAFuAUvPYW4CICdTgsQBwVX7UALcApeO0twEUE6nBYgDgqvmoBWoBT8NpbgIsI1OGwAHFUfNUCtACn4LW3ABcRqMNhAeKo+KoFaAFOwWtvAS4iUIfDAsRR8VUL0AKcgtfeAlxEoA6HBYij4qsWoAU4Ba+9BbiIQB0OCxBHxVctQAtwCl57C3ARgTocFiCOiq9agBbgFLz2jxLg/aAC8uGojCyXJz+ZNx19p57CY0aDxb/jmau3odV8L/Og29B36iqC1+B+4p+rnprOwmfDAnwBFZAPhwVoAb5Wg68ieA3uxwL8NqAC8uGwAC3A12rwVQSvwf1YgN8GVEA+HBagBfhaDb6K4DW4Hwvw24AKyIfDArQAX6vBVxG8BvdjAX4bUAH5cFiAFuBrNfgqgtfgfizAbwMqIB8OC9ACfK0GX0XwGtyPBfhtQAXkw2EBWoCv1eCrCF6D+7EAvw2ogHw4LEAL8LUafBXBa3A/FuC3ARWQD4cFaAG+VoOvIngN7scCPAAP8NxtKupwVARYuQPVj0evrqLv1FU1I7Tjd4B6SuzId1+tHz8PrfKZ5LnxGqgV6oZX8h2xABeoI2EBWoCrU/hM8twswBkswAXqSFiAFuDqFD6TPDcLcAYLcIE6EhagBbg6hc8kz80CnMECXKCOhAVoAa5O4TPJc7MAZ7AAF6gjYQFagKtT+Ezy3CzAGSzABepIWIAW4OoUPpM8NwtwBgtwgToSFqAFuDqFzyTPzQKcwQJcoI6EBWgBrk7hM8lzswBnsAAXqCNhAVqAq1P4TPLcLMAZmgQYB+Z3PInZcaqApIgUouamfqc+4PyOiPk/f6Pu4Pei3OI3VCs+2Why1LlXq8bztQC7sABfmB2nChagBWgB1rEAX5gdpwoWoAVoAdaxAF+YHacKFqAFaAHWsQBfmB2nChagBWgB1rEAX5gdpwoWoAVoAdaxAF+YHacKFqAFaAHWsQBfmB2nChagBWgB1rEAX5gdpwoWoAVoAdaxAF+YHacKFqAFaAHWaRcgQv3ufmbHqcIflP/7N/wUlHnlscbeu54ojwrFh+agMuN8bz56tPcuFVbe1jny3QoswBcmhqgHC/BKVCg+NAeVGed789GjvRbgZ/LdCizAFyaGqAcL8EpUKD40B5UZ53vz0aO9FuBn8t0KLMAXJoaoBwvwSlQoPjQHlRnne/PRo70W4Gfy3QoswBcmhqgHC/BKVCg+NAeVGed789GjvRbgZ/LdCizAFyaGqAcL8EpUKD40B5UZ53vz0aO9FuBn8t0KLMAXJoaoBwvwSlQoPjQHlRnne/PRo70W4Gfy3QoswBcmhqgHC/BKVCg+NAeVGed789GjvRbgZ/LdCizAFyaGqAcL8EpUKD40B5UZ53vz0aO9FuBn8t0KLMAXJoaoBwvwSlQoPjQHlRnne/PRo70W4Gfy3QouCPBkKnfT0/SJUVRBeozV6Cr6LT8R8/kpoMzRal6KajXQd/k8kPZma88r9I5YgC+gpvecchcWoAXYhwX4pwV47ZS7sAAtwD4swD8twGun3IUFaAH2YQH+aQFeO+UuLEALsA8L8E8L8Nopd2EBWoB9WIB/WoDXTrkLC9AC7MMC/NMCvHbKXViAFmAfFuCfFuC1U+7CArQA+7AA/7QAr51yFxagBdjHFxQgX/4e2kPkh6PnFI76lNUdAYo5/1jjtv/+DVLwBCgq9U8E46HntcerFrHEHehevjoxa5ze13YfFuCCnpHoHjv0vPkq3xGgmC1AC3BF72u7DwtwQc9IdI8det58le8IUMwWoAW4ove13YcFuKBnJLrHDj1vvsp3BChmC9ACXNH72u7DAlzQMxLdY4eeN1/lOwIUswVoAa7ofW33YQEu6BmJ7rFDz5uv8h0BitkCtABX9L62+7AAF/SMRPfYoefNV/mOAMVsAVqAK3pf231YgAt6RqJ77NDz5qt8R4BitgAtwBW9r+0+LMAFPSPRPXboefNVviNAMVuAFuCK3td2Hxbggp6R6B479Lz5Kt8RoJgtQAtwRe9ru4+NAL8Hlfbzkcif0gPXAP8NraqE9iqn5LOsnKzuRd1Csosa8P7yVVWA+X+keuAyfh8swA8LsKqGwAK0AN8LC/DDAqyqIbAALcD3wgL8sACraggsQAvwvbAAPyzAqhoCC9ACfC8swA8LsKqGwAK0AN8LC/DDAqyqIbAALcD3wgL8sACraggsQAvwvbAAPyzAqhoCC9ACfC8swA8LsKqGwAK0AN8LC/AF1Gq+ir5DO/hvaiwI/rxjUHukg4g/MPsvAN3Bf4vzVDnl68JP+c/f8B35WFB/kezQRHDpsA718zuAz/MzsQBfQK3mq+g7tIP/psaC4E/PArQAT2ABfklQq/kq+g7t4L+psSD407MALcATWIBfEtRqvoq+Qzv4b2osCP70LEAL8AQW4JcEtZqvou/QDv6bGguCPz0L0AI8gQX4JUGt5qvoO7SD/6bGguBPzwK0AE9gAX5JUKv5KvoO7eC/qbEg+NOzAC3AE1iAXxLUar6KvkM7+G9qLAj+9CxAC/AEFuCXBLWar6Lv0A7+mxoLgj89C9ACPIEF+CVBrear6Du0g/+mxoLgT88CtABPYAF+SfKDoJ53Lhb+HNHjQiErYoYAACAASURBVGPMT+a/oSx5fOp56inoO5Qb2otiDgXzLOMP0dApSBL8Xn7bMwWYn+wnYQG+kB8E9bxzsViA+DsL8CQW4JckPwjqeedisQDxdxbgSSzAL0l+ENTzzsViAeLvLMCTWIBfkvwgqOedi8UCxN9ZgCexAL8k+UFQzzsXiwWIv7MAT2IBfknyg6Cedy4WCxB/ZwGexAL8kuQHQT3vXCwWIP7OAjyJBfglyQ+Cet65WCxA/J0FeBIL8EuSHwT1vHOxWID4OwvwJBbgOGic+Hf5O9T2V3PpjCXgguGy67kNUckofx6KCmXO9YjEhn7jfYvzKjVA/9mjOK+7qyoW4DgW4A4L0AKcwgIcxwLcYQFagFNYgONYgDssQAtwCgtwHAtwhwVoAU5hAY5jAe6wAC3AKSzAcSzAHRagBTiFBTiOBbjDArQAp7AAx7EAd1iAFuAUFuA4FuAOC9ACnMICHEcVINqRvw0Nm/qbep66Iw865Q8K/44/Af4IIxb0lNG9+XzVSHkE8Z9C4soMUK3iz+giczUCdO/EvORBb0uN+X55RhcswAWomepv6nnqjjzoFAvQAuzDAhzHAtRBp1iAFmAfFuA4FqAOOsUCtAD7sADHsQB10CkWoAXYhwU4jgWog06xAC3APizAcSxAHXSKBWgB9mEBjmMB6qBTLEALsA8LcBwLUAedYgFagH1YgONYgDroFAvQAuzDAhxHFSD6Tt0b5EdCPSX/XT4W/uDQs/0vQFWmGjN63hP8CUDzgvbyGvC6qHeoc5CPfoK8zu4XYGABLsgPgnpK/rt8LBbgZyzAk1iAQ1iAOhbgZyzAk1iAQ1iAOhbgZyzAk1iAQ1iAOhbgZyzAk1iAQ1iAOhbgZyzAk1iAQ1iAOhbgZyzAk1iAQ1iAOhbgZyzAk1iAQ1iAOhbgZyzAk1iAQ1iAOhbgZyzAk1iAl6iU7UkCzJ/Sc68aVfyGVBjkHxJ//HEbOjl+40LNE+eh6iIVor3oZN43dAc/WZ0DdN65ycnDJwe9PPSdWt1uLMAFavvzp/Tcq0YVv1mAFuAJLMBLWIC1e9Wo4jcL0AI8gQV4CQuwdq8aVfxmAVqAJ7AAL2EB1u5Vo4rfLEAL8AQW4CUswNq9alTxmwVoAZ7AAryEBVi7V40qfrMALcATWICXsABr96pRxW8WoAV4AgvwEhZg7V41qvjNArQAT2ABXsICrN2rRhW/WYAW4AkswEuoqedFyYuPzkOxcF2o0ffsQBmpzwyNXexFESBJIPK1Qnv5Dl4D/l2lumhK0CqvUPQDraI80MmozvnczqH2g8NfxTkswEUs6qNWY6nsQBmh+CzAz1SqawHqWICXUFO3AD9jAVqAq77lK9mDBXgJNXUL8DMWoAW46lu+kj1YgJdQU7cAP2MBWoCrvuUr2YMFeAk1dQvwMxagBbjqW76SPViAl1BTtwA/YwFagKu+5SvZgwV4CTV1C/AzFqAFuOpbvpI9WICXUFO3AD9jAVqAq77lK9mDBXgJNXUL8DMWoAW46lu+kj1YgJdABUTf5QXItZc/D8WsNk5tes/AoKen7uCr/DlysaFYOOhJxR18B/8OxcKjVyNFe+M3/h3agb7jXVBjfiYo8wkswEsxq41Tm94zMBagBfiuoMwnsAAvxaw2Tm16z8BYgBbgu4Iyn8ACvBSz2ji16T0DYwFagO8KynwCC/BSzGrj1Kb3DIwFaAG+KyjzCSzASzGrjVOb3jMwFqAF+K6gzCewAC/FrDZObXrPwFiAFuC7gjKfwAK8FLPaOLXpPQNjAVqA7wrKfAIL8FLMauPUpvcMjAVoAb4rKPMJLMBLMauNU5veMzAWoAX4rqDMJ2gSIGowV42auqpH9GgCvqpm2d2u3hH6/EC4ClXB8MzRKTxLVcv8nyt0L+8vvxftUMXGs0TC4lXjMn4fAaIO8reKajqBBZgofne7eoYtsAAtwGeAOsjfKqrpBBZgovjd7eoZtsACtACfAeogf6uophNYgInid7erZ9gCC9ACfAaog/ytoppOYAEmit/drp5hCyxAC/AZoA7yt4pqOoEFmCh+d7t6hi2wAC3AZ4A6yN8qqukEFmCi+N3t6hm2wAK0AJ8B6iB/q6imE1iAieJ3t6tn2AIL0AJ8BqiD/K2imk5gASaK392unmELLEAL8BmgDvK3imo6gQWYKH53u3qGLbAALcBngDrI3yqq6QTtfwrHhxeViO9F36EdqA357wI+iug7tIPDY6msTjwLPtD8O76DnxK/IbFV7kVVU/8Bie/4bOTnJe7IT9MslU6rb0YFRYVuswAXxbcAd6hDXnkW6JT4zQLcTdMslU6rb0YFRYVuswAXxbcAd6hDXnkW6JT4zQLcTdMslU6rb0YFRYVuswAXxbcAd6hDXnkW6JT4zQLcTdMslU6rb0YFRYVuswAXxbcAd6hDXnkW6JT4zQLcTdMslU6rb0YFRYVuswAXxbcAd6hDXnkW6JT4zQLcTdMslU6rb0YFRYVuswAXxbcAd6hDXnkW6JT4zQLcTdMslU6rb0YFRYVuswAXxbcAd6hDXnkW6JT4zQLcTdMslU6rb0YFRYVuswAXxbcAd6hDXnkW6JT4zQLcTdMslU6rb0YFRYVuswAXxbcAd6hDXnkW6JT4zQLcTdMslU6rb0YFRYVua/9TuEANK3+Kuhd9xyPoQW1rfsT4Xv7M4jsujj8AUSu0imqKvkM7eCxqrfhtPCMey3/+ht/2f/9G1Z4qwIDv4BWaRX2DgVoDjhpf7LAAF3dUUNuaHyy+1wLUiUh5LBbgFdQ3GKg14KjxxQ4LcHFHBbWt+cHiey1AnYiUx2IBXkF9g4FaA44aX+ywABd3VFDbmh8svtcC1IlIeSwW4BXUNxioNeCo8cUOC3BxRwW1rfnB4nstQJ2IlMdiAV5BfYOBWgOOGl/ssAAXd1RQ25ofLL7XAtSJSHksFuAV1DcYqDXgqPHFDgtwcUcFta35weJ7LUCdiJTHYgFeQX2DgVoDjhpf7LAAF3dUUNuaHyy+1wLUiUh5LBbgFdQ3GKg14KjxxQ4LcHFHBbWt+cHiey1AnYiUx2IBXkF9g4FaA44aX+ywABd3VFDbmh8svtcC1IlIeSwW4BXUNxioNeCo8cWOjQDzSlLlpJ6inqfu6C55Nz3DpqowQI8/dqCa5iNVVYjuje8iAp5RN2p1UVQVAfJ7UYXuB80Lz23ipaD4LMCHUWlmoD7MwALcoVYXRcW/4xPB70UVuh80Lzy3iZeC4rMAH0almYH6MAMLcIdaXRQV/45PBL8XVeh+0Lzw3CZeCorPAnwYlWYG6sMMLMAdanVRVPw7PhH8XlSh+0HzwnObeCkoPgvwYVSaGagPM7AAd6jVRVHx7/hE8HtRhe4HzQvPbeKloPgswIdRaWagPszAAtyhVhdFxb/jE8HvRRW6HzQvPLeJl4LiswAfRqWZgfowAwtwh1pdFBX/jk8EvxdV6H7QvPDcJl4Kis8CfBiVZgbqwwwswB1qdVFU/Ds+EfxeVKH7QfPCc5t4KSg+C/BhVJoZqA8zsAB3qNVFUfHv+ETwe1GF7gfNC89t4qWg+CzAh1FpZqA+zMAC3KFWF0XFv+MTwe9FFbofNC88t4mXguK7TYCocep3PCUeQb5JnPxAI3qayWtQeYQBvyOiQrLjAuR5oCePoq/cyyuUJ+6o1D5O6Z6cc+SnSd2BMkevW43PAlxkpJIfaITaODVzlFvlEQb8jojKArQAM9Ok7kCZo9etxmcBLjJSyQ80Qm2cmjnKrfIIA35HRGUBWoCZaVJ3oMzR61bjswAXGankBxqhNk7NHOVWeYQBvyOisgAtwMw0qTtQ5uh1q/FZgIuMVPIDjVAbp2aOcqs8woDfEVFZgBZgZprUHShz9LrV+CzARUYq+YFGqI1TM0e5VR5hwO+IqCxACzAzTeoOlDl63Wp8FuAiI5X8QCPUxqmZo9wqjzDgd0RUFqAFmJkmdQfKHL1uNT4LcJGRSn6gEWrj1MxRbpVHGPA7IioL0ALMTJO6A2WOXrcanwW4yEglP9AItXFq5ii3yiMM+B0RlQVoAWamSd2BMkevW43PAlxkpJIfaITaODVzlFvlEQb8jojKArQAM9Ok7kCZo9etxgcFqIbFR5ajhlrZgfai3/LF73kgqJkoKp5vJT50BzqlO3OE2t9gIhb0FvheVFN1R37+1CnpRn3n+dzymfN7UfSxagH+sABf70CndGeOUPsbTMSC3gLfi2qq7sjPnzol3ajvPJ9bPnN+L4o+Vi3AHxbg6x3olO7MEWp/g4lY0Fvge1FN1R35+VOnpBv1nedzy2fO70XRx6oF+MMCfL0DndKdOULtbzARC3oLfC+qqbojP3/qlHSjvvN8bvnM+b0o+li1AH9YgK93oFO6M0eo/Q0mYkFvge9FNVV35OdPnZJu1Heezy2fOb8XRR+rFuAPC/D1DnRKd+YItb/BRCzoLfC9qKbqjvz8qVPSjfrO87nlM+f3ouhj1QL8YQG+3oFO6c4cofY3mIgFvQW+F9VU3ZGfP3VKulHfeT63fOb8XhR9rFqAPyzA1zvQKd2ZI9T+BhOxoLfA96Kaqjvy86dOSTfqO8/nls+c34uij1UL8IcF+HoHOqU7c4Ta32AiFvQW+F5UU3VHfv7UKelGfef53PKZ83tR9LFqAf6wAF/vQKd0Z45Q+xtMxILeAt+LaqruyM+fOiXdqO88n1s+c34vij5WDwowX0C1vPkm8e8qbaig3pavJB8J9Q4ec76mcUq+l5XM0b1qDVD0PZXMz0EetUKV2vN+dGeEqoZiQXvRqgW4KJbahgrqbflKIvJ38JjzNY1T8r2sZI7uVWuAou+pZH4O8qgVqtSe96M7I1Q1FAvai1YtwEWx1DZUUG/LVxKRv4PHnK9pnJLvZSVzdK9aAxR9TyXzc5BHrVCl9rwf3RmhqqFY0F60agEuiqW2oYJ6W76SiPwdPOZ8TeOUfC8rmaN71Rqg6HsqmZ+DPGqFKrXn/ejOCFUNxYL2olULcFEstQ0V1NvylUTk7+Ax52sap+R7Wckc3avWAEXfU8n8HORRK1SpPe9Hd0aoaigWtBetWoCLYqltqKDelq8kIn8Hjzlf0zgl38tK5uhetQYo+p5K5ucgj1qhSu15P7ozQlVDsaC9aNUCXBRLbUMF9bZ8JRH5O3jM+ZrGKfleVjJH96o1QNH3VDI/B3nUClVqz/vRnRGqGooF7UWrFuCiWGobKqi35SuJyN/BY87XNE7J97KSObpXrQGKvqeS+TnIo1aoUnvej+6MUNVQLGgvWrUAF8VS21BBvS1fSUT+Dh5zvqZxSr6XlczRvWoNUPQ9lczPQR61QpXa8350Z4SqhmJBe9GqBbgoltqGCupt+Uoi8nfwmPM1jVPyvaxkju5Va4Ci76lkfg7yqBWq1J73ozsjVDUUC9qLVjf/USTOufLOks/8iu6yTyBWu/Pl3UL95afwieiOPvjP36i5qZlH7fkO1EEUab77+UlE91aqUaGSUUTP81VrH1Ghky3AHxbganh5B/mOie5bgBbgvvYRFTrZAvxhAa6Gl3eQ75jovgVoAe5rH1Ghky3AHxbganh5B/mOie5bgBbgvvYRFTrZAvxhAa6Gl3eQ75jovgVoAe5rH1Ghky3AHxbganh5B/mOie5bgBbgvvYRFTrZAvxhAa6Gl3eQ75jovgVoAe5rH1Ghky3AHxbganh5B/mOie5bgBbgvvYRFTrZAvxhAa6Gl3eQ75jovgVoAe5rH1Ghky3AHxbganh5B/mOie5bgBbgvvYRFTp5RIAohCfBs7witCz83nOZ58eYr56LtCcjFT7j/DYUFZ+m3TvTpjO/t7tWs6DM1SmJHRbgDwswM9p89VykPRmp8Bnnt6Go+DTt3pk2nfm93bWaBWWuTknssAB/WICZ0ear5yLtyUiFzzi/DUXFp2n3zrTpzO/trtUsKHN1SmKHBfjDAsyMNl89F2lPRip8xvltKCo+Tbt3pk1nfm93rWZBmatTEjsswB8WYGa0+eq5SHsyUuEzzm9DUfFp2r0zbTrze7trNQvKXJ2S2GEB/rAAM6PNV89F2pORCp9xfhuKik/T7p1p05nf212rWVDm6pTEDgvwhwWYGW2+ei7SnoxU+Izz21BUfJp270ybzvze7lrNgjJXpyR2WIA/LMDMaPPVc5H2ZKTCZ5zfhqLi07R7Z9p05vd212oWlLk6JbHDAvxhAWZGm6+ei7QnIxU+4/w2FBWfpt0706Yzv7e7VrOgzNUpiR0W4A8LMDPafPVcpD0ZqfAZ57ehqPg07d6ZNp35vd21mgVlrk5J7PgkQJ6SusqpD/gJKsXvFiDSXr7BefKDfy6Wc8Qfz/Hc0B/ZIdALiNX4Ld99NHXoXr5DhVejcvI5UOao9jwjC/CHBfgTtYNP7yXHAsTwalROPgfKHNWeZ2QB/rAAf6J28Om95FiAGF6NysnnQJmj2vOMLMAfFuBP1A4+vZccCxDDq1E5+Rwoc1R7npEF+MMC/Inawaf3kmMBYng1KiefA2WOas8zsgB/WIA/UTv49F5yLEAMr0bl5HOgzFHteUYW4A8L8CdqB5/eS44FiOHVqJx8DpQ5qj3PyAL8YQH+RO3g03vJsQAxvBqVk8+BMke15xlZgD8swJ+oHXx6LzkWIIZXo3LyOVDmqPY8IwvwhwX4E7WDT+8lxwLE8GpUTj4HyhzVnmd0QYA99A52F2rJu0F3RFToN/ME+DxXJgfNHz+Zz+7XA1UNOYx3xgJ8IV/yHtAdERX6zTwBC/A+UNUswCL5kveA7oio0G/mCViA94GqZgEWyZe8B3RHRIV+M0/AArwPVDULsEi+5D2gOyIq9Jt5AhbgfaCqWYBF8iXvAd0RUaHfzBOwAO8DVc0CLJIveQ/ojogK/WaegAV4H6hqFmCRfMl7QHdEVOg38wQswPtAVbMAi+RL3gO6I6JCv5knYAHeB6qaBVgkX/Ie0B0RFfrNPAEL8D5Q1UoCVHkf7an39hT/HCiCmQoaBPqDOvTdxBzw1fcG6SzgFVL/abIAf1iAJocFOIMFWMQCNCewAGewAItYgOYEFuAMFmARC9CcwAKcwQIsYgGaE1iAM1iARSxAcwILcAYLsIgFaE5gAc5gARaxAM0JLMAZLMAiFqA5gQU4w+MFmN87wbn4ugdaBcVy9okbhvpP+7nuo5nMz3Pl/8qoJ+ejUk/htUKdQedZgAl6BjoPimXqsZt/YwFagBbgICiWqcdu/o0FaAFagIOgWKYeu/k3FqAFaAEOgmKZeuzm31iAFqAFOAiKZeqxm39jAVqAFuAgKJapx27+jQVoAVqAg6BYph67+TcWoAVoAQ6CYpl67ObfWIAWoAU4CIpl6rGbf2MBfmsBPpNZLfeMtjr46Lepx27+DddecG4i4g51YiuyywtwAl4h3qP4zgK8RPdo82byJ2CmsQAtwMdhAZopLEAL8HFYgGYKC9ACfBwWoJnCArQAH4cFaKawAC3Ax2EBmiksQAvwcViAZgoL0AJ8HBagmcICtAAfhwVoprAALcBvRPcYq0QE+adnToK6gNRwbg6C/DzfP0N5jfIdqFY831i1ALf0jHHP4N8/vMYCrGIBvhU9Y9wz+PcPr7EAq1iAb0XPGPcM/v3DayzAKhbgW9Ezxj2Df//wGguwigX4VvSMcc/g3z+8xgKsYgG+FT1j3DP49w+vsQCrWIBvRc8Y9wz+/cNrLMAqFuBb0TPGPYN///AaC7CKBfhW9Ixxz+DfP7zGAqzyKAGqxef0tLonlm4mcuOg0ZkfW/P/4QKcmANEfsdd5AUYe/kLRasWYJGJ3DhodObG1fwTC7CGBXgJNZZuJnLjoNGZG1fzTyzAGhbgJdRYupnIjYNGZ25czT+xAGtYgJdQY+lmIjcOGp25cTX/xAKsYQFeQo2lm4ncOGh05sbV/BMLsIYFeAk1lm4mcuOg0ZkbV/NPLMAaFuAl1Fi6mciNg0ZnblzNP7EAa1iAl1Bj6WYiNw4anblxNf/EAqxhAV5CjaWbidw4aHTmxtX8EwuwxhcU4HvD8+0Y3RrzI2oY/El1dz8/zyiq+SopRHx5KaKKo9XfAbFqAX5YgCaHBdhFxGcB3gjPt3ug89w9puYVC7CLiM8CvBGeb/dA57l7TM0rFmAXEZ8FeCM83+6BznP3mJpXLMAuIj4L8EZ4vt0DnefuMTWvWIBdRHwW4I3wfLsHOs/dY2pesQC7iPgswBvh+XYPdJ67x9S8YgF2EfFZgDfC8+0e6Dx3j6l5xQLsIuKzAG+E59s90HnuHlPzigXYRcRnAd4Iyrd7jPNELGh00CM000QXJuaATyx63uo0nasL/67rBWt1QViAHxaguYoFuKsL/67rBWt1sQAXoHx7hrdCxFIZMXMSC3BXF/5d1wvW6mIBLkD59gxvhYilMmLmJBbgri78u64XrNXFAlyA8u0Z3goRS2XEzEkswF1d+HddL1iriwW4AOXbM7wVIpbKiJmTWIC7uvDvul6wVhcLcAHKt2d4K0QslREzJ7EAd3Xh33W9YK0uFuAClG/P8FaIWCojZk5iAe7qwr/resFaXSzABSjfnuGtELFURsycxALc1YV/1/WCtbpYgAtQvj3DWyFiqYyYOYkFuKsL/67rBWt1uSBA3oavwmwN8nfwEUOcGOrvDq+4OkMV+FxFpGhH/HZfBf8NknY36N5YtQA/LECjYAH2YwE+gtka5O/go2MBzmAB9mMBPoLZGuTv4KNjAc5gAfZjAT6C2Rrk7+CjYwHOYAH2YwE+gtka5O/go2MBzmAB9mMBPoLZGuTv4KNjAc5gAfZjAT6C2Rrk7+CjYwHOYAH2YwE+gtka5O/go2MBzmAB9mMBPoLZGuTv4KNjAc5gAfbzRgJU2/D16MmcD2X+DgtwmvsFiKYExYJW47e764ipvC0Ov80C3NKTOTqlUl0LcBoL8CSVt8Xht1mAW3oyR6dUqmsBTmMBnqTytjj8NgtwS0/m6JRKdS3AaSzAk1TeFoffZgFu6ckcnVKprgU4jQV4ksrb4vDbLMAtPZmjUyrVtQCnsQBPUnlbHH6bBbilJ3N0SqW6FuA0FuBJKm+Lw2+zALf0ZI5OqVTXApzGAjxJ5W1x+G0W4JaezNEplepagNNYgCepvC0Ov80C3NKTOTqlUl0LcBoL8CSVt8Xht/0W/5M/wvwTvQvUdI6aeU8NKudFC99RgN3x/QfQczK6g6umR2wqca867ZER+u1+8q+WE7VCt8V3FuCHBTiFBdhF3GsBYqJW6Lb4zgL8sACnsAC7iHstQEzUCt0W31mAHxbgFBZgF3GvBYiJWqHb4jsL8MMCnMIC7CLutQAxUSt0W3xnAX5YgFNYgF3EvRYgJmqFbovvLMAPC3AKC7CLuNcCxESt0G3xnQX4YQFOYQF2EfdagJioFbotvrMAPyzAKSzALuJeCxATtUK3xXcW4IcFOIUF2EXcawFiolbotvjut3xYPQ8u/4Dz9/JWo2LxUvLv1Iao9yJQ5j39mCUyz8c8my+fUz4ls6iTEzvOVU2tafyWfU87eJbxnQX4YQHOE5nnY57Nl88pn5JZ1MmJHeeqptY0fsu+px08y/jOAvywAOeJzPMxz+bL55RPySzq5MSOc1VTaxq/Zd/TDp5lfGcBfliA80Tm+Zhn8+VzyqdkFnVyYse5qqk1jd+y72kHzzK+swA/LMB5IvN8zLP58jnlUzKLOjmx41zV1JrGb9n3tINnGd9ZgB8W4DyReT7m2Xz5nPIpmUWdnNhxrmpqTeO37HvawbOM7yzADwtwnsg8H/NsvnxO+ZTMok5O7DhXNbWm8Vv2Pe3gWcZ3FuCHBThPZJ6PeTZfPqd8SmZRJyd2nKuaWtP4LfuedvAs4zsL8MMCnCcyz8c8my+fUz4ls6iTEzvOVU2tafyWfU87eJbxnQX4YQHOE5nnY57Nl88pn5JZ1MmJHeeqptY0fsu+px08y/juNz5O3SPGx0kd7fwOhFrA/LCdOxk9vZ5q3E/80RnK7dwfu3F4da/rqp+oWkSPZmi2fiposnvgt1mAC9Rhy1M5GY1JTzXuxwKsEVWL6NEMzdZPBU12D/w2C3CBOmx5KiejMempxv1YgDWiahE9mqHZ+qmgye6B32YBLlCHLU/lZDQmPdW4HwuwRlQtokczNFs/FTTZPfDbLMAF6rDlqZyMxqSnGvdjAdaIqkX0aIZm66eCJrsHfpsFuEAdtjyVk9GY9FTjfizAGlG1iB7N0Gz9VNBk98BvswAXqMOWp3IyGpOeatyPBVgjqhbRoxmarZ8Kmuwe+G0W4AJ12PJUTkZj0lON+7EAa0TVIno0Q7P1U0GT3QO/zQJcoA5bnsrJaEx6qnE/FmCNqFpEj2Zotn4qaLJ74LdZgAvUYctTORmNSU817scCrBFVi+jRDM3WTwVNdg/8tt/QFt70c4+rcm8+Pl42ddjQDv6begfPEjV4tltfGVQ1VPvruuoCxRIx8xlHM3QXqOJq9JXcLMAF6tihHfw39Q6eJWrwbLe+MqhqqPZ5YXWDYomY+YyjGboLVHE1+kpuFuACdezQDv6begfPEjV4tltfGVQ1VPu8sLpBsUTMfMbRDN0FqrgafSU3C3CBOnZoB/9NvYNniRo8262vDKoaqn1eWN2gWCJmPuNohu4CVVyNvpKbBbhAHTu0g/+m3sGzRA2e7dZXBlUN1T4vrG5QLBEzn3E0Q3eBKq5GX8nNAlygjh3awX9T7+BZogbPdusrg6qGap8XVjcoloiZzziaobtAFVejr+RmAS5Qxw7t4L+pd/AsUYNnu/WVQVVDtc8LqxsUS8TMZxzN0F2giqvRV3KzABeoY4d28N/UO3iWqMGz3frKoKqh2ueF1Q2KJWLmM45m6C5QxdXoK7lZgAvUsUM7+G/qHTxL1ODZbn1lUNVQ7fPC6gbFEjHzGUczdBeo4mr0ldwswAXqlXwHHQAAIABJREFU2KEd/Df1Dp4lavBst74yqGqo9nlhdYNiiZj5jKMZugtUcTX6Sm6PFyBf5d/x23jZ1LFDO/Ln8Tt49PkKGYw69/ledsPfamSEdqDJ4bM2C3+XedAdUSsLcIE6gGhH/jx+B48+XyGDUec+38tu+FuNjNAONDl81mbh7zIPuiNqZQEuUAcQ7cifx+/g0ecrZDDq3Od72Q1/q5ER2oEmh8/aLPxd5kF3RK0swAXqAKId+fP4HTz6fIUMRp37fC+74W81MkI70OTwWZuFv8s86I6olQW4QB1AtCN/Hr+DR5+vkMGoc5/vZTf8rUZGaAeaHD5rs/B3mQfdEbWyABeoA4h25M/jd/Do8xUyGHXu873shr/VyAjtQJPDZ20W/i7zoDuiVhbgAnUA0Y78efwOHn2+Qgajzn2+l93wtxoZoR1ocviszcLfZR50R9TKAlygDiDakT+P38Gjz1fIYNS5z/eyG/5WIyO0A00On7VZ+LvMg+6IWlmAC9QBRDvy5/E7ePT5ChmMOvf5XnbD32pkhHagyeGzNgt/l3nQHVErC3CBOoBoR/48fgePPl8hg1HnPt/LbvhbjYzQDjQ5fNZm4e8yD7ojagX/o0gV+HX5cuRvU+FlUwcQ7cifx++oVKinVl8ZtX6VXvbAJxZ1mu9AGd3Xh2zMKvwOC3A7Euooqqv5ca9UqKdWXxm1fpVe9sAnFnWa70AZ3deHbMwq/A4LcDsS6iiqq/lxr1Sop1ZfGbV+lV72wCcWdZrvQBnd14dszCr8DgtwOxLqKKqr+XGvVKinVl8ZtX6VXvbAJxZ1mu9AGd3Xh2zMKvwOC3A7Euooqqv5ca9UqKdWXxm1fpVe9sAnFnWa70AZ3deHbMwq/A4LcDsS6iiqq/lxr1Sop1ZfGbV+lV72wCcWdZrvQBnd14dszCr8DgtwOxLqKKqr+XGvVKinVl8ZtX6VXvbAJxZ1mu9AGd3Xh2zMKvwOC3A7Euooqqv5ca9UqKdWXxm1fpVe9sAnFnWa70AZ3deHbMwq/A4LcDsS6iiqq/lxr1Sop1ZfGbV+lV72wCcWdZrvQBnd14dszCr8DgtwOxLqKKqr+XGvVKinVl8ZtX6VXvbAJxZ1mu9AGd3Xh2zMKvyOJgGeK8e5O9SR4KOoDmrPuPMK3dWjZ/Kfv+HfqfXLd7AbdWL5d5yZ3jAq0asZxaoFuEAdRXVQe8adV+iuHj0TC/AKM71hVKJXM4pVC3CBOorqoPaMO6/QXT16JhbgFWZ6w6hEr2YUqxbgAnUU1UHtGXdeobt69EwswCvM9IZRiV7NKFYtwAXqKKqD2jPuvEJ39eiZWIBXmOkNoxK9mlGsWoAL1FFUB7Vn3HmF7urRM7EArzDTG0YlejWjWLUAF6ijqA5qz7jzCt3Vo2diAV5hpjeMSvRqRrFqAS5QR1Ed1J5x5xW6q0fPxAK8wkxvGJXo1Yxi1QJcoI6iOqg9484rdFePnokFeIWZ3jAq0asZxaoFuEAdRXVQe8adV+iuHj0TC/AKM71hVKJXM4rV9j+FQ6AQ1O/QjnqRX4uAmBjjyrgHURf0W3fVekBRnZs1NRbExESo8Oetzgs/7/55UfNQ4XdYgAsmxjg/7oioC/qtu2o9oKjOzZoaC2JiIlT481bnhZ93/7yoeajwOyzABRNjnB93RNQF/dZdtR5QVOdmTY0FMTERKvx5q/PCz7t/XtQ8VPgdFuCCiTHOjzsi6oJ+665aDyiqc7OmxoKYmAgV/rzVeeHn3T8vah4q/A4LcMHEGOfHHRF1Qb91V60HFNW5WVNjQUxMhAp/3uq88PPunxc1DxV+hwW4YGKM8+OOiLqg37qr1gOK6tysqbEgJiZChT9vdV74effPi5qHCr/DAlwwMcb5cUdEXdBv3VXrAUV1btbUWBATE6HCn7c6L/y8++dFzUOF32EBLpgY4/y4I6Iu6LfuqvWAojo3a2osiImJUOHPW50Xft7986LmocLvsAAXTIxxftwRURf0W3fVekBRnZs1NRbExESo8Oetzgs/7/55UfNQ4XdYgAsmxjg/7oioC/qtu2o9oKjOzZoaC2JiIlT481bnhZ93/7yoeajwO36LH3sGkA8Rv+10aV/vVQvIByb/HdqhjnusRh7ot9jBO9NTSR59/ryeqNTz+MRmBNUJqh+fNfQbzwidPPsaEerrUeF3WIBb0GBVvkM7+BNAOyIP9Fvs4J3pqaT6gNXzeqJSz+MTy3t0DlQ/PmvoN54ROnn2NSLU16PC77AAt6DBqnyHdvAngHZEHui32ME701NJ9QGr5/VEpZ7HJ5b36ByofnzW0G88I3Ty7GtEqK9Hhd9hAW5Bg1X5Du3gTwDtiDzQb7GDd6ankuoDVs/riUo9j08s79E5UP34rKHfeEbo5NnXiFBfjwq/wwLcggar8h3awZ8A2hF5oN9iB+9MTyXVB6ye1xOVeh6fWN6jc6D68VlDv/GM0MmzrxGhvh4VfocFuAUNVuU7tIM/AbQj8kC/xQ7emZ5Kqg9YPa8nKvU8PrG8R+dA9eOzhn7jGaGTZ18jQn09KvwOC3ALGqzKd2gHfwJoR+SBfosdvDM9lVQfsHpeT1TqeXxieY/OgerHZw39xjNCJ8++RoT6elT4HRbgFjRYle/QDv4E0I7IA/0WO3hneiqpPmD1vJ6o1PP4xPIenQPVj88a+o1nhE6efY0I9fWo8DsswC1osCrfoR38CaAdkQf6LXbwzvRUUn3A6nk9Uann8YnlPToHqh+fNfQbzwidPPsaEerrUeF3WIBb0GBVvkM7+BNAOyIP9Fvs4J3pqaT6gNXzeqJSz+MTy3t0DlQ/PmvoN54ROnn2NSLU16PC72gSoJrcM8uLvjs30PkdaIzReXwQKn37yqC6dHef91edSTUPfnJEEHvRlKCT69Xeo1ZIBd0RGVmAixKdG/f8Dj7a6sBU+vaVQXXp7j7vrzqTah785Igg9qIpQSfXq71HrZAKuiMysgAXJTo37vkdfLTVgan07SuD6tLdfd5fdSbVPPjJEUHsRVOCTq5Xe49aIRV0R2RkAS5KdG7c8zv4aKsDU+nbVwbVpbv7vL/qTKp58JMjgtiLpgSdXK/2HrVCKuiOyMgCXJTo3Ljnd/DRVgem0revDKpLd/d5f9WZVPPgJ0cEsRdNCTq5Xu09aoVU0B2RkQW4KNG5cc/v4KOtDkylb18ZVJfu7vP+qjOp5sFPjghiL5oSdHK92nvUCqmgOyIjC3BRonPjnt/BR1sdmErfvjKoLt3d5/1VZ1LNg58cEcReNCXo5Hq196gVUkF3REYW4KJE58Y9v4OPtjowlb59ZVBdurvP+6vOpJoHPzkiiL1oStDJ9WrvUSukgu6IjCzARYnOjXt+Bx9tdWAqffvKoLp0d5/3V51JNQ9+ckQQe9GUoJPr1d6jVkgF3REZWYCLEp0b9/wOPtrqwFT69pVBdenuPu+vOpNqHvzkiCD2oilBJ9ervUetkAq6IzIaFuD9qGU7N+T5vfyJopN5bnf1rXIvqsH/+Zv//E3l5J6e51GfbaB2GvVc3ZuvZA9qRirojqiGBbjg3Gjn96KKo+/U0b6rb5V7UQ0sQAtwD7ojqmEBLjg32vm9qOLoO3W07+pb5V5UAwvQAtyD7ohqWIALzo12fi+qOPpOHe27+la5F9XAArQA96A7ohoW4IJzo53fiyqOvlNH+66+Ve5FNbAALcA96I6ohgW44Nxo5/eiiqPv1NG+q2+Ve1ENLEALcA+6I6phAS44N9r5vaji6Dt1tO/qW+VeVAML0ALcg+6IaliAC86Ndn4vqjj6Th3tu/pWuRfVwAK0APegO6IaFuCCc6Od34sqjr5TR/uuvlXuRTWwAC3APeiOqIYFuODcaOf3ooqj79TRvqtvlXtRDSxAC3APuiOq8ds14f2FejHaO1XOfxLxqaN4bsjzOyIP9B3/Da1OdIbPS6WS+ZhRLPkIeuB9UzNCp/Cuqveibk28X9UvHPUOC3AxlPy7yrirJ/Oaou/4b2h1ojN8XiqVzMeMYslH0APvm5oROoV3Vb0XdWvi/ap+4ah3WICLoeTfVcZdPZnXFH3Hf0OrE53h81KpZD5mFEs+gh5439SM0Cm8q+q9qFsT71f1C0e9wwJcDCX/rjLu6sm8pug7/htanegMn5dKJfMxo1jyEfTA+6ZmhE7hXVXvRd2aeL+qXzjqHRbgYij5d5VxV0/mNUXf8d/Q6kRn+LxUKpmPGcWSj6AH3jc1I3QK76p6L+rWxPtV/cJR77AAF0PJv6uMu3oyryn6jv+GVic6w+elUsl8zCiWfAQ98L6pGaFTeFfVe1G3Jt6v6heOeocFuBhK/l1l3NWTeU3Rd/w3tDrRGT4vlUrmY0ax5CPogfdNzQidwruq3ou6NfF+Vb9w1DsswMVQ8u8q466ezGuKvuO/odWJzvB5qVQyHzOKJR9BD7xvakboFN5V9V7UrYn3q/qFo95hAS6Gkn9XGXf1ZF5T9B3/Da1OdIbPS6WS+ZhRLPkIeuB9UzNCp/Cuqveibk28X9UvHPUOC3AxlPy7yrirJ/Oaou/4b2h1ojN8XiqVzMeMYslH0APvm5oROoV3Vb0XdWvi/ap+4ah3tAuQl+hcAXmk8R1vP+LcuHNQbvlT+A7Ut0qP4k/SeD/U6NWY1dno7mol+oiPr3LUN5ife7RXjaoCmheUG4+ez0Z8ZwFuB6F78NUdKLf8KXwH6lulRxagHn3Ex1c56hvMzz3aq0ZVAc0Lyo1Hz2cjvrMAt4PQPfjqDpRb/hS+A/Wt0iMLUI8+4uOrHPUN5uce7VWjqoDmBeXGo+ezEd9ZgNtB6B58dQfKLX8K34H6VumRBahHH/HxVY76BvNzj/aqUVVA84Jy49Hz2YjvLMDtIHQPvroD5ZY/he9Afav0yALUo4/4+CpHfYP5uUd71agqoHlBufHo+WzEdxbgdhC6B1/dgXLLn8J3oL5VemQB6tFHfHyVo77B/NyjvWpUFdC8oNx49Hw24jsLcDsI3YOv7kC55U/hO1DfKj2yAPXoIz6+ylHfYH7u0V41qgpoXlBuPHo+G/GdBbgdhO7BV3eg3PKn8B2ob5UeWYB69BEfX+WobzA/92ivGlUFNC8oNx49n434zgLcDkL34Ks7UG75U/gO1LdKjyxAPfqIj69y1DeYn3u0V42qApoXlBuPns9GfGcBbgehe/DVHSi3/Cl8B+pbpUcWoB59xMdXOeobzM892qtGVQHNC8qNR89nI747KEAUAg+ru2zoNnUQ8gPN9+bviO949Oop+Tzy3foPAPUj/x8x4lGhe9Fs5OvXDc8N9Vyti/qb2ulKVBW4X9SMeMyxagEuHr860Ore/B2ohZX48nnku2UB7uC5oZ6rdVF/UztdiaoC94uaEY85Vi3AxeNXB1rdm78DtbASXz6PfLcswB08N9RztS7qb2qnK1FV4H5RM+Ixx6oFuHj86kCre/N3oBZW4svnke+WBbiD54Z6rtZF/U3tdCWqCtwvakY85li1ABePXx1odW/+DtTCSnz5PPLdsgB38NxQz9W6qL+pna5EVYH7Rc2IxxyrFuDi8asDre7N34FaWIkvn0e+WxbgDp4b6rlaF/U3tdOVqCpwv6gZ8Zhj1QJcPH51oNW9+TtQCyvx5fPId8sC3MFzQz1X66L+pna6ElUF7hc1Ix5zrFqAi8evDrS6N38HamElvnwe+W5ZgDt4bqjnal3U39ROV6KqwP2iZsRjjlULcPH41YFW9+bvQC2sxJfPI98tC3AHzw31XK2L+pva6UpUFbhf1Ix4zLFqAS4evzrQ6t78HaiFlfjyeeS7ZQHu4Lmhnqt1UX9TO12JqgL3i5oRjzlWmwSY33uubPw2XiI+vGrJA76XtwZ9Fxnlnx6Kin8328FzqJlPwOPjs6HOc9y2n9A1+fh6QH4J0CqaTh5prFqAHxbg6rvZDp5DzXwCHh+fDXWe47b9hK7Jx9cD8kuAVtF08khj1QL8sABX38128Bxq5hPw+PhsqPMct+0ndE0+vh6QXwK0iqaTRxqrFuCHBbj6braD51Azn4DHx2dDnee4bT+ha/Lx9YD8EqBVNJ080li1AD8swNV3sx08h5r5BDw+PhvqPMdt+wldk4+vB+SXAK2i6eSRxqoF+GEBrr6b7eA51Mwn4PHx2VDnOW7bT+iafHw9IL8EaBVNJ480Vi3ADwtw9d1sB8+hZj4Bj4/PhjrPcdt+Qtfk4+sB+SVAq2g6eaSxagF+WICr72Y7eA418wl4fHw21HmO2/YTuiYfXw/ILwFaRdPJI41VC/DDAlx9N9vBc6iZT8Dj47OhznPctp/QNfn4ekB+CdAqmk4eaaxagB8W4Oq72Q6eQ818Ah4fnw11nuO2/YSuycfXA/JLgFbRdPJIY/U3tIUf3cO5suWLGvDh5Tv4yWgHzwi1MPKoPMJ8vhMd7Ab1vFK1CqiX6rwgek7hqG9mom8oKg7fEasW4AvqGKMd/GS0g2cUO1AePc9R/W6ig92gnleqVgH1Up0XRM8pHPXNTPQNRcXhO2LVAnxBHWO0g5+MdvCMYgfKo+c5qt9NdLAb1PNK1SqgXqrzgug5haO+mYm+oag4fEesWoAvqGOMdvCT0Q6eUexAefQ8R/W7iQ52g3peqVoF1Et1XhA9p3DUNzPRNxQVh++IVQvwBXWM0Q5+MtrBM4odKI+e56h+N9HBblDPK1WrgHqpzgui5xSO+mYm+oai4vAdsWoBvqCOMdrBT0Y7eEaxA+XR8xzV7yY62A3qeaVqFVAv1XlB9JzCUd/MRN9QVBy+I1YtwBfUMUY7+MloB88odqA8ep6j+t1EB7tBPa9UrQLqpToviJ5TOOqbmegbiorDd8SqBfiCOsZoBz8Z7eAZxQ6UR89zVL+b6GA3qOeVqlVAvVTnBdFzCkd9MxN9Q1Fx+I5YtQBfUMcY7eAnox08o9iB8uh5jup3Ex3sBvW8UrUKqJfqvCB6TuGob2aibygqDt8RqxbgC+oYox38ZLSDZxQ7UB49z1H9bqKD3aCeV6pWAfVSnRdEzykc9c1M9A1FxeE7YvW3nhLlOVc2dIfauEo1+OCroFhQpD3PMb/jXAd7QENeqVUPlRlCp6As1dVuJjqIckPwSNF3FuALlWpUBh9FxSPteY75Hec62AMa8kqteqjMEDqFP3lVCD1MdBDlhuCRou8swBcq1agMPoqKR9rzHPM7znWwBzTklVr1UJkhdAp/8qoQepjoIMoNwSNF31mAL1SqURl8FBWPtOc55nec62APaMgrteqhMkPoFP7kVSH0MNFBlBuCR4q+swBfqFSjMvgoKh5pz3PM7zjXwR7QkFdq1UNlhtAp/MmrQuhhooMoNwSPFH1nAb5QqUZl8FFUPNKe55jfca6DPaAhr9Sqh8oMoVP4k1eF0MNEB1FuCB4p+s4CfKFSjcrgo6h4pD3PMb/jXAd7QENeqVUPlRlCp/Anrwqhh4kOotwQPFL0nQX4QqUalcFHUfFIe55jfse5DvaAhrxSqx4qM4RO4U9eFUIPEx1EuSF4pOg7C/CFSjUqg4+i4pH2PMf8jnMd7AENeaVWPVRmCJ3Cn7wqhB4mOohyQ/BI0XcW4AuValQGH0XFI+15jvkd5zrYAxrySq16qMwQOoU/eVUIPUx0EOWG4JGi70oCVMNCj6b7IfHbePT8O3WMe76LWNAT4Kt5UFTqjp6+dZPPSM1X7SU6pSc+VHseH6/QOfhrzPeSn1yJ1AL8sABfo1J39PStm3xGar5qL9EpPfGh2vP4eIXOYQFagBe/i1j4Q8o/H/6k8jt6+tZNPiM1X7WX6JSe+FDteXy8QuewAC3Ai99FLPwh5Z8Pf1L5HT196yafkZqv2kt0Sk98qPY8Pl6hc1iAFuDF7yIW/pDyz4c/qfyOnr51k89IzVftJTqlJz5Uex4fr9A5LEAL8OJ3EQt/SPnnw59UfkdP37rJZ6Tmq/YSndITH6o9j49X6BwWoAV48buIhT+k/PPhTyq/o6dv3eQzUvNVe4lO6YkP1Z7Hxyt0DgvQArz4XcTCH1L++fAnld/R07du8hmp+aq9RKf0xIdqz+PjFTqHBWgBXvwuYuEPKf98+JPK7+jpWzf5jNR81V6iU3riQ7Xn8fEKncMCtAAvfhex8IeUfz78SeV39PStm3xGar5qL9EpPfGh2vP4eIXO8Y0FyFdntYei4kPZTWWgeeb558MjyEff3csKaswB2stP5rfx+uWrm4+ew3PrpvLi8ydXVGgBHh0EPsbxHYqFZ155PiiCfPQWoAW4wgJcrFqAn4nvUCw888rzQRHko7cALcAVFuBi1QL8THyHYuGZV54PiiAfvQVoAa6wABerFuBn4jsUC8+88nxQBPnoLUALcIUFuFi1AD8T36FYeOaV54MiyEdvAVqAKyzAxaoF+Jn4DsXCM688HxRBPnoL0AJcYQEuVi3Az8R3KBaeeeX5oAjy0VuAFuAKC3CxagF+Jr5DsfDMK88HRZCP3gK0AFdYgItVC/Az8R2KhWdeeT4ognz0FqAFuOKNBNhzTD5UtRycnnJUGhKgQUWr6Dd+b+Wp5CPN36tWsodz/eWrvJdqdbP929VZrcEsqFv5Tkfm/J1bgBag8GjUSPP3qpXswQK0AC3Af5XXAtw9GjXS/L1qJXuwAC1AC/Bf5bUAd49GjTR/r1rJHixAC9AC/Fd5LcDdo1Ejzd+rVrIHC9ACtAD/VV4LcPdo1Ejz96qV7MECtAAtwH+V1wLcPRo10vy9aiV7sAAtQAvwX+W1AHePRo00f69ayR4sQAvQAvxXeS3A3aNRI83fq1ayBwvQArQA/1VeC3D3aNRI8/eqlezBArQA31aA+SIgusuB7uipgTraPILKo0HPJ1+Xyr1qt85NIu+q2n21puoq+q7SrSeBaooy5++c39EzLxbghwW4r0vlXrVb5yaRd1XtvlpTdRV9V+nWk0A1RZnzd87v6JkXC/DDAtzXpXKv2q1zk8i7qnZfram6ir6rdOtJoJqizPk753f0zIsF+GEB7utSuVft1rlJ5F1Vu6/WVF1F31W69SRQTVHm/J3zO3rmxQL8sAD3dancq3br3CTyrqrdV2uqrqLvKt16EqimKHP+zvkdPfNiAX5YgPu6VO5Vu3VuEnlX1e6rNVVX0XeVbj0JVFOUOX/n/I6eebEAPyzAfV0q96rdOjeJvKtq99Waqqvou0q3ngSqKcqcv3N+R8+8WIAfFuC+LpV71W6dm0TeVbX7ak3VVfRdpVtPAtUUZc7fOb+jZ14swA8LcF+Xyr1qt85NIu+q2n21puoq+q7SrSeBaooy5++c39EzLxbghwW4r0vlXrVb5yaRd1XtvlpTdRV9V+nWk0A1RZnzd87v6JmX37qHjQ80T1il+/mgkqttyD+G/CCs5XINtS4ctVtqrd4Htat89atUA8HfIH/T8dsff8PffiVSC/DDAryG2i21Vu+D2lW++lWqgbAALcDlKnoCPN+90nKodeGo3VJr9T6oXeWrX6UaCAvQAlyuoifA890rLYdaF47aLbVW74PaVb76VaqBsAAtwOUqegI8373Scqh14ajdUmv1Pqhd5atfpRoIC9ACXK6iJ8Dz3Ssth1oXjtottVbvg9pVvvpVqoGwAC3A5Sp6AjzfvdJyqHXhqN1Sa/U+qF3lq1+lGggL0AJcrqInwPPdKy2HWheO2i21Vu+D2lW++lWqgbAALcDlKnoCPN+90nKodeGo3VJr9T6oXeWrX6UaCAvQAlyuoifA890rLYdaF47aLbVW74PaVb76VaqBeEsB5gWTR300nPzJvA28NbGaH968knjM6nnqbWoevH5qnfmOng6qtcrny1HvQKs8D/Ve/tssqIPqW/0DUKkQxwL8YQHu8+D1U+vMd/R0UK1VPl+Oegda5Xmo9/LfZkEdtAAtQOE58pjV89Tb1Dx4/dQ68x09HVRrlc+Xo96BVnke6r38t1lQBy1AC1B4jjxm9Tz1NjUPXj+1znxHTwfVWuXz5ah3oFWeh3ov/20W1EEL0AIUniOPWT1PvU3Ng9dPrTPf0dNBtVb5fDnqHWiV56Hey3+bBXXQArQAhefIY1bPU29T8+D1U+vMd/R0UK1VPl+Oegda5Xmo9/LfZkEdtAAtQOE58pjV89Tb1Dx4/dQ68x09HVRrlc+Xo96BVnke6r38t1lQBy1AC1B4jjxm9Tz1NjUPXj+1znxHTwfVWuXz5ah3oFWeh3ov/20W1EEL0AIUniOPWT1PvU3Ng9dPrTPf0dNBtVb5fDnqHWiV56Hey3+bBXXQArQAhefIY1bPU29T8+D1U+vMd/R0UK1VPl+Oegda5Xmo9/LfZkEdfLwAn669SlErLYzf8oOV0dJfVKLnj1CNQL2tQk+PVCZy43f01BnVitcP3TZRcd5f/mqR9s7NiwW4bWH8lh9eVTpBJXr+zNQI1Nsq9PRIZSI3fkdPnVGteP3QbRMV5/21ANuwAHe35WNRb6vQ0yOVidz4HT11RrXi9UO3TVSc99cCbMMC3N2Wj0W9rUJPj1QmcuN39NQZ1YrXD902UXHeXwuwDQtwd1s+FvW2Cj09UpnIjd/RU2dUK14/dNtExXl/LcA2LMDdbflY1Nsq9PRIZSI3fkdPnVGteP3QbRMV5/21ANuwAHe35WNRb6vQ0yOVidz4HT11RrXi9UO3TVSc99cCbMMC3N2Wj0W9rUJPj1QmcuN39NQZ1YrXD902UXHeXwuwDQtwd1s+FvW2Cj09UpnIjd/RU2dUK14/dNtExXl/LcA2LMDdbflY1Nsq9PRIZSI3fkdPnVGteP3QbRMV5/19lAD5JZy7tJeHN0ltXA/8CZyLQBXgk0T5JPiEqQKciOXc7FYiRasVW/Dz1PgswB8WoAWowCfMAtxFilYtwCHU1qh7K1iA7wmfMAtwFylatQCHUFuj7q1gAb4nfMIswF2kaNUCHEJtjbq3ggXNfgWnAAAgAElEQVT4nvAJswB3kaJVC3AItTXq3goW4HvCJ8wC3EWKVi3AIdTWqHsrWIDvCZ8wC3AXKVq1AIdQW6PurWABvid8wizAXaRo1QIcQm2NureCBfie8AmzAHeRolULcAi1NereChbge8InzALcRYpW31yA9xOJ5P9TKvk7gnMaUGNBEai/odX3EeAzY+n5ju+NOUC/8bm/q2pcSeob5G8B/d8vNT4LMHFHcG6I1FhQBOpvaDVPd+Yqz4yl5zu+N+YA/WYBWoAWoPQbWs3TnbnKM2Pp+Y7vjTlAv1mAFqAFKP2GVvN0Z67yzFh6vuN7Yw7QbxagBWgBSr+h1Tzdmas8M5ae7/jemAP0mwVoAVqA0m9oNU935irPjKXnO7435gD9ZgFagBag9BtazdOducozY+n5ju+NOUC/WYAWoAUo/YZW83RnrvLMWHq+43tjDtBvFqAFaAFKv6HVPN2Zqzwzlp7v+N6YA/SbBWgBWoDSb2g1T3fmKs+Mpec7vjfmAP1mAX5DAea1Vyl+7O0ep0os8Zsa1VpqeypZfg941fIV53OA5h5NScBX76LyApAAVRVagAlib7caKrHEb2pU+UfYk+X3gFctX3E+BxagBWgB/g81qvwj7Mnye8Crlq84nwML0AK0AP+HGlX+EfZk+T3gVctXnM+BBWgBWoD/Q40q/wh7svwe8KrlK87nwAK0AC3A/6FGlX+EPVl+D3jV8hXnc2ABWoAW4P9Qo8o/wp4svwe8avmK8zmwAC1AC/B/qFHlH2FPlt8DXrV8xfkcWIAWoAX4P9So8o+wJ8vvAa9avuJ8DixAC9AC/B9qVPlH2JPl94BXLV9xPgcW4LcRoCo7fgoarHy7zqlBrQGPKr9q+snLjsNlh7i7AjpcYmpGqvYCC/CHBWjOYAHqWIBbLEAL8L2wAHUswC0WoAX4XliAOhbgFgvQAnwvLEAdC3CLBWgBvhcWoI4FuMUCtADfCwtQxwLcYgFagO+FBahjAW6xAC3A98IC1LEAt1iAFuB7YQHqWIALUNNV/eSffNyh7ugh7kVNV+HPJ27L14XH3FM1lAe/7a5uBRWd5cnPBor5rvohOXHtoZj5yfwUhAX4Qtyh7ugh7rUALcAVFqAF+As0HCg5voqIO9QdPcS9FqAFuMICtAB/gYYDJcdXEXGHuqOHuNcCtABXWIAW4C/QcKDk+Coi7lB39BD3WoAW4AoL0AL8BRoOlBxfRcQd6o4e4l4L0AJcYQFagL9Aw4GS46uIuEPd0UPcawFagCssQAvwF2g4UHJ8FRF3qDt6iHstQAtwhQVoAf4CDQdKjq8i4g51Rw9xrwVoAa6wAC3AX6DhQMnxVUTcoe7oIe61AC3AFRbgtxHgf/8G/fEXHxOUJl9VC41OUU9WUSvET8lX6H7U3GbPy2sqTyW3/LzwuqjiUOFyQkrPC7CCBfhCRKCeUhljHgGHn9L94CZQc5s9L6+zPJXc8vPC62IBPgILcAc/pfvBTaDmNnteXmd5Krnl54XXxQJ8BBbgDn5K94ObQM1t9ry8zvJUcsvPC6+LBfgILMAd/JTuBzeBmtvseXmd5anklp8XXhcL8BFYgDv4Kd0PbgI1t9nz8jrLU8ktPy+8LhbgI7AAd/BTuh/cBGpus+fldZanklt+XnhdLMBHYAHu4Kd0P7gJ1Nxmz8vrLE8lt/y88LpYgI/AAtzBT+l+cBOouc2el9dZnkpu+XnhdbEAH4EFuIOf0v3gJlBzmz0vr7M8ldzy88Lr8u0EyIOZBWlvYpyC7kLno4oIeGfUO9Aq+g31I5/vezM7ayo97xKdfFen1Zj53CPQm+E7LMBFayqnBBbgO2EBzqDGbAFagBbgIBbgDGrMFqAFaAEOYgHOoMZsAVqAFuAgFuAMaswWoAVoAQ5iAc6gxmwBWoAW4CAW4AxqzBagBWgBDmIBzqDGbAFagBbgIBbgDGrMFqAFaAEOYgHOoMY8IsBKUSuE4pD24rtIJD+K+R1xr9bKHZUIUCyVh6l+h2K5XoEr5Kcp9vInUKmfWo3uqqHz8hXip0zkgU7mcke9zBP3ok5bgEebXokAxcLPy1eDR99dDZX8NMVeC1CvFY+0Ow90sgVoAS4jQLHw8/LV4NF3V0MlP02x1wLUa8Uj7c4DnWwBWoDLCFAs/Lx8NXj03dVQyU9T7LUA9VrxSLvzQCdbgBbgMgIUCz8vXw0efXc1VPLTFHstQL1WPNLuPNDJFqAFuIwAxcLPy1eDR99dDZX8NMVeC1CvFY+0Ow90sgVoAS4jQLHw8/LV4NF3V0MlP02x1wLUa8Uj7c4DnWwBWoDLCFAs/Lx8NXj03dVQyU9T7LUA9VrxSLvzQCdbgBbgMgIUCz8vXw0efXc1VPLTFHstQL1WPNLuPNDJFqAFuIwAxcLPy1eDR99dDZX8NMVeC1CvFY+0Ow908rcT4B8Anjoayq/y5FFUvH7qKfw79aGr1eipWn6a1Jj3wstVg9/RUw0EuiNfl/xbCJBWOHlh8dy6sQAXTVcbXAFFxeunnsK/yz95fnJP1fLTpMbMpHelGvyOnmog0B35uuTfQmABFrEAcXwoAoR6Cv8u/+T5yT1Vy0+TGjOT3pVq8Dt6qoFAd+Trkn8LgQVYxALE8aEIEOop/Lv8k+cn91QtP01qzEx6V6rB7+ipBgLdka9L/i0EFmARCxDHhyJAqKfw7/JPnp/cU7X8NKkxM+ldqQa/o6caCHRHvi75txBYgEUsQBwfigChnsK/yz95fnJP1fLTpMbMpHelGvyOnmog0B35uuTfQmABFrEAcXwoAoR6Cv8u/+T5yT1Vy0+TGjOT3pVq8Dt6qoFAd+Trkn8LgQVYxALE8aEIEOop/Lv8k+cn91QtP01qzEx6V6rB7+ipBgLdka9L/i0EFmARCxDHhyJAqKfw7/JPnp/cU7X8NKkxM+ldqQa/o6caCHRHvi75txBYgEUsQBwfigChnsK/yz95fnJP1fLTpMbMpHelGvyOnmog0B35uuTfQmABFkECjIYg7ant4gOTbzo6JR+Bekrciwah+7YKvL/5HTxz9Y58p9FTViNVa4WiQvHxmNHeSiXRKWpGXFiopjwW9btzWIAvRKTolHwE6ilxrwVoAe5PqVQSnaJmZAEWsQAtwBUWoAVoAVqAFqAFuD2lUkl0ipqRBVjEArQAV1iAFqAFaAFagBbg9pRKJdEpakYWYBEL0AJcYQFagBagBWgBWoDbUyqVRKeoGVmARSxAC3CFBWgBWoAWoAVoAW5PqVQSnaJmZAEmQLKLVdR0VYDnnjci/7hU1EqivWgU1ejz8JN7qpF/Kup5aFWtuNqP7uqqkeZjjnvVCVPvyJ93l/YCC3BLfmRV1EqivRagBXgt5rhXnTD1jvx5FuCfFuAetNcCtACvxRz3qhOm3pE/zwL80wLcg/ZagBbgtZjjXnXC1Dvy51mAf1qAe9BeC9ACvBZz3KtOmHpH/jwL8E8LcA/aawFagNdijnvVCVPvyJ9nAf5pAe5Bey1AC/BazHGvOmHqHfnzLMA/LcA9aK8FaAFeiznuVSdMvSN/ngX4pwW4B+21AC3AazHHveqEqXfkz7MA/7QA96C9FqAFeC3muFedMPWO/HlfWoABSjPawAutjjuHj133U1ZR66c+mnMq7M4NRZrvND9PrS6aOk6lkgGae/R/FdRKojziN9TLyj8Rv1N4/Xq61YMF+GEB7unOzQK0AC1AMghqk1T4o6489Apq/VQlWYAW4Gse8RvqpQVoAf5jtXJHHrV+qpIsQAvwNY/4DfXSArQA/7FauSOPWj9VSRagBfiaR/yGemkBWoD/WK3ckUetn6okC9ACfM0jfkO9tAAtwH+sVu7Io9ZPVZIFaAG+5hG/oV5agBbgP1Yrd+RR66cqyQK0AF/ziN9QLy1AC/Afq5U78qj1U5VkAVqAr3nEb6iXFqAF+I/Vyh151PqpSrIALcDXPOI31EsLcPxP4SL1aEjs4MOmjmceFP2521BGvJKqnPJ59Dzl/MnqDi7KyBL9xumuAQdFkJcdQs0c1b7yTw6qJJcxIt+3bizADwuwSv5kdYcFuMMCrGEBfliAVfInqzsswB0WYA0L8MMCrJI/Wd1hAe6wAGtYgB8WYJX8yeoOC3CHBVjDAvywAKvkT1Z3WIA7LMAaFuCHBVglf7K6wwLcYQHWsAA/LMAq+ZPVHRbgDguwhgX4YQFWyZ+s7rAAd1iANSzADwuwSv5kdYcFuMMCrNEuQKS9WEVtQL91g0YxVlEe52LhoFqptUeV5Ln1P/UOeIUq552LVH0BfJVTUSaKFAkwf7J6rzr3s1iAi+Kfi4WDaqXWnj9MlFu3EHrgFaqcdy5S9QVYgLu5n8UCXBT/XCwcVCu19vxhoty6hdADr1DlvHORqi/AAtzN/SwW4KL452LhoFqptecPE+XWLYQeeIUq552LVH0BFuBu7mexABfFPxcLB9VKrT1/mCi3biH0wCtUOe9cpOoLsAB3cz+LBbgo/rlYOKhWau35w0S5dQuhB16hynnnIlVfgAW4m/tZLMBF8c/FwkG1UmvPHybKrVsIPfAKVc47F6n6AizA3dzPYgEuin8uFg6qlVp7/jBRbt1C6IFXqHLeuUjVF2AB7uZ+FgtwUfxzsXBQrdTa84eJcusWQg+8QpXzzkWqvgALcDf3s1iAi+Kfi4WDaqXWnj9MlFu3EHrgFaqcdy5S9QVYgLu5n2VEgGhgUOpqsfKoEUzEwu+tDHnAR7sSc7dCVPKV5HVR70V/rMV7pGqvQn4iUK34H6L9DsjfiyKodLAbC3BR/HOx8HstQEy+krwu6r0WoAWYwgLU4fWrdMEC3NVFvdcCtABTWIA6vH6VLliAu7qo91qAFmAKC1CH16/SBQtwVxf1XgvQAkxhAerw+lW6YAHu6qLeawFagCksQB1ev0oXLMBdXdR7LUALMIUFqMPrV+mCBbiri3qvBWgBprAAdXj9Kl2wAHd1Ue+1AC3AFBagDq9fpQsW4K4u6r0WoAX4C7UI//0btBclzH+rgJ4Pv1eNIP9EOWoX8lTiu66r6bqgx8oz6nnU3WLrESCvX6yqAqxUCJ3XfXIFC3A7JvxkC9ACtAAVLEALcInahTwWIM7IArQAf2IBbseEn2wBWoAWoIIFaAEuUbuQxwLEGVmAFuBPLMDtmPCTLUAL0AJUsAAtwCVqF/JYgDgjC9AC/IkFuB0TfrIFaAFagAoWoAW4RO1CHgsQZ2QBWoA/sQC3Y8JPtgAtQAtQ4c0FGMVHiuOrMXbxGx/UCvwRRgTqM+N3VCJFt50bDh5zj+w4ag04asyokqpWzmirD7VCvPv52qPzzk2smm8FC3A7CPyOSqToNgtwhxqzBWgB7rEAt4PA76hEim6zAHeoMVuAFuAeC3A7CPyOSqToNgtwhxqzBWgB7rEAt4PA76hEim6zAHeoMVuAFuAeC3A7CPyOSqToNgtwhxqzBWgB7rEAt4PA76hEim6zAHeoMVuAFuAeC3A7CPyOSqToNgtwhxqzBWgB7rEAt4PA76hEim6zAHeoMVuAFuAeC3A7CPyOSqToNgtwhxqzBWgB7vkkQHVg+GqAFBd787qYeHr8OxRLPg8ewQSVmHtQo1K7qmbeKaF51CyjQmg1Lyy+43eAevL9WIAv8O9QLPk8eAQTVGLuQY3KAvyMmqUFqGMBvsC/Q7Hk8+ARTFCJuQc1KgvwM2qWFqCOBfgC/w7Fks+DRzBBJeYe1KgswM+oWVqAOhbgC/w7FEs+Dx7BBJWYe1CjsgA/o2ZpAepYgC/w71As+Tx4BBNUYu5BjcoC/IyapQWoYwG+wL9DseTz4BFMUIm5BzUqC/AzapYWoI4F+AL/DsWSz4NHMEEl5h7UqCzAz6hZWoA6FuAL/DsUSz4PHsEElZh7UKOyAD+jZmkB6liAL/DvUCz5PHgEE1Ri7kGNygL8jJqlBagD/xQOlVzVY4DagKSo0iNAXg41gnz0agSz8H6oNUVPgJO/I5/bWRndgZp51C9ftYCLDfUS7eCx8NzymasZxW8W4AtqBPno1QhmsQDfCTXzqF++aoEF+IcFuIogH70awSwW4DuhZh71y1ctsAD/sABXEeSjVyOYxQJ8J9TMo375qgUW4B8W4CqCfPRqBLNYgO+EmnnUL1+1wAL8wwJcRZCPXo1gFgvwnVAzj/rlqxZYgH9YgKsI8tGrEcxiAb4TauZRv3zVAgvwDwtwFUE+ejWCWSzAd0LNPOqXr1pgAf5hAa4iyEevRjCLBfhOqJlH/fJVCyzAPyzAVQT56NUIZrEA3wk186hfvmrBNxEg+o8YqUSAcQoabXXwuTj4U+FEzPxJ8Qg4vFaVp2x05nQ0D8pXnWd1R4B0wel5KTzfbizAF9QW5tuqfmdqzGtpDpSvOs/qjsAC3BKhWoAW4DOY19IcKF91ntUdgQW4JUK1AC3AZzCvpTlQvuo8qzsCC3BLhGoBWoDPYF5Lc6B81XlWdwQW4JYI1QK0AJ/BvJbmQPmq86zuCCzALRGqBWgBPoN5Lc2B8lXnWd0RWIBbIlQL0AJ8BvNamgPlq86zuiOwALdEqBagBfgM5rU0B8pXnWd1R2ABbolQLUAL8BnMa2kOlK86z+qO4JsIEF2nhoCahKQTRBG4APlvFQFy1BbySNVWm35OyecJ5KuBJjE/p78D+G3d7yNq8J+/UfdyLMBFfCoW4LM4JZ8nkK8GmsT8nFqA27ACC/BKg00Xp+TzBPLVQJOYn1MLcBtWYAFeabDp4pR8nkC+GmgS83NqAW7DCizAKw02XZySzxPIVwNNYn5OLcBtWIEFeKXBpotT8nkC+WqgSczPqQW4DSuwAK802HRxSj5PIF8NNIn5ObUAt2EFFuCVBpsuTsnnCeSrgSYxP6cW4DaswAK80mDTxSn5PIF8NdAk5ufUAtyGFViAVxpsujglnyeQrwaaxPycfmkB9hyDyCukG7XQaqSVBquxGJ37VDQJr0HMFdJU/v8C9BAR5F8Ul2y+QhwLMBEpjx6tojvOVfy7Ma2ie+A1iLmyAK9gASYi5dGjVXTHuYp/N6ZVdA+8BjFXFuAVLMBEpDx6tIruOFfx78a0iu6B1yDmygK8ggWYiJRHj1bRHecq/t2YVtE98BrEXFmAV7AAE5Hy6NEquuNcxb8b0yq6B16DmCsL8AoWYCJSHj1aRXecq/h3Y1pF98BrEHNlAV7BAkxEyqNHq+iOcxX/bkyr6B54DWKuLMArWICJSHn0aBXdca7i341pFd0Dr0HMlQV4BQswESmPHq2iO85V/LsxraJ74DWIubIAr/Abv06FCwGV45z2Kk3n6kKgfNWTDWZaMe8Cr5r6yvje/9e+vSw3jsNgFM509TLv/7xT2TTs1G8IIHgTdb6lPKYpXs70JtHfiO6lirFPzd7/jegKKQTww3uoZwRwjnWJ2Zu/agSQAP5SeQ/1jADOsS4xe/NXjQASwF8q76GeEcA51iVmb/6qEUAC+EvlPdQzAjjHusTszV81AkgAf6m8h3pGAOdYl5i9+atGAAngL5X3UM8I4BzrErM3f9UIIAH8pfIe6hkBnGNdYvbmrxoBJIC/VN5DPSOAc6xLzN78VSOABPCXynuoZwRwjnWJ2Zu/agSwKYD5ryjRV5oRwEpqKgHss5InW5eOM6g1tZOoAqieqVH6/DMoqhJFf2R/rRQC+IYAjrQuHWdQa0oAX/lrpRDANwRwpHXpOINaUwL4yl8rhQC+IYAjrUvHGdSaEsBX/lopBPANARxpXTrOoNaUAL7y10ohgG8I4Ejr0nEGtaYE8JW/VgoBfEMAR1qXjjOoNSWAr/y1UgjgGwI40rp0nEGtKQF85a+VQgDfEMCR1qXjDGpNCeArf60UAviGAI60Lh1nUGtKAF/5a6VcBFANaM+ik64EMPrd6BL5W50PoBJd/GeYF4jT+etcOZ32qbofffJo75EPoH/P1QpFV40AvlGjRA9WdAZPMy4IT+Ovc+V02qcE8MOk1bN8ukz+hf3vRvNDAGcbF4Sn8de5cjrtUwL4YdLqWT5dJv/C/nej+SGAs40LwtP461w5nfYpAfwwafUsny6Tf2H/u9H8EMDZxgXhafx1rpxO+5QAfpi0epZPl8m/sP/daH4I4GzjgvA0/jpXTqd9SgA/TFo9y6fL5F/Y/240PwRwtnFBeBp/nSun0z4lgB8mrZ7l02XyL+x/N5ofAjjbuCA8jb/OldNpnxLAD5NWz/LpMvkX9r8bzQ8BnG1cEJ7GX+fK6bRPCeCHSatn+XSZ/Av7343mhwDONi4IT+Ovc+V02qcEsEk0eyb/6j5/fvktjL5H9Ij1OUS95a9Zfjz0olZcnSt1EqPPor9RYW+kUug3wj6176oV8lfNEMAPWsLnHScCiCq14gSQABLAZtFrVhkPvagVJ4AEkAA2i16zynjoRa04ASSABLBZ9JpVxkMvasUJIAEkgM2i16wyHnpRK04ACSABbBa9ZpXx0ItacQJIAAlgs+g1q4yHXtSKE0ACSACbRa9ZZTz0olacABJAAtgses0q46EXteIEsBjA6H9o1KT7BLCSGrVJ46ITndWMuVRUrl5+FPSidsFPYdTcc6reqFKBPALYJL8hBBD9qF0ggC0IYJP8hhBA9KN2gQC2IIBN8htCANGP2gUC2IIANslvCAFEP2oXCGALAtgkvyEEEP2oXSCALQhgk/yGEED0o3aBALYggE3yG0IA0Y/aBQLYggA2yW8IAUQ/ahcIYAsC2CS/IQQQ/ahdIIAtwn8KZ1NVU/Aj1id29l2b1R+X/0aVBRy3IePMv6YYz9/z6OnM354+1Hv47+b3IPobhgA2BcufaX68GcZfRszn73n0dBLAxFT9OPmfEsB1xl9GzOfvefR0EsDEVP04+Z8SwHXGX0bM5+959HQSwMRU/Tj5nxLAdcZfRszn73n0dBLAxFT9OPmfEsB1xl9GzOfvefR0EsDEVP04+Z8SwHXGX0bM5+959HQSwMRU/Tj5nxLAdcZfRszn73n0dBLAxFT9OPmfEsB1xl9GzOfvefR0EsDEVP04+Z8SwHXGX0bM5+959HQ+OID+okaXQ01GTdWPos+fwQzRVPujzD1iZtQVxEpqp6On056tCqDp8+bK33/UpwQwgQBiN2qnCeArAtgNAcRu1E4TwFcEsBsCiN2onSaArwhgNwQQu1E7TQBfEcBuCCB2o3aaAL4igN0QQOxG7TQBfEUAuyGA2I3aaQL4igB2QwCxG7XTBPAVAeyGAGI3aqcJ4KuLAPqTiV5qP3bKfbLni67QDP2uFe5HpSv/P+oZAVS/MXet7HcJYBEBxB4IYJz9LgEsIoDYAwGMs98lgEUEEHsggHH2uwSwiABiDwQwzn6XABYRQOyBAMbZ7xLAIgKIPRDAOPtdAlhEALEHAhhnv0sAiwgg9kAA4+x3CWARAcQeCGCc/e6XPy1/UaOx87OX36Tei18ZhQBiJdv96B1UJ/aP4J+13vdo1SkmgMVRxs00b+7RwQ5s97P5I4A/CGBxlHEzzZt7dLAD2/1s/gjgDwJYHGXcTPPmHh3swHY/mz8C+IMAFkcZN9O8uUcHO7Ddz+aPAP4ggMVRxs00b+7RwQ5s97P5I4A/CGBxlHEzzZt7dLAD2/1s/gjgDwJYHGXcTPPmHh3swHY/mz8C+IMAFkcZN9O8uUcHO7Ddz+aPAP4ggMVRxs00b+7RwQ5s97P5I4A/XgJoSfInrXIWXfL1Aeytz0HoY+7RwQ5s9/1/rPS+WzPu6oz1I4BFBBAr2e4TwBYEsIgAYiXbfQLYggAWEUCsZLtPAFsQwCICiJVs9wlgCwJYRACxku0+AWxBAIsIIFay3SeALQhgEQHESrb7BLAFASwigFjJdp8AtiCARQQQK9nuE8AWXypJ6jXVMxUxNZ5PfVctRyU1/nf/CPnfWK9yEPqMgtls3+zs+rfWD1b0pqhP/ZHtUzWKfwfHrR8BvFz8+6gchD6jYDbbNwLYggBeLv59VA5Cn1Ewm+0bAWxBAC8X/z4qB6HPKJjN9o0AtiCAl4t/H5WD0GcUzGb7RgBbEMDLxb+PykHoMwpms30jgC0I4OXi30flIPQZBbPZvhHAFgTwcvHvo3IQ+oyC2WzfCGALAni5+PdROQh9RsFstm8EsAUBvFz8+6gchD6jYDbbNwLY4suPjlq2fOJU7NSv+QutNj3q3mGLqhyEPqNgHdtBdWt9/nfVWYuO52dZsW/8/WfcqhHAg1QOQp9RsI7tIAGMI4AHqRyEPqNgHdtBAhhHAA9SOQh9RsE6toMEMI4AHqRyEPqMgnVsBwlgHAE8SOUg9BkF69gOEsA4AniQykHoMwrWsR0kgHEE8CCVg9BnFKxjO0gA4wjgQSoHoc8oWMd2kADGEcCDVA5Cn1Gwju0gAYz78qeg0qXkU+j/bv5T/xvqu9FnfeYy17gDg/1l83eVOP+s9R5ZBXDcySaABBCHIYBxBJAA4jAEMI4AEkAchgDGEUACiMMQwDgCSABxGAIYRwAJIA5DAOMIIAHEYQhgHAEkgDgMAYwjgAQQhyGAcV9qMtHpR2MXXUr/NaPfjb5HJWLR7/rvkd+u6PzyI+Mcdg7yAbRR/Ntj/130xkfzaKb8KRwBJIA4i50DAniFABJAHMbOAQG8QgAJIA5j54AAXiGABBCHsXNAAK8QQAKIw9g5IIBXCCABxGHsHBDAKwSQAOIwdg4I4BUCSABxGDsHBPAKASSAOIydAwJ45UstW5S9sAVBPav8RtQfQX06bgYV/iaNGxlns3MQTaH6ri+aVr8RM/7sTSGAW/A3adzIOJudAwKoEcAt+Js0bmSczc4BAdQI4Bb8TRo3Ms5m54AAagRwC/4mjRsZZ7NzQAA1ArgFf5PGjYyz2TkggBoB3IK/SeNGxtnsHBBAjQBuwd+kcSPjbHYOCKBGALfgb9K4kXE2OwcEUCOAW/A3adzIOJudAwKolc/o2WIAAAMlSURBVAKoXsn/hvo1e+ZHLDoXtfjG36Tob0S/4b9vRXQGvX8X9+Tfrej9Vd9V98ieRf85smpdCCABxAMQQI0AEkA8AAHUCCABxAMQQI0AEkA8AAHUCCABxAMQQI0AEkA8AAHUCCABxAMQQI0AEkA8AAHUCCABxAMQQO0remnslWyx7EXsv4tevfxC9/5G75HVu43atloAZ8wPe1Hn2c9U5S7kz+QqBLDbyOrdRm0bAUSOOs8EkAB2HFm926htI4DIUeeZABLAjiOrdxu1bQQQOeo8E0AC2HFk9W6jto0AIkedZwJIADuOrN5t1LYRQOSo80wACWDHkdW7jdo2AogcdZ4JIAHsOLJ6t1HbRgCRo84zASSAHUdW7zZq2wggctR5JoAEsOPI6t1GbRsBRI46zwTwMoAm+scy/mv6z/JsVraZlfF6m7GFO80Fd2JnY1wKV7/jFQI41Iwt3GkuuBM7GwTwEgFsMWMLd5oL7sTOBgG8RABbzNjCneaCO7GzQQAvEcAWM7Zwp7ngTuxsEMBLBLDFjC3caS64EzsbBPASAWwxYwt3mgvuxM4GAbxEAFvM2MKd5oI7sbNBAC8RwBYztnCnueBO7GwQwEsEsMWMLdxpLrgTOxsE8MOk8y8cHU89i376n+DPr/Jp3vhtu7LnrLAXdUoq/9C5z/0wBLD4bv7sV9lzVtiLOiUE8JsAVo3ftit7zgp7UaeEAH4TwKrx23Zlz1lhL+qUEMBvAlg1ftuu7Dkr7EWdEgL4TQCrxm/blT1nhb2oU0IAvwlg1fhtu7LnrLAXdUoI4DcBrBq/bVf2nBX2ok4JAfwmgFXjt+3KnrPCXtQpIYDfBLBq/LZd2XNW2Is6JQTw+zUwq/7UTE21Ml7v2atZzdoyYJw+9yN/j1YhgMX5qWfAXfW5H/l7tAoBLM5PPQPuqs/9yN+jVQhgcX7qGXBXfe5H/h6tQgCL81PPgLvqcz/y92gVAlicn3oG3FWf+5G/R6sQwOL81DPgrvrcj/w9WoUAFuenngF31ed+5O/RKgSwOD/1DLirPvcjf49WIYDF+alnwF31uR/5e7TK/wlSMSRmksJpAAAAAElFTkSuQmCC;imageBorder=#314354;strokeWidth=14;" vertex="1" parent="1">
          <mxGeometry x="318.5" y="1390" width="260" height="260" as="geometry" />
        </mxCell>
        <mxCell id="YE6RKc2kCQrR1V2WT69Y-6" value="Hello there, wanderer...&amp;nbsp;&lt;div&gt;I would speak with you, but for a moment?&lt;/div&gt;" style="shape=callout;whiteSpace=wrap;html=1;perimeter=calloutPerimeter;flipH=1;fillColor=#1A0034;fontColor=#ffffff;strokeColor=#432D57;strokeWidth=11;fontSize=26;fontFamily=Lucida Console;align=left;spacingLeft=12;spacingRight=12;" vertex="1" parent="1">
          <mxGeometry x="798.5" y="1120" width="450" height="180" as="geometry" />
        </mxCell>
        <mxCell id="YE6RKc2kCQrR1V2WT69Y-7" value="- Greet the strange man -" style="shape=callout;whiteSpace=wrap;html=1;perimeter=calloutPerimeter;flipH=0;fillColor=#647687;fontColor=#ffffff;strokeColor=#314354;strokeWidth=11;fontSize=26;fontFamily=Lucida Console;align=left;spacingLeft=12;spacingRight=12;" vertex="1" parent="1">
          <mxGeometry x="608.5" y="1390" width="420" height="100" as="geometry" />
        </mxCell>
        <mxCell id="YE6RKc2kCQrR1V2WT69Y-8" value="- Ignore him -" style="shape=callout;whiteSpace=wrap;html=1;perimeter=calloutPerimeter;flipH=0;fillColor=#008a00;fontColor=#ffffff;strokeColor=#005700;strokeWidth=11;fontSize=26;fontFamily=Lucida Console;align=left;spacingLeft=12;spacingRight=12;" vertex="1" parent="1">
          <mxGeometry x="608.5" y="1540" width="420" height="100" as="geometry" />
        </mxCell>
        <mxCell id="YE6RKc2kCQrR1V2WT69Y-11" value="" style="shape=image;verticalLabelPosition=bottom;labelBackgroundColor=default;verticalAlign=top;aspect=fixed;imageAspect=0;image=data:image/png,iVBORw0KGgoAAAANSUhEUgAABQAAAAUACAMAAAAvOg/FAAAAAXNSR0IArs4c6QAAADNQTFRFAAAAEwIIHwUQMQUeRg4rfBg81Txq/4J0qZ6iul9VsSIS9i4XSScjikhAAAAAAP8AAIYAqzA3gAAAABF0Uk5TAP////////////////////8QFUChAAAgAElEQVR4nO3dwW7kNteu0fNl9AdIcv+Xe1AwummjKZVYIrk3qbWGdruqLPJ9MjLy//7H1v6P/4s+A/L6f9EfgLGi45NB9BmQlwBuLjo+GUSfAXkJ4Oai45NB9BmQlwBuLjo+GUSfAXkJ4Oai45NB9BmQlwBuLjo+GUSfAXkJ4Oai45NB9BmQlwBuLjo+GUSfAXkJ4Oai45NB9BmQlwBuLjo+uUSfBtkI4Oaik5NL9GmQjQBuLjo5uUSfBtkI4Oaik5NL9GmQjQBuLjo5uUSfBtkI4Oaik5NL9GmQjQBuLjo5uUSfBtkI4Oaik5NL9GmQjQBuLjo5uUSfBtkI4Oaik5NL9GmQjQBuKTo0WUWfC9kI4JaiQ5NV9LmQjQBuKTo0WUWfC9kI4JaiQ5NV9LmQjQBuKTo0WUWfC9kI4JaiQ5NV9LmQjQBuKTo0WUWfC9kI4JaiQ5NV9LmQjQBuKTo0WUWfC9kI4JaiQ5NV9LmQjQBuJDovK4k+K3IQwI1ER2Ul0WdFDgK4keiorCT6rMhBADcSHZWVRJ8VOQjgRqKjspLosyIHAdxIdFRWEn1W5CCAG4mOykqiz4ocBHAj0VFZSfRZkYMAbiQ6KiuJPityEMCNREdlJdFnRQ4CuLx/fouOykqiT40cBHB5AviJ6FMjBwFcngB+IvrUyEEAlyeAn4g+NXIQwOUJ4CeiT40cBHB5AviJ6FMjBwFcngB+IvrUyEEAlyeAn4g+NXIQwOUJ4CeiT40cBHB5AviJ6FMjBwFcXnRKVhd9fkQSwOVFB2R10edHJAFcXnRAVhd9fkQSwOVFB2R10edHJAFcXnRAVhd9fkQSwOVFB2R10edHJAFcXnRAVhd9fkQSwOVFB2R10edHJAFcXnRAVhd9fkQSwOVFB2R10edHJAFcVHQ29hF9kkQSwEVFZ2Mf0SdJJAFcVHQ29hF9kkQSwEVFZ2Mf0SdJJAFcVHQ29hF9kkQSwEVFZ2Mf0SdJJAFcVHQ29hF9kkQSwEVFZ2Mf0SdJJAFcVHQ29hF9kkQSwEVFZ2Mf0SdJJAFcVHQ29hF9kkQSwEVFZ2Mf0SdJJAFcVHQ29hF9kkQSwEVFZ2Mf0SdJJAFcVHQ29hF9kkQSwEVFZ2Mf0SdJJAFcVHQ29hF9kkQSwEVFZ2Mf0SdJJAFcVHQ29hF9kkQSwEVFZ2Mf0SdJJAFcSnQs9hZ9uswngEuJTsTeok+X+QRwKdGJ2Fv06TKfAC4lOhF7iz5d5hPApUQnYm/Rp8t8AriU6ETsLfp0mU8AlxKdiL1Fny7zCeBSohOxt+jTZT4BXEp0IvYWfbrMJ4BLiU7E3qJPl/kEcCnRiXiK6HNmFgFcSnQYniL6nJlFAJcSHYaniD5nZhHApUSH4Smiz5lZBHAp0WF4iuhzZhYBXEp0GJ4i+pyZRQCXEh2Gp4g+Z2YRwKVEh+Epos+ZWQRwKdFheIroc2YWAVxKdBieIvqcmUUAlxIdhqeIPmdmEcClRIfhKaLPmVkEcCnRYXiK6HNmFgFcSnQYniL6nJlFAJcSHYaniD5nZhHApUSH4Smiz5lZBHAp0WF4iuhzZhYBXEp0GJ4i+pyZRQCXEh2Gp4g+Z2YRwKVEh+Epos+ZWQRwKdFheJ7oE2csAVxKdA6eJ/rEGUsAlxKdg+eJPnHGEsClROfgeaJPnLEEcCnROXie6BNnLAFcSnQOnif6xBlLAJcSnYPniT5xxhLApUTn4HmiT5yxBHAp0Tl4nugTZywBXEp0Dp4n+sQZSwCXEp2DXv757d/foj/TO9FnzwgCuJToCPQigOQggEuJjkAvAkgOAriU6Aj0IoDkIIBLiY5ALwJIDgK4lOgI9CKA5CCAS4mOQC8CSA4CuJToCPQigOQggEuJjkAvAkgOAriU6Aj0IoDkIIALiJ4+L9G3gBEEcAHR0+cl+hYwggAuIHr6vETfAkYQwAVET5+X6FvACAK4gOjp8xJ9CxhBABcQPX1eom8BIwjgAqKnz0v0LWAEAVxA9PR5ib4FjCCAC4iePi/Rt4ARBHAB0dPnJfoWMIIALiB6+vwUfR/oRwAXED14foq+D/QjgAuIHjw/Rd8H+hHABUQPnp+i7wP9COACogfPT9H3gX4EcAHRg+en6PtAPwK4gOjB81P0faAfAVxA9OD5Kfo+0I8ALiB68PwUfR/oRwAXED14foq+D/QjgAuIHvyT/VsRfR/oRwAXEB2BJxPAvQngAqIj8GQCuDcBXEB0BJ5MAPcmgAuIjsCTCeDeBHAB0RF4MgHcmwAuIDoCTyaAexPABURH4MkEcG8CuIDoCDyZAO5NABcQHYEnE8C9CeACyvSic/A8tQCW70bfDO4SwAUIYBwB3JsALkAA4wjg3gRwAQIYRwD3JoALEMA4Arg3AVyAAMYRwL0J4AIEMI4A7k0AFyCAcQRwbwK4AAGMI4B7E8AFCGAcAdybAC5AADMQwB0J4AIEMAMB3JEALkAAMxDAHQngAgQwAwHckQAuQAAzEMAdCeACBDADAdyRAC5AADMQwB0J4AIEMAMB3JEALkAAMxDAHQngAgQwAwHckQAuQAAzEMAdCeACBDADAdyRAC5AADMQwB0J4AIEMAMB3JEALkAAMxDAHQngAgQwAwHckQAuQAAzEMAdCeACBDADAdyRAC5AADMQwB0J4AIEMAMB3JEALuDfirgQPNX5s4++I3xGABcggBkI4I4EcAECmIEA7kgAFyCAGQjgjgRwAQKYgQDuSAAXIIAZCOCOBHABApiBAO5IABcggBkI4I4EcAECmIEA7kgAFyCAGQjgjgRwAX0C+Pdvd1PwTAK4IwFcgABmIIA7EsAFCGAGArgjAVyAAGYggDsSwAUIYAYCuCMBXIAAZiCAOxLABQhgBgK4IwFcgABmIIA7EsAFCGAGArgjAVyAAGYggDsSwLRq02sP4J1k8p0A7kgA06pNTwDjCOCOBDCt2vQEMI4A7kgA06pNTwDjCOCOBDCt2vQEMI4A7kgA06pNTwDjCOCOBDCt2vQEMI4A7kgA06pNTwDjCOCOBDCt2vQEMI4A7kgA06pNTwDjCOCOBDCt2sz8OVt+0feGFgKYVm1cAphf9L2hhQCmVRuXAOYXfW9oIYBp1cYlgPlF3xtaCGBatXEJYH7R94YWAphWbVwCmF/0vaGFAKZVG5cA5hd9b2ghgGnVxiWA+UXfG1oIYFq1cQlgftH3hhYCmFZtXAKYX/S9oYUApnVnhP4ALk70vaGFAKZ1Z4QCGCf63tBCANO6M0IBjBN9b2ghgGndGaEAxom+N7QQwLTujFAA40TfG1oIYFp3RiiAcaLvDS0EMK07IxTAONH3hhYCmNadEQpgnOh7QwsBTOvOCAUwTvS9oYUApnVnhAIYJ/re0EIA0yqTuvoHcOfZE8Xr7jyr6HtDCwFMq0xKAGcTwKcQwLTKpARwNgF8CgFMq0xKAGcTwKcQwLTKpARwNgF8CgFMq0xKAGcTwKcQwLTKpARwNgF8CgFMq0xKAGcTwKcQwLTKpARwNgF8CgFMq0xKAGcTwKcQwLT6zJHZou8NLQQwrTIpAVxJ9L2hhQCmVSYlgCuJvje0EMC0yqQEcCXR94YWAphWmZQAriT63tBCANMqkxLAlUTfG1oIYFplUgK4kuh7QwsBTKtMSgBXEn1vaCGAaZVJCeBKou8NLQQwrTIpAVxJ9L2hhQCmVSblT9zi1J7u+Z8mlu9G3yDeE8C0zkd49bvcI4B7E8C0zkd49bvcI4B7E8C0zkd49bvcI4B7E8C0zkd49bvcI4B7E8C0zkd49bvcI4B7E8C0zkd49bvcI4B7E8C0zkd49bvcI4B7E8C0zkd49bvcI4B7E8C0zkd49bvcI4B7E8C0ro5QAEf6t+I8gEX0DeI9AUyrNsLyNQGcQwD3JoBp1UZYviaAcwjg3gQwrdoIy9cEcA4B3JsAplUbYfmaAM4hgHsTwLRqIyxfE8A5BHBvAphWbYTlawI4hwDuTQDTqo2wfE0A5xDAvQlgWrURlq8J4BwCuDcBTKs2wvI1AZxDAPcmgGmVIf3zW22Yf1eMicGz1VJ4/hPRN4j3BDCtMiQBzEAAdySAaZUhCWAGArgjAUyrDEkAMxDAHQlgWmVIApiBAO5IANMqQxLADARwRwKYVhmSAGYggDsSwLTKkAQwAwHckQCmVYYkgBkI4I4EMK0yJAHMQAB3JIBplSHVAlj7GiMJ4I4EMK0yJAHMQAB3JIBplSEJYAYCuCMBTKsMSQAzEMAdCWBaZUgCmIEA7kgA0ypDEsAMBHBHAphWGZIAZiCAOxLAtMqQBDADAdyRAKZVhiSAGQjgjgQwrTIkAcxAAHckgGmVIZXYlen5s7frSboarPb3Pf930TeI9wQwrTIkAawTQO4SwLTKkASwTgC5SwDTKkMSwDoB5C4BTKsMSQDrBJC7BDCtMiQBrBNA7hLAtMqQBLBOALlLANMqQxLAOgHkLgFMqwxJAOsEkLsEMK0yJAGsE0DuEsC0aoOb+wdwUe979VPV/FVRPn2f/2wI4D4EMK3a4ARQAOlJANOqDU4ABZCeBDCt2uAEUADpSQDTqg1OAAWQngQwrdrgBFAA6UkA06oNTgAFkJ4EMK3a4ARQAOlJANOqDU4ABZCeBDCt2uAEUADpSQCTuTr59rHWclYi8d+pTAEsz+r8M5//u/LdO8/06iclKwFM5nxwAiiA9CSAyZwPTgAFkJ4EMJnzwQmgANKTACZzPjgBFEB6EsBkzgcngAJITwKYzPngBFAA6UkAkzkfnAAKID0JYDLngxNAAaQnAUzmfHACKID0JIDJ3M3D8VjLe5wHocSu9vlKMnt/0nPlj9jOP/3571H72fIbjfsfTfW5G/QngMn0np4ACiDHBDCZ3tMTQAHkmAAm03t6AiiAHBPAZHpPTwAFkGMCmEzv6QmgAHJMAJPpPT0BFECOCWAyvacngALIMQFMpvf0BFAAOSaAyfSengAKIMcEMJk+g7uaveKfivKzJRK1n+jzmc9dzdn5b3QeTwF8HgFMps/gBFAAuUIAk+kzOAEUQK4QwGT6DE4ABZArBDCZPoMTQAHkCgFMps/gBFAAuUIAk+kzOAEUQK4QwGT6DE4ABZArBDCZPoMTQAHkCgFMps/gBFAAuUIAk+kzwvPJX81F7VXmZu+q8vxqn/T8Ny//sZjx+chFAJMRwE+U5yeAtBDAZATwE+X5CSAtBDAZAfxEeX4CSAsBTEYAP1GenwDSQgCTEcBPlOcngLQQwGQE8BPl+QkgLQQwGQH8RHl+AkgLAUxGAD9Rnp8A0kIAkxHAT5TnJ4C0EMBk7sysFs+rASz6fJZM/q2Y+wni7hPnBDCZOzMTwDoB5IgAJnNnZgJYJ4AcEcBk7sxMAOsEkCMCmMydmQlgnQByRACTuTMzAawTQI4IYDJ3ZiaAdQLIEQFM5s7MBLBOADkigMncmZkA1gkgRwQwmTszE8A6AeSIACZzPuDzmZUAnv9EfBCeJvpWcUQAk6nNRwBXF32rOCKAydTmI4Cri75VHBHAZGrzEcDVRd8qjghgMrX5CODqom8VRwQwmdp8BHB10beKIwKYTG0+Ari66FvFEQFMpjYfAVxd9K3iiAAmU5uPAK4u+lZxRACTqc1HAFcXfas4IoDJ9J5eLYoCOFv0reKIACbTe3oCmEH0reKIACbTe3oCmEH0reKIACbTe3oCmEH0reKIACbTe3oCmEH0reKIACbTe3oCmEH0reKIACbTe3oCmEH0reKIACbTe3oCmEH0reKIACbTe3oCmEH0reKIACbTe3oCmEH0reKIACbTPq6SuKv/7upP0Ev0reKIACbTPi4BzC/6VnFEAJNpH5cA5hd9qzgigMm0j0sA84u+VRwRwGTaxyWA+UXfKo4IYDLt4xLA/KJvFUcEMJn2cQlgftG3iiMCmEz7uAQwv+hbxREBTKZ9XAKYX/St4ogAJtM+LgHML/pWcUQAU7jzJ2n+nC2/6PvFEQFMQQD3Fn2/OCKAKQjg3qLvF0cEMAUB3Fv0/eKIAKYggHuLvl8cEcAUBHBv0feLIwKYggDuLfp+cUQAUxDAvUXfL44IYAoCuLfo+8URAUxBAPcWfb84IoAp9AmgFGYVfb84IoApCODeou8XRwQwBQHcW/T94ogApiCAe4u+XxwRwBQEcG/R94sjApiCAO4t+n5xRABTEMC9Rd8vjghgCgK4t+j7xREBTEEA9xZ9vzgigCkI4N6i7xdHBDCFq+k6/3f//CaF/d15ptH3iyMCmIIA5ieAOxLAFAQwPwHckQCmIID5CeCOBDAFAcxPAHckgCkIYH4CuCMBTEEA8xPAHQlgCgKYnwDuSABTEMD8BHBHApiCAOYngDsSwBR6B7BoHyv153znmUbfL44IYAoCmIsAPoUApiCAuQjgUwhgCgKYiwA+hQCmIIC5COBTCGAKApiLAD6FAKYggLkI4FMIYAoCmIsAPoUApiCAuQjgUwhgCgKYiwA+hQCmMC6AtZ+4+m7P9fdv5WsCuCMBTEEAcxHApxDAFAQwFwF8CgFMQQBzEcCnEMAUBDAXAXwKAUxBAHMRwKcQwBQEMBcBfAoBTEEAcxHApxDAFAQwFwF8CgFMQQBzEcCnEMAUribpfIT/VtRSKICfEMAdCWAKApifAO5IAFMQwPwEcEcCmIIA5ieAOxLAFAQwPwHckQCmIID5CeCOBDAFAcxPAHckgCkIYH4CuCMBTEEA8xPAHQlgCgKYnwDuSABTqP3pVfsI/674p0IA3/GncE8hgCkIYC4C+BQCmIIA5iKATyGAKQhgLgL4FAKYggDmIoBPIYApCGAuAvgUApiCAOYigE8hgCkIYC4C+BQCmIIA5iKATyGAKQhgLgL4FAKYwtUhnaerNtvaH8Vdfb3ezj9LcSc1fdQ+6dX/SJ2Lvmn8JIAptA+z9l0B7EUAn0IAU2gfZu27AtiLAD6FAKbQPszadwWwFwF8CgFMoX2Yte8KYC8C+BQCmEL7MGvfFcBeBPApBDCF9mHWviuAvQjgUwhgCu3DrH1XAHsRwKcQwBTah1n7rgD2IoBPIYAptA+z9l0B7EUAn0IAU6hN73xItUjUJlq+VnvlqACex6RPavqonVGf1yMDAUyhDEQABZB5BDCFMhABFEDmEcAUykAEUACZRwBTKAMRQAFkHgFMoQxEAAWQeQQwhTIQARRA5hHAFMpABFAAmUcAUygDEUABZB4BTKEMRAAFkHkEMIUykKtJqv1sUUtI/B+Yrei/3/q8Xtwdo0YAUygDEcBcBHBvAphCGYgA5iKAexPAFMpABDAXAdybAKZQBiKAuQjg3gQwhTIQAcxFAPcmgCmUgQhgLgK4NwFMoQxEAHMRwL0JYAplIAKYiwDuTQBTKAMRwFwEcG8CmEIZyJ0/hTt/lbl/9raO8z+8q53RHXF3jBoBTKEMRABnE8AnE8AUykAEcDYBfDIBTKEMRABnE8AnE8AUykAEcDYBfDIBTKEMRABnE8AnE8AUykAEcDYBfDIBTKEMRABnE8AnE8AUykAEcDYBfDIBTKEMRABnE8AnE8AUykDaA1hLYXmV83lTV55a7z8gjL5p/CSAKZSBCGAGAvgUAphCGYgAZiCATyGAKZSBCGAGAvgUAphCGYgAZiCATyGAKZSBCGAGAvgUAphCGYgAZiCATyGAKZSBCGAGAvgUAphCGYgAZiCATyGAKZSBCGAGAvgUAphCGcjVAJZ/d/V/23P1lfn+n5feTy36pvGTAKZQBiKAGQjgUwhgCmUgApiBAD6FAKZQBiKAGQjgUwhgCmUgApiBAD6FAKZQBiKAGQjgUwhgCmUgApiBAD6FAKZQBiKAGQjgUwhgCmUgApiBAD6FAKZQBiKAGQjgUwhgCu1DKsP867f2n21/32e4+h+VdtE3jZ8EMIX2IQngSAL4FAKYQvuQBHAkAXwKAUyhfUgCOJIAPoUAptA+JAEcSQCfQgBTaB+SAI4kgE8hgCm0D0kARxLApxDAFNqHJIAjCeBTCGAK7UMSwJEE8CkEMIX2IQngSAL4FAKYQm0qtUz9WzHuz7bGqf0eNXP/l07lfccFsIi+c7wIYArnc6x9TQBHfioBfAoBTOF8jrWvCeDITyWATyGAKZzPsfY1ARz5qQTwKQQwhfM51r4mgCM/lQA+hQCmcD7H2tcEcOSnEsCnEMAUzudY+5oAjvxUAvgUApjC+RxrXxPAkZ9KAJ9CAFM4n2PtawI48lMJ4FMIYArnc6x9TQBHfioBfAoBTOF8jrWv1QJ4/npRSsSuZu/cuE9anqQAPoUAplAbiAAKIKMJYAq1gQigADKaAKZQG4gACiCjCWAKtYEIoAAymgCmUBuIAAogowlgCrWBCKAAMpoAplAbiAAKIKMJYAq1gQigADKaAKZQG4gACiCjCWCg85ldDWBRXnlGLs6V7P1T0Z6981fp85n/q+jzyjVx945CAAMJoAASSwADCaAAEksAAwmgABJLAAMJoAASSwADCaAAEksAAwmgABJLAAMJoAASSwADCaAAEksAAwmgABJLAANdDeBVV1+5t/M4lRTO+Cx3CODzCGAgAcxFAJ9HAAMJYC4C+DwCGEgAcxHA5xHAQAKYiwA+jwAGEsBcBPB5BDCQAOYigM8jgIEEMBcBfB4BDCSAuQjg8whgIAHMRQCfRwAD1WZWwlH72rmSn/Ie4wa8ttpTK+cx4/nNv2/8SQADCWAcAeRFAAMJYBwB5EUAAwlgHAHkRQADCWAcAeRFAAMJYBwB5EUAAwlgHAHkRQADCWAcAeRFAAMJYBwB5EUAAwlgHAHkRQAD/fVbmUXtD8euBrC8XnmPWmT57r+K2n+Geou7dxQCGEgAMxDAJxPAQAKYgQA+mQAGEsAMBPDJBDCQAGYggE8mgIEEMAMBfDIBDCSAGQjgkwlgIAHMQACfTAADCWAGAvhkAhhIADMQwCcTwEBXA1icB7D2HnNHvY7aH8BF/cdi9r2jEMBAAhhHAHkRwEACGEcAeRHAQAIYRwB5EcBAAhhHAHkRwEACGEcAeRHAQAIYRwB5EcBAAhhHAHkRwEACGEcAeRHAQAIYRwB5EcBAZYRlDHcCWPufIsXPO6fyNGrPau5nmX/z+EUAAwlgHAHkRQADCWAcAeRFAAMJYBwB5EUAAwlgHAHkRQADCWAcAeRFAAMJYBwB5EUAAwlgHAHkRQADCWAcAeRFAAMJYBwB5EUAA9UCeO48gEV5j1oA2993F7X/RBS1P02cYdZ9408CGEgAZxNAfhLAQAI4mwDykwAGEsDZBJCfBDCQAM4mgPwkgIEEcDYB5CcBDCSAswkgPwlgIAGcTQD5SQADCeBsAshPAhhIAGcTQH4SwEBRASyiJj/XPxW1J1Se39VXbv+Jmvk3j18EMJAAziGAHBHAQAI4hwByRAADCeAcAsgRAQwkgHMIIEcEMJAAziGAHBHAQAI4hwByRAADCeAcAsgRAQwkgHMIIEcEMJAAziGAHBHAQO0BrE3vTgCLO58lu/MAFldfr/bE73y+WfeNPwlgIAGcQwA5IoCBBHAOAeSIAAYSwDkEkCMCGEgA5xBAjghgIAGcQwA5IoCBBHAOAeSIAAYSwDkEkCMCGEgA5xBAjghgIAGcQwA5IoCBxgWwqMWufIJaANdOYe33EECOCGAgAexPAGkhgIEEsD8BpIUABhLA/gSQFgIYSAD7E0BaCGAgAexPAGkhgIEEsD8BpIUABhLA/gSQFgIYSAD7E0BaCGAgAexPAGkhgIGiAlhzNRx3hj7DjACO+8yzbyACGEgA+xNAWghgIAHsTwBpIYCBBLA/AaSFAAYSwP4EkBYCGEgA+xNAWghgIAHsTwBpIYCBBLA/AaSFAAYSwP4EkBYCGEgA+xNAWghgoD5ZOQ9gebc+AcyZwvbfo3YevT9VOYXzfyeAcQQwkAD2IoB8RgADCWAvAshnBDCQAPYigHxGAAMJYC8CyGcEMJAA9iKAfEYAAwlgLwLIZwQwkAD2IoB8RgADCWAvAshnBDCQAPYigHxGAFPoM7PzABa1AJbvlp/NHsX2z1fUkjn309fMum/8IoAp3BmNAAognxLAFO6MRgAFkE8JYAp3RiOAAsinBDCFO6MRQAHkUwKYwp3RCKAA8ikBTOHOaARQAPmUAKZwZzQCKIB8SgBTuDMaARRAPiWAKdwZjQAKIJ8SwBTujOY8gGXetfetpbD8RHsK//qt/GyvOPxyJ3u137z356u5+jRm3Td+EcAU+oxLAAWQNgKYQp9xCaAA0kYAU+gzLgEUQNoIYAp9xiWAAkgbAUyhz7gEUABpI4Ap9BmXAAogbQQwhT7jEkABpI0AptBnXAIogLQRwBT6jEsABZA2AphCn3GdK5OvfYLzALansLxy+drfv1393WppvZO98ipzA3hVec6jbxxfBDCFPqMRQAGkjQCm0Gc0AiiAtBHAFPqMRgAFkDYCmEKf0QigANJGAFPoMxoBFEDaCGAKfUYjgAJIGwFMoc9oBFAAaSOAKfQZjQAKIG0EMIU+oxFAAaSNAKbQez4155+gFsA7KTx/t78qat9tj91VOQNY3L9TXCGAKfQZjQBeJ4C8CGAKfUYjgNcJIC8CmEKf0QjgdQLIiwCm0Gc0AnidAPIigCn0GY0AXieAvAhgCn1GI4DXCSAvAphCn9EI4HUCyIsAptBnNAJ4nQDyIoAp9BmNAF4ngLwIYAp9RnMewPM4nQewqMXpahTPX6WP8+dc3rd85j7PfpwR941fBDCFPlMRQAGkjQCm0GcqAiiAtBHAFPpMRQAFkDYCmEKfqQigANJGAFPoMxUBFEDaCGAKfaYigAJIGwFMoc9UBFAAaSOAKfSZigAKIG0EMIU+UxFAAaSNAKbQZyrnASzK+/5XUb5by0rvYN1Rchb1xGf4/FbxngCm0GcqAjj7ic/w+a3iPQFMoc9UBHD2E5/h81vFewKYQp+pCODsJ55c/TQAABxxSURBVD7D57eK9wQwhT5TEcDZT3yGz28V7wlgCn2mIoCzn/gMn98q3hPAFPpMRQBnP/EZPr9VvCeAKfSZigDOfuIzfH6reE8AU+gzFQGc/cRn+PxW8Z4AptBnKgI4+4nP8Pmt4j0BTKHPVO4EsHztan5qr9w7cVefX+33mPHEZ7j6G/EJAUyhz1QEUABpI4Ap9JmKAAogbQQwhT5TEUABpI0AptBnKgIogLQRwBT6TEUABZA2AphCn6kIoADSRgBT6DMVARRA2ghgCn2mIoACSBsBTKHPVARQAGkjgCn0Hk17AM9TWPtaH39VnL9b7dOfP93ab9n7ic9w745RI4Ap9J6KAH4ngBwRwBR6T0UAvxNAjghgCr2nIoDfCSBHBDCF3lMRwO8EkCMCmELvqQjgdwLIEQFMofdUBPA7AeSIAKbQeyoC+J0AckQAU+g9FQH8TgA5IoAp9J6KAH4ngBwRwBR6T+U8gLUgnKewqKWr9u/Kd3uHsvZutc98/rv1fuK9z6j2Ez1uGj8JYApzxyWAAsgXAUxh7rgEUAD5IoApzB2XAAogXwQwhbnjEkAB5IsApjB3XAIogHwRwBTmjksABZAvApjC3HEJoADyRQBTmDsuARRAvghgCnPHJYACyBcBTGHuzMr7nkfiPDq1OJWvlXcrXzt/BrXs1T5p7Wfbkz7uiZ8/+3ZXnx+fEMAU5o6wvK8AjiSA+QlgCnNHWN5XAEcSwPwEMIW5IyzvK4AjCWB+ApjC3BGW9xXAkQQwPwFMYe4Iy/sK4EgCmJ8ApjB3hOV9BXAkAcxPAFOYO8LyvgI4kgDmJ4ApzB1heV8BHEkA8xPAFOaOsLyvAI4kgPkJYApzR1gmdZ6L8yTVvltLZi0/tZ8991dF7T3Os1deb9zTrT3n2nevvkrtJ8bdxKcRwBT6zPHqRAVQAPkigCn0mePViQqgAPJFAFPoM8erExVAAeSLAKbQZ45XJyqAAsgXAUyhzxyvTlQABZAvAphCnzlenagACiBfBDCFPnO8OlEBFEC+CGAKfeZ4daICKIB8EcAU+szx6kQFUAD5IoAp9Jlj+1ivBrBEp5bCWpLuuBrF8hO12JWv1T5fLSt9numdV776euVrfZ74cwlgCndGeGdcAiiAzyaAKdwZ4Z1xCaAAPpsApnBnhHfGJYAC+GwCmMKdEd4ZlwAK4LMJYAp3RnhnXAIogM8mgCncGeGdcQmgAD6bAKZwZ4R3xiWAAvhsApjCnRHeGZcACuCzCWAKd0Z4Z1wCKIDPJoAp3BnhnZmVT1AL4Hn2xrmavfNPfx7y8t32p1Zer3zt79/6nFHtN6/9uxnnsTMBTKHPaK4SQAHkiwCm0Gc0VwmgAPJFAFPoM5qrBFAA+SKAKfQZzVUCKIB8EcAU+ozmKgEUQL4IYAp9RnOVAAogXwQwhT6juUoABZAvAphCn9FcJYACyBcBTKHPaK4SQAHkiwCm0Gc0V/1bUYJQPlVthLV/1zuU5fXK184Td/56tQAW5RmcP6urz7T3yZx/d+5/mvYjgCncGU2fmQmgAD6RAKZwZzR9ZiaAAvhEApjCndH0mZkACuATCWAKd0bTZ2YCKIBPJIAp3BlNn5kJoAA+kQCmcGc0fWYmgAL4RAKYwp3R9JmZAArgEwlgCndG02dmAiiATySAKdwZTZ+ZCaAAPpEApnBnNH1mdp6V2sx6Z684j93V7NU+/bmrz6/9PUae5rXPR50ApjB3IAIogHwRwBTmDkQABZAvApjC3IEIoADyRQBTmDsQARRAvghgCnMHIoACyBcBTGHuQARQAPkigCnMHYgACiBfBDCFuQMRQAHkiwCmMHcgAiiAfBHAFOYOpAzzPIA1d7JXfqK8Si1nfbJXe9/ab37+3fP3Pc9eeZW551u0P6unEcAU5s5CAAWQLwKYwtxZCKAA8kUAU5g7CwEUQL4IYApzZyGAAsgXAUxh7iwEUAD5IoApzJ2FAAogXwQwhbmzEEAB5IsApjB3FgIogHwRwBTmzkIABZAvApjC3FmUiV7NXlGL2PnvVgvledhqX/urovZutVf+t+L8U139jeIT1+78d3saAUxh7gQEUAD5IoApzJ2AAAogXwQwhbkTEEAB5IsApjB3AgIogHwRwBTmTkAABZAvApjC3AkIoADyRQBTmDsBARRAvghgCnMnIIACyBcBTGHuBARQAPkigCnMnUAZcPnaeZL+qahFsZbHq2k9f0Ltr1f7VFfTH3Uyc425y2sRwBTmXnwBFMCXMXd5LQKYwtyLL4AC+DLmLq9FAFOYe/EFUABfxtzltQhgCnMvvgAK4MuYu7wWAUxh7sUXQAF8GXOX1yKAKcy9+AIogC9j7vJaBDCFuRdfAAXwZcxdXosApjD34gugAL6MuctrEcAU5l58ARTAlzF3eS0CmMLci18yUD7BeQaufu389c7foyTu/POVr12N8fmnqv3n4BnO/zDwGQQwhbkXXwAF8EUABTCJuRdfAAXwRQAFMIm5F18ABfBFAAUwibkXXwAF8EUABTCJuRdfAAXwRQAFMIm5F18ABfBFAAUwibkXXwAF8EUABTCJuRdfAAXwRQAFMIm5F18ABfBFAAUwibkXv6SmfIL2YF39ifN0XQ1W7Wfbs7fi/8RorqelUABTmHvJBVAAjwggAeZecgEUwCMCSIC5l1wABfCIABJg7iUXQAE8IoAEmHvJBVAAjwggAeZecgEUwCMCSIC5l1wABfCIABJg7iUXQAE8IoAEmHvJBVAAjwggAaIu+XmmiqsBrP0527nyE7XXOw/b+XfnPtOdjbr1GQhgCnMvtADSYtStz0AAU5h7oQWQFqNufQYCmMLcCy2AtBh16zMQwBTmXmgBpMWoW5+BAKYw90ILIC1G3foMBDCFuRdaAGkx6tZnIIApzL3QAkiLUbc+AwFMYe6FFkBajLr1GQhgCnMvtADSYtStz0AAA0Vd6PYAFlfDdu78fWsZvfoJop5pTu1/+vdvRfnumB1EEsBAI678FQL4FAL4jgAGGnHlrxDApxDAdwQw0Igrf4UAPoUAviOAgUZc+SsE8CkE8B0BDDTiyl8hgE8hgO8IYKARV/4KAXwKAXxHAAONuPJXCOBTCOA7AhhoxJW/QgCfQgDfEcBAI678FQL4FAL4jgAGGnHlrzgPUdH+h21XY1fLXvmJ2p/H1T5L1PPbz9+/1QK4cwoFMFDUdRdAfhJAAkRddwHkJwEkQNR1F0B+EkACRF13AeQnASRA1HUXQH4SQAJEXXcB5CcBJEDUdRdAfhJAAkRddwHkJwEkQNR1F0B+EkACRF33cqF7B7D8bu2vfP6saiOkv/Kcy8kIIEPEX3IB5CcBZJr4Sy6A/CSATBN/yQWQnwSQaeIvuQDykwAyTfwlF0B+EkCmib/kAshPAsg08ZdcAPlJAJkm/pILID8JINPEX3IB5CcBZLC4y/1L+cOn80zdSVxRfqK8Sglg7QmV70Y/KV7+rSjfHb2XsQRwuriL/IsA0kIA6SjuIv8igLQQQDqKu8i/CCAtBJCO4i7yLwJICwGko7iL/IsA0kIA6SjuIv8igLQQQDqKu8i/CCAtBJCO4i7yLwJICwGko7iL/IsA0kIA6SjuIv/pPHvlM1+N3Xn2aq9c+3dzn0Ft1Hxi9HJGEMDpoq/pdwIogP2MXs4IAjhd9DX9TgAFsJ/RyxlBAKeLvqbfCaAA9jN6OSMI4HTR1/Q7ARTAfkYvZwQBnC76mn4ngALYz+jljCCA00Vf0+8EUAD7Gb2cEQRwuuhr+p0ACmA/o5czggBOF31NvxNAAexn9HJGEMDpoq/pdwIogP2MXs4IAjhd9DX9rhas9tjV4lnzV8Xc/IjdSHGb+pwAThd9Tb8TQPqJ29TnBHC66Gv6nQDST9ymPieA00Vf0+8EkH7iNvU5AZwu+pp+J4D0E7epzwngdNHX9DsBpJ+4TX1OAKeLvqbfCSD9xG3qcwI4XfQ1/U4A6SduU58TwOmir+l3Akg/cZv6nABOF31NvxNA+onb1OcEcLpaGqKubPkE47IX//vK3mzRG7tOAKeLD0IhgIwQvbHrBHC6+CAUAsgI0Ru7TgCniw9CIYCMEL2x6wRwuvggFALICNEbu04Ap4sPQiGAjBC9sesEcLr4IBQCyAjRG7tOAKeLD0IhgIwQvbHrBHC6+CAUAsgI0Ru7TgCniw9CIYCMEL2x6wRwknI5akEo/25uJMqfpO2Xvaj3RQD5Q7kcAjiHAMaJ21krAZykXA4BnEMA48TtrJUATlIuhwDOIYBx4nbWSgAnKZdDAOcQwDhxO2slgJOUyyGAcwhgnLidtRLAScrlEMA5BDBO3M5aCeAk5XII4BwCGCduZ60EcJJyOQRwDgGME7ezVgI4SbkcAjiHAMaJ21krAZzk34rzANa+O+6inseuhDJn7Moz/fu3uZ+AunkL+4wATiKAIwlgVvMW9hkBnEQARxLArOYt7DMCOIkAjiSAWc1b2GcEcBIBHEkAs5q3sM8I4CQCOJIAZjVvYZ8RwEkEcCQBzGrewj4jgJMI4EgCmNW8hX1GACcRwJEEMKt5C/uMAE4igCMJYFbzFvYZAZykXIky0ZKLWhSLkp/a6/W5nrXsXY1d+Xx9PtVVtf+ozP0EXDd/c1cI4CTlIghgLwK4kvmbu0IAJykXQQB7EcCVzN/cFQI4SbkIAtiLAK5k/uauEMBJykUQwF4EcCXzN3eFAE5SLoIA9iKAK5m/uSsEcJJyEQSwFwFcyfzNXSGAk5SLIIC9COBK5m/uCgGcpFwEAexFAFcyf3NXCOAk5SIIYC8CuJL5m7tCACepTbQkpHZNatkrcSpf63Mp27NX+/QzlP+AyN6axq/tOgGcRAB7EcDVjV/bdQI4iQD2IoCrG7+26wRwEgHsRQBXN35t1wngJALYiwCubvzarhPASQSwFwFc3fi1XSeAkwhgLwK4uvFru04AJxHAXgRwdePXdp0ATiKAvQjg6sav7ToBnEQAexHA1Y1f23UCOFSZaC0X5Wvl39USV3MnRP9V3MnejBDJ3o7mrPCMAA4lgL0I4I7mrPCMAA4lgL0I4I7mrPCMAA4lgL0I4I7mrPCMAA4lgL0I4I7mrPCMAA4lgL0I4I7mrPCMAA4lgL0I4I7mrPCMAA4lgL0I4I7mrPCMAA4lgL0I4I7mrPCMAA4lgL0I4I7mrPCMAA5QDvhqps5TU3uPfytqQS1fq6X1auxq/9ujkqTes/i7ovd7kMGsRR4TwAHKAQvgJwTwKWYt8pgADlAOWAA/IYBPMWuRxwRwgHLAAvgJAXyKWYs8JoADlAMWwE8I4FPMWuQxARygHLAAfkIAn2LWIo8J4ADlgAXwEwL4FLMWeUwABygHLICfEMCnmLXIYwI4QDlgAfyEAD7FrEUeE8ABygEL4CcE8ClmLfKYAHZTO+D2AJavlYjV3qMWwKL2x261P3srr3wewL7X/rta4mpfK7/buM9CnPl7/SKA3dSOVQDfEUBe5u/1iwB2UztWAXxHAHmZv9cvAthN7VgF8B0B5GX+Xr8IYDe1YxXAdwSQl/l7/SKA3dSOVQDfEUBe5u/1iwB2UztWAXxHAHmZv9cvAthN7VgF8B0B5GX+Xr8IYDe1YxXAdwSQl/l7/SKA3dSOVQDfEUBe5u/1iwDe1H7UZcolMLWI3blOtXie+6ui9sq1OPUhe7yMXOufBPCm9gMWwDoB5GXkWv8kgDe1H7AA1gkgLyPX+icBvKn9gAWwTgB5GbnWPwngTe0HLIB1AsjLyLX+SQBvaj9gAawTQF5GrvVPAnhT+wELYJ0A8jJyrX8SwJvaD1gA6wSQl5Fr/ZMA3tR+wAJYJ4C8jFzrnwTwpvYDFsA6AeRl5Fr/JIA3RV2TWjJrubj6e5QY10J0J3vlU/V+ZXY0cq1/EsCboq6JALKnkWv9kwDeFHVNBJA9jVzrnwTwpqhrIoDsaeRa/ySAN0VdEwFkTyPX+icBvCnqmgggexq51j8J4E1R10QA2dPItf5JAG+KuiYCyJ5GrvVPAnhT1DURQPY0cq1/EsCboq6JALKnkWv9kwA2uHOstTj1UV659qd15d+d/27nn6/905//hOzx3oxNC2CDO4cpgN8JIO/N2LQANrhzmAL4nQDy3oxNC2CDO4cpgN8JIO/N2LQANrhzmAL4nQDy3oxNC2CDO4cpgN8JIO/N2LQANrhzmAL4nQDy3oxNC2CDO4cpgN8JIO/N2LQANrhzmAL4nQDy3oxNC2CDO4cpgN8JIO/N2LQANhgXsbnKb3T+P0C6k73i74p+v8sV559AjHOpnce4TQtgAwF8RwC5SwDTEsB3BJC7BDAtAXxHALlLANMSwHcEkLsEMC0BfEcAuUsA0xLAdwSQuwQwLQF8RwC5SwDTEsB3BJC7BDAtAXxHALlLAJMpx9AehOzjOv+Nrv6+tT/Bq/3sjP+AlCdeS/D5T4z7VHyinMy4dQvgW+VABLBOABlBAFMoByKAdQLICAKYQjkQAawTQEYQwBTKgQhgnQAyggCmUA5EAOsEkBEEMIVyIAJYJ4CMIIAplAMRwDoBZAQBTKEciADWCSAjCGAK5UAEsE4AGUEAA/U+wj6v19t5kmqfvpa4q8b9Hn9X1AJYM+5TcU/tjHrvXAAPjDvCTAQw68kggKHGHWEmApj1ZBDAUOOOMBMBzHoyCGCocUeYiQBmPRkEMNS4I8xEALOeDAIYatwRZiKAWU8GAQw17ggzEcCsJ4MAhhp3hJkIYNaTQQBDjTvCTAQw68kggKH6HOGM8fd2/pnPszI3e7XPMu7dyKD3zgXwQJ/jEkABpKfeOxfAA32OSwAFkJ5671wAD/Q5LgEUQHrqvXMBPNDnuARQAOmp984F8ECf4xJAAaSn3jsXwAN9jksABZCeeu9cAA/0OS4BFEB66r1zATzQ57gEUADpqffOBfBAn+MSQAGkp947F8Afxh1c9omW/7FR+3fn/m61yNYSnP2Jc0+fxQvgD+OOK/scBZC19Fm8AP4w7riyz1EAWUufxQvgD+OOK/scBZC19Fm8AP4w7riyz1EAWUufxQvgD+OOK/scBZC19Fm8AP4w7riyz1EAWUufxQvgD+OOK/scBZC19Fm8AP4w7riyz1EAWUufxQvgD+OOK/scBZC19Fm8AP5vZPbW9k9F+W5Jzfm/66OWvat6fxYyKHftzvYF8H8CeEQAyUsAu4k+yqwEkLwEsJvoo8xKAMlLALuJPsqsBJC8BLCb6KPMSgDJSwC7iT7KrASQvASwm+ijzEoAyUsAu4k+yqwEkLwEsJvoo8xKAMlLAG9qf+R9/riqDHOdP9aqJa4WwN7vK3a8d6cCAthAAAWQfO5UQAAbCKAAks+dCghgAwEUQPK5UwEBbCCAAkg+dyoggA0EUADJ504FBLCBAAog+dypgAA2EEABJJ87FRDABgIogORzpwIC2EAABZB87lTgcQG8M9YV03WHrLCCsun2HghgAwGEfASwgQBeJ4CsQAAbCOB1AsgKBLCBAF4ngKxAABsI4HUCyAoEsIEAXieArEAAGwjgdQLICgSwgQBeJ4CsQAAbCOB1AsgKBPCt3lP+t6LPK+c097d8xjOll3Jf2ssggDcf+TPGKoDkJYBvCeA9AkheAviWAN4jgOQlgG8J4D0CSF4C+JYA3iOA5CWAbwngPQJIXgL4lgDeI4DkJYBvCeA9AkheAviWAN4jgOQlgG9FHxEwXnsZBBDYRHsZBBDYRHsZBBDYRHsZBBDYRHsZBBDYRHsZBBDYRHsZBBDYRHsZBBDYRHsZBBDYRHsZHhLAIvqIgFHaeyCAwCbaeyCAwCbaeyCAwCbaeyCAwCbaeyCAwCbaeyCAwCbaeyCAwCbaeyCAwCbaeyCAwCbaeyCAwCbaeyCAwCbaeyCAwCbaeyCAwCbaeyCAwCbaeyCAwCbaeyCAwCbaeyCAwCbaeyCAwCbaeyCAwCbae/CQAEYfDO/9+9s/v0V/pnf+rYj+TE9WTuFqGQSQJASQuwTwQPTB8J4AcpcAHog+GN4TQO4SwAPRB8N7AshdAngg+mB4TwC5SwAPRB8M7wkgdwnggeiD4T0B5C4BPBB9MLwngNwlgAeiD4b3BJC7BPCH6OPgpRa2Wjhq/64m+vepE8AMBPCH6OPgRQCZRQB/iD4OXgSQWQTwh+jj4EUAmUUAf4g+Dl4EkFkE8Ifo4+BFAJlFAH+IPg5eBJBZBPCH6OPgRQCZRQB/iD4OXgSQWQTwh+jj4EUAmUUA/7dm9moZiP5M3/3923m6rr7enRT+9dvI3/hz2VP9DFdrIYApCKAA0tPVWghgCgIogPR0tRYCmIIACiA9Xa2FAKYggAJIT1drIYApCKAA0tPVWghgCgIogPR0tRYCmIIACiA9Xa2FAKYggAJIT1drIYApCKAA0tPVWmwTwOgH3l8tEiVEd175as56u/r7nvuv4up7zND+m9NfuS/n3RDAtARQAPmUAC5PAAWQTwng8gRQAPmUAC5PAAWQTwng8gRQAPmUAC5PAAWQTwng8gRQAPmUAC5PAAWQTwng8gRQAPnUQwIY/ZhHKn/yVUth7SdGB2yE89+jFrtz5+/R5z8gtU96Hu0Zn6X3661NAJcngALYQgC/E8DlCaAAthDA7wRweQIogC0E8DsBXJ4ACmALAfxOAJcngALYQgC/E8DlCaAAthDA7wRweQIogC0E8DsBXJ4ACmALAfxOAJcngALYQgC/2zqA0Q93ttphXk1I+0THKROtfff8GZR/dzWFV3+3q6dQfuL8SV59zoI1kgBuRAAFkDYCuBEBFEDaCOBGBFAAaSOAGxFAAaSNAG5EAAWQNgK4EQEUQNoI4EYEUABpI4AbEUABpI0AbkQABZA2GwYw+pFmUHsu7Qlp93fFnderfb7ae1x9Gu0prMWp9h53YneudjLnv++59ue3MwHcUu25XJ3PnWAJoACuRQC3VHsuV+dzJ1gCKIBrEcAt1Z7L1fncCZYACuBaBHBLtedydT53giWAArgWAdxS7blcnc+dYAmgAK5FALdUey5X53MnWAIogGsRwC3VnsvV+dwJlgAK4FoEcEu153J1PneCJYACuBYB3FLtuVydz51gCaAArmWbAEY/yKzKEypHXbv45187n0otF+dhuxOE89yeP43ys+cpLE/tagrv/EZXf98796B2qn1eb221J17riwAuqjyhcsACKIAC+KX2xGt9EcBFlSdUDlgABVAAv9SeeK0vArio8oTKAQugAArgl9oTr/VFABdVnlA5YAEUQAH8Unvitb4I4KLKEyoHLIACKIBfak+81hcBXFR5QuWABVAABfBL7YnX+iKAiypPqBywAAqgAH6pPfFaXwRwUeUJlQMWQAEUwC+1J17riwAuqjyhcsACKIAC+KX2xGt9SRpAh3ldbVJXE1L7d+dh6/OZz9/tr4ryCc6Tfh62csNKFPvkrF3tN+/zdHu/3opq96BWGgFcXm1SAiiAAiiAj1CblAAKoAAK4CPUJiWAAiiAAvgItUkJoAAKoAA+Qm1SAiiAAiiAj1CblAAKoAAK4CPUJiWAAiiAAvgItUkJoAAKoAA+Qm1SAiiAArhcAMtHjX58qxs3rt7Oc1tT7kvtT9xqgTl/vT6vctX573v1qZ3/R2DEOa1GAB9NAAXw2QTw0QRQAJ9NAB9NAAXw2QTw0QRQAJ9NAB9NAAXw2QTw0QRQAJ9NAB9NAAXw2QTw0QRQAJ9NAB9NAAXw2a4G8P8DjSYbw41fH2cAAAAASUVORK5CYII=;imageBorder=#1A0034;strokeWidth=14;" vertex="1" parent="1">
          <mxGeometry x="1278.5" y="1700" width="260" height="260" as="geometry" />
        </mxCell>
        <mxCell id="YE6RKc2kCQrR1V2WT69Y-12" value="Ah, the strong, silent type are we? Well, perhaps this will peak your interest..." style="shape=callout;whiteSpace=wrap;html=1;perimeter=calloutPerimeter;flipH=1;fillColor=#1A0034;fontColor=#ffffff;strokeColor=#432D57;strokeWidth=11;fontSize=26;fontFamily=Lucida Console;align=left;spacingLeft=12;spacingRight=12;" vertex="1" parent="1">
          <mxGeometry x="798.5" y="1700" width="450" height="160" as="geometry" />
        </mxCell>
        <mxCell id="YE6RKc2kCQrR1V2WT69Y-13" value="The Lady of Otkrest is not all she seems..." style="shape=callout;whiteSpace=wrap;html=1;perimeter=calloutPerimeter;flipH=1;fillColor=#1A0034;fontColor=#ffffff;strokeColor=#432D57;strokeWidth=11;fontSize=26;fontFamily=Lucida Console;align=left;spacingLeft=12;spacingRight=12;" vertex="1" parent="1">
          <mxGeometry x="798.5" y="1900" width="450" height="160" as="geometry" />
        </mxCell>
      </root>
    </mxGraphModel>
  </diagram>
</mxfile>
